<svg width="48" height="48" viewBox="0 0 48 48" fill="none" xmlns="http://www.w3.org/2000/svg">
<path d="M34.41 36.46H13.59C12.85 36.46 12.25 35.86 12.25 35.12V12.88C12.25 12.14 12.85 11.54 13.59 11.54H34.41C35.15 11.54 35.75 12.14 35.75 12.88V35.12C35.75 35.86 35.15 36.46 34.41 36.46ZM13.59 11.93C13.07 11.93 12.64 12.36 12.64 12.88V35.12C12.64 35.64 13.07 36.07 13.59 36.07H34.41C34.93 36.07 35.36 35.64 35.36 35.12V12.88C35.36 12.36 34.93 11.93 34.41 11.93H13.59Z" fill="#231814"/>
<path d="M26.2702 11.73H17.1602V36.26H26.2702V11.73Z" fill="#1E64FF"/>
<path d="M26.46 36.46H16.96V11.54H26.46V36.46ZM17.35 36.07H26.07V11.93H17.35V36.07Z" fill="#231814"/>
<path d="M17.35 11.73H16.96V36.26H17.35V11.73Z" fill="#231814"/>
<path d="M26.4598 11.73H26.0698V36.26H26.4598V11.73Z" fill="#231814"/>
<path d="M25.5499 25.5201C25.4399 25.5201 25.3599 25.4301 25.3599 25.3301V23.0401C25.3599 22.9301 25.4499 22.8501 25.5499 22.8501C25.6499 22.8501 25.7499 22.9401 25.7499 23.0401V25.3301C25.7499 25.4401 25.6599 25.5201 25.5499 25.5201Z" fill="#231814"/>
<path d="M26.97 25.5201C26.86 25.5201 26.77 25.4301 26.77 25.3301V23.0401C26.77 22.9301 26.86 22.8501 26.97 22.8501C27.08 22.8501 27.16 22.9401 27.16 23.0401V25.3301C27.16 25.4401 27.07 25.5201 26.97 25.5201Z" fill="#231814"/>
<path d="M17.2898 30.23H12.3398V30.62H17.2898V30.23Z" fill="#231814"/>
<path d="M17.2898 23.98H12.3398V24.37H17.2898V23.98Z" fill="#231814"/>
<path d="M17.2898 17.96H12.3398V18.35H17.2898V17.96Z" fill="#231814"/>
<path d="M17.0902 29.6401H13.9902V30.4301H17.0902V29.6401Z" fill="white"/>
<path d="M17.28 30.6199H13.79V29.4399H17.28V30.6199ZM14.18 30.2299H16.89V29.8299H14.18V30.2299Z" fill="#231814"/>
<path d="M16.56 27.9404H13.46V28.7304H16.56V27.9404Z" fill="white"/>
<path d="M16.7498 28.9202H13.2598V27.7402H16.7498V28.9202ZM13.6498 28.5302H16.3598V28.1302H13.6498V28.5302Z" fill="#231814"/>
<path d="M15.8501 16.2602C15.8501 16.5502 15.6201 16.7802 15.3301 16.7802C15.0401 16.7802 14.8101 16.5502 14.8101 16.2602C14.8101 15.9702 15.0401 15.7402 15.3301 15.7402C15.6201 15.7402 15.8501 15.9702 15.8501 16.2602Z" fill="white"/>
<path d="M15.3301 16.9801C14.9401 16.9801 14.6201 16.6601 14.6201 16.2701C14.6201 15.8801 14.9401 15.5601 15.3301 15.5601C15.7201 15.5601 16.0401 15.8801 16.0401 16.2701C16.0401 16.6601 15.7201 16.9801 15.3301 16.9801ZM15.3301 15.9401C15.1501 15.9401 15.0101 16.0801 15.0101 16.2601C15.0101 16.4401 15.1501 16.5801 15.3301 16.5801C15.5101 16.5801 15.6501 16.4401 15.6501 16.2601C15.6501 16.0801 15.5101 15.9401 15.3301 15.9401Z" fill="#231814"/>
<path d="M16.3197 28.7603H13.2197V29.5503H16.3197V28.7603Z" fill="white"/>
<path d="M16.5198 29.7401H13.0298V28.5601H16.5198V29.7401ZM13.4198 29.3501H16.1298V28.9501H13.4198V29.3501Z" fill="#231814"/>
<path d="M15.1901 16.4498C15.1901 16.8198 14.8901 17.1198 14.5201 17.1198C14.1501 17.1198 13.8501 16.8198 13.8501 16.4498C13.8501 16.0798 14.1501 15.7798 14.5201 15.7798C14.8901 15.7798 15.1901 16.0798 15.1901 16.4498Z" fill="white"/>
<path d="M14.5202 17.3098C14.0402 17.3098 13.6602 16.9198 13.6602 16.4498C13.6602 15.9798 14.0502 15.5898 14.5202 15.5898C14.9902 15.5898 15.3802 15.9798 15.3802 16.4498C15.3802 16.9198 14.9902 17.3098 14.5202 17.3098ZM14.5202 15.9698C14.2602 15.9698 14.0502 16.1798 14.0502 16.4398C14.0502 16.6998 14.2602 16.9098 14.5202 16.9098C14.7802 16.9098 14.9902 16.6998 14.9902 16.4398C14.9902 16.1798 14.7802 15.9698 14.5202 15.9698Z" fill="#231814"/>
<path d="M14.7204 16.46H13.4204C13.4204 16.46 13.5904 17.81 14.8804 17.81C16.1704 17.81 16.3204 16.46 16.3204 16.46H14.7204Z" fill="white"/>
<path d="M14.8802 18.01C13.7302 18.01 13.2902 17.01 13.2302 16.49L13.2002 16.27H16.5402L16.5202 16.49C16.4602 17.02 16.0402 18.01 14.8902 18.01H14.8802ZM13.6702 16.66C13.7702 17 14.0702 17.62 14.8802 17.62C15.6902 17.62 15.9802 17 16.0802 16.66H13.6702Z" fill="#231814"/>
</svg>
