<svg width="48" height="48" viewBox="0 0 48 48" fill="none" xmlns="http://www.w3.org/2000/svg">
<path d="M33.8102 21.27H14.1902C13.3502 21.27 12.6602 21.95 12.6602 22.8V31.55H35.3302V22.8C35.3302 21.96 34.6502 21.27 33.8002 21.27H33.8102Z" fill="#1E64FF"/>
<path d="M35.5302 31.7501H12.4702V22.8001C12.4702 21.8501 13.2402 21.0801 14.1902 21.0801H33.8002C34.7502 21.0801 35.5202 21.8501 35.5202 22.8001V31.7501H35.5302ZM12.8602 31.3601H35.1402V22.8001C35.1402 22.0701 34.5402 21.4701 33.8102 21.4701H14.1902C13.4602 21.4701 12.8602 22.0701 12.8602 22.8001V31.3601Z" fill="#231814"/>
<path d="M37.4001 29.0503H10.6001V33.7703H37.4001V29.0503Z" fill="white"/>
<path d="M37.5999 33.9601H10.3999V28.8501H37.5899V33.9601H37.5999ZM10.7999 33.5701H37.2099V29.2401H10.7899V33.5701H10.7999Z" fill="#231814"/>
<path d="M37.4001 31.4004H10.6001V36.1204H37.4001V31.4004Z" fill="white"/>
<path d="M37.5999 36.3102H10.3999V31.2002H37.5899V36.3102H37.5999ZM10.7999 35.9202H37.2099V31.5902H10.7899V35.9202H10.7999Z" fill="#231814"/>
<path d="M31.7001 13.8199L28.6101 12.1299L25.5201 13.8199L25.3301 13.4799L28.6101 11.6899L31.8901 13.4799L31.7001 13.8199Z" fill="#231814"/>
<path d="M32.51 12.8999H24.71V17.7699H32.51V12.8999Z" fill="white"/>
<path d="M32.6998 17.97H24.5098V12.71H32.6998V17.97ZM24.8998 17.58H32.3098V13.1H24.8998V17.58Z" fill="#231814"/>
<path d="M31.7902 13.6499H25.4302V17.0299H31.7902V13.6499Z" fill="white"/>
<path d="M31.9902 17.23H25.2402V13.46H31.9902V17.23ZM25.6302 16.84H31.6002V13.85H25.6302V16.84Z" fill="#231814"/>
<path d="M37.3998 36.02V28.4C37.3998 27.62 36.7698 26.98 35.9798 26.98H34.6798C33.8998 26.98 33.2598 27.61 33.2598 28.4V36.02H37.3998Z" fill="white"/>
<path d="M37.5998 36.21H33.0698V28.4C33.0698 27.51 33.7898 26.79 34.6798 26.79H35.9798C36.8698 26.79 37.5898 27.51 37.5898 28.4V36.21H37.5998ZM33.4598 35.82H37.2098V28.4C37.2098 27.73 36.6598 27.18 35.9898 27.18H34.6898C34.0198 27.18 33.4698 27.73 33.4698 28.4V35.82H33.4598Z" fill="#231814"/>
<path d="M14.7298 36.02V28.4C14.7298 27.62 14.0998 26.98 13.3098 26.98H12.0098C11.2298 26.98 10.5898 27.61 10.5898 28.4V36.02H14.7298Z" fill="white"/>
<path d="M14.9299 36.21H10.3999V28.4C10.3999 27.51 11.1199 26.79 12.0099 26.79H13.3099C14.1999 26.79 14.9199 27.51 14.9199 28.4V36.21H14.9299ZM10.7899 35.82H14.5399V28.4C14.5399 27.73 13.9899 27.18 13.3199 27.18H12.0199C11.3499 27.18 10.7999 27.73 10.7999 28.4V35.82H10.7899Z" fill="#231814"/>
<path d="M12.8602 28.25H12.4702V36.11H12.8602V28.25Z" fill="#231814"/>
<path d="M14.7399 28.0601H10.6099V28.4501H14.7399V28.0601Z" fill="#231814"/>
<path d="M35.5199 28.25H35.1299V36.11H35.5199V28.25Z" fill="#231814"/>
<path d="M37.4 28.0601H33.27V28.4501H37.4V28.0601Z" fill="#231814"/>
</svg>
