<svg width="48" height="48" viewBox="0 0 48 48" fill="none" xmlns="http://www.w3.org/2000/svg">
<path d="M34.4099 11.73H13.5899C12.9548 11.73 12.4399 12.2449 12.4399 12.88V35.11C12.4399 35.7451 12.9548 36.26 13.5899 36.26H34.4099C35.0451 36.26 35.5599 35.7451 35.5599 35.11V12.88C35.5599 12.2449 35.0451 11.73 34.4099 11.73Z" fill="white"/>
<path d="M34.41 36.46H13.59C12.85 36.46 12.25 35.86 12.25 35.12V12.88C12.25 12.14 12.85 11.54 13.59 11.54H34.41C35.15 11.54 35.75 12.14 35.75 12.88V35.12C35.75 35.86 35.15 36.46 34.41 36.46ZM13.59 11.93C13.07 11.93 12.64 12.36 12.64 12.88V35.12C12.64 35.64 13.07 36.07 13.59 36.07H34.41C34.93 36.07 35.36 35.64 35.36 35.12V12.88C35.36 12.36 34.93 11.93 34.41 11.93H13.59Z" fill="#231814"/>
<path d="M17.35 11.73H16.96V36.26H17.35V11.73Z" fill="#231814"/>
<path d="M30.9598 11.73H30.5698V36.26H30.9598V11.73Z" fill="#231814"/>
<path d="M17.2898 30.23H12.3398V30.62H17.2898V30.23Z" fill="#231814"/>
<path d="M17.2898 23.98H12.3398V24.37H17.2898V23.98Z" fill="#231814"/>
<path d="M17.2898 17.96H12.3398V18.35H17.2898V17.96Z" fill="#231814"/>
<path d="M35.5999 30.23H30.6499V30.62H35.5999V30.23Z" fill="#231814"/>
<path d="M35.5999 23.98H30.6499V24.37H35.5999V23.98Z" fill="#231814"/>
<path d="M35.5999 17.96H30.6499V18.35H35.5999V17.96Z" fill="#231814"/>
<path d="M30.7702 27.0601H17.1602V36.2701H30.7702V27.0601Z" fill="#1E64FF"/>
<path d="M30.96 36.4599H16.96V26.8599H30.96V36.4599ZM17.35 36.0699H30.57V27.2499H17.35V36.0699Z" fill="#231814"/>
<path d="M30.6502 16.0601H17.1602V16.4501H30.6502V16.0601Z" fill="#231814"/>
<path d="M25.1602 28.7801H22.8702C22.7602 28.7801 22.6802 28.6901 22.6802 28.5901C22.6802 28.4901 22.7702 28.3901 22.8702 28.3901H25.1602C25.2702 28.3901 25.3502 28.4801 25.3502 28.5901C25.3502 28.7001 25.2602 28.7801 25.1602 28.7801Z" fill="#231814"/>
<path d="M29.72 25.35H18.27V19.27H29.72V25.35ZM18.66 24.96H29.33V19.66H18.66V24.96Z" fill="#231814"/>
<path d="M24.8398 26.4602H23.0098V24.9502H24.8398V26.4602ZM23.3998 26.0702H24.4498V25.3402H23.3998V26.0702Z" fill="#231814"/>
<path d="M26.0099 27.2601H21.8999V26.0801H26.0099V27.2601ZM22.2899 26.8701H25.6199V26.4701H22.2899V26.8701Z" fill="#231814"/>
<path d="M28.93 24.3698H19.02V20.0498H28.93V24.3698ZM19.41 23.9798H28.54V20.4398H19.41V23.9798Z" fill="#231814"/>
<path d="M24.16 11.73H23.77V16.25H24.16V11.73Z" fill="#231814"/>
<path d="M23.2398 14.9798C23.1298 14.9798 23.0498 14.8898 23.0498 14.7898V13.1998C23.0498 13.0898 23.1398 13.0098 23.2398 13.0098C23.3398 13.0098 23.4298 13.0998 23.4298 13.1998V14.7898C23.4298 14.8998 23.3398 14.9798 23.2398 14.9798Z" fill="#231814"/>
<path d="M24.7999 14.9798C24.6899 14.9798 24.6099 14.8898 24.6099 14.7898V13.1998C24.6099 13.0898 24.6999 13.0098 24.7999 13.0098C24.8999 13.0098 24.9899 13.0998 24.9899 13.1998V14.7898C24.9899 14.8998 24.8999 14.9798 24.7999 14.9798Z" fill="#231814"/>
<path d="M34.6504 20.6602H33.6904V24.0902H34.6504V20.6602Z" fill="#1E64FF"/>
<path d="M34.8402 24.2902H33.4902V20.4702H34.8402V24.2902ZM33.8802 23.9002H34.4502V20.8602H33.8802V23.9002Z" fill="#231814"/>
<path d="M32.7002 21.02H31.7402V24.09H32.7002V21.02Z" fill="#1E64FF"/>
<path d="M32.89 24.2901H31.54V20.8301H32.89V24.2901ZM31.93 23.9001H32.5V21.2201H31.93V23.9001Z" fill="#231814"/>
<path d="M33.69 20.23H32.73V24.1H33.69V20.23Z" fill="#1E64FF"/>
<path d="M33.89 24.2898H32.54V20.0298H33.89V24.2898ZM32.93 23.8998H33.5V20.4198H32.93V23.8998Z" fill="#231814"/>
<path d="M17.1 33.7803H14V34.5703H17.1V33.7803Z" fill="#1E64FF"/>
<path d="M17.2898 34.7601H13.7998V33.5801H17.2898V34.7601ZM14.1898 34.3701H16.8998V33.9701H14.1898V34.3701Z" fill="#231814"/>
<path d="M16.5702 35.48H13.4702V36.27H16.5702V35.48Z" fill="#1E64FF"/>
<path d="M16.76 36.4598H13.27V35.2798H16.76V36.4598ZM13.66 36.0698H16.37V35.6698H13.66V36.0698Z" fill="#231814"/>
<path d="M16.33 34.6602H13.23V35.4502H16.33V34.6602Z" fill="#1E64FF"/>
<path d="M16.5198 35.64H13.0298V34.46H16.5198V35.64ZM13.4198 35.25H16.1298V34.85H13.4198V35.25Z" fill="#231814"/>
<path d="M15.02 18.27C14.57 18.27 14.34 18.05 14.23 17.86C13.88 17.29 14.16 16.31 14.42 15.8C14.73 15.21 14.51 13.75 14.4 13.24L14.35 13H15.67L15.62 13.24C15.51 13.75 15.3 15.22 15.6 15.8C15.87 16.32 16.14 17.29 15.79 17.86C15.68 18.05 15.45 18.27 15 18.27H15.02ZM14.84 13.39C14.94 13.94 15.13 15.31 14.78 15.98C14.5 16.52 14.35 17.29 14.57 17.66C14.66 17.81 14.81 17.88 15.02 17.88C15.23 17.88 15.39 17.81 15.47 17.66C15.7 17.29 15.54 16.51 15.26 15.98C14.91 15.31 15.1 13.94 15.2 13.39H14.83H14.84Z" fill="#231814"/>
</svg>
