<svg width="48" height="48" viewBox="0 0 48 48" fill="none" xmlns="http://www.w3.org/2000/svg">
<path d="M18.1599 24.8701H10.3599V26.3801H18.1599V24.8701Z" fill="white"/>
<path d="M18.3599 26.5802H10.1699V24.6802H18.3599V26.5802ZM10.5599 26.1902H17.9699V25.0702H10.5599V26.1902Z" fill="#231814"/>
<path d="M17.5799 26.1899H17.1899V34.1299H17.5799V26.1899Z" fill="#231814"/>
<path d="M10.5599 14.9302H10.1699V34.1302H10.5599V14.9302Z" fill="#231814"/>
<path d="M11.0299 15.1201H10.3599V20.9901H11.0299V15.1201Z" fill="white"/>
<path d="M11.2299 21.1902H10.1699V14.9302H11.2299V21.1902ZM10.5599 20.8002H10.8399V15.3202H10.5599V20.8002Z" fill="#231814"/>
<path d="M37.6403 24.8701H29.8403V26.3801H37.6403V24.8701Z" fill="white"/>
<path d="M37.8301 26.5802H29.6401V24.6802H37.8301V26.5802ZM30.0301 26.1902H37.4401V25.0702H30.0301V26.1902Z" fill="#231814"/>
<path d="M30.8099 26.1899H30.4199V34.1299H30.8099V26.1899Z" fill="#231814"/>
<path d="M37.8299 14.9302H37.4399V34.1302H37.8299V14.9302Z" fill="#231814"/>
<path d="M37.6402 15.1201H36.9702V20.9901H37.6402V15.1201Z" fill="white"/>
<path d="M37.83 21.1902H36.77V14.9302H37.83V21.1902ZM37.16 20.8002H37.44V15.3202H37.16V20.8002Z" fill="#231814"/>
<path d="M13.9097 20.8901H12.9497V33.9301H13.9097V20.8901Z" fill="white"/>
<path d="M14.1098 34.1302H12.7598V20.7002H14.1098V34.1302ZM13.1498 33.7402H13.7198V21.0902H13.1498V33.7402Z" fill="#231814"/>
<path d="M35.0601 20.8901H34.1001V33.9301H35.0601V20.8901Z" fill="white"/>
<path d="M35.2602 34.1302H33.9102V20.7002H35.2602V34.1302ZM34.3002 33.7402H34.8702V21.0902H34.3002V33.7402Z" fill="#231814"/>
<path d="M35.0697 18.6602H12.9497V20.9902H35.0697V18.6602Z" fill="white"/>
<path d="M35.2598 21.1902H12.7598V18.4702H35.2698V21.1902H35.2598ZM13.1398 20.8002H34.8698V18.8602H13.1498V20.8002H13.1398Z" fill="#231814"/>
<path d="M15.1802 18.7002L24.1202 24.6502L32.7702 18.7002H15.1802Z" fill="#1E64FF"/>
<path d="M24.12 24.88L14.54 18.5H33.4L24.12 24.88ZM15.83 18.89L24.12 24.41L32.14 18.89H15.83Z" fill="#231814"/>
<path d="M26.5903 15.8903C26.5903 16.3403 26.9603 16.7103 27.4103 16.7103C27.8603 16.7103 28.2303 16.3403 28.2303 15.8903C28.2303 15.4403 27.8603 15.0703 27.4103 15.0703C26.9603 15.0703 26.5903 15.4403 26.5903 15.8903Z" fill="white"/>
<path d="M27.4101 16.9101C26.8501 16.9101 26.3901 16.4501 26.3901 15.8901C26.3901 15.3301 26.8501 14.8701 27.4101 14.8701C27.9701 14.8701 28.4301 15.3301 28.4301 15.8901C28.4301 16.4501 27.9701 16.9101 27.4101 16.9101ZM27.4101 15.2701C27.0601 15.2701 26.7801 15.5501 26.7801 15.9001C26.7801 16.2501 27.0601 16.5301 27.4101 16.5301C27.7601 16.5301 28.0401 16.2501 28.0401 15.9001C28.0401 15.5501 27.7601 15.2701 27.4101 15.2701Z" fill="#231814"/>
<path d="M28.2302 15.7098C28.683 15.7098 29.0502 15.3427 29.0502 14.8898C29.0502 14.437 28.683 14.0698 28.2302 14.0698C27.7773 14.0698 27.4102 14.437 27.4102 14.8898C27.4102 15.3427 27.7773 15.7098 28.2302 15.7098Z" fill="white"/>
<path d="M28.23 15.8999C27.67 15.8999 27.21 15.4399 27.21 14.8799C27.21 14.3199 27.67 13.8599 28.23 13.8599C28.79 13.8599 29.25 14.3199 29.25 14.8799C29.25 15.4399 28.79 15.8999 28.23 15.8999ZM28.23 14.2599C27.88 14.2599 27.6 14.5399 27.6 14.8899C27.6 15.2399 27.88 15.5199 28.23 15.5199C28.58 15.5199 28.86 15.2399 28.86 14.8899C28.86 14.5399 28.58 14.2599 28.23 14.2599Z" fill="#231814"/>
<path d="M28.6899 17.2499C29.2753 17.2499 29.7499 16.7753 29.7499 16.1899C29.7499 15.6045 29.2753 15.1299 28.6899 15.1299C28.1045 15.1299 27.6299 15.6045 27.6299 16.1899C27.6299 16.7753 28.1045 17.2499 28.6899 17.2499Z" fill="white"/>
<path d="M28.6899 17.4399C27.9999 17.4399 27.4399 16.8799 27.4399 16.1899C27.4399 15.4999 27.9999 14.9399 28.6899 14.9399C29.3799 14.9399 29.9399 15.4999 29.9399 16.1899C29.9399 16.8799 29.3799 17.4399 28.6899 17.4399ZM28.6899 15.3199C28.2099 15.3199 27.8299 15.7099 27.8299 16.1799C27.8299 16.6499 28.2199 17.0399 28.6899 17.0399C29.1599 17.0399 29.5499 16.6499 29.5499 16.1799C29.5499 15.7099 29.1599 15.3199 28.6899 15.3199Z" fill="#231814"/>
<path d="M28.3801 16.2002H30.4401C30.4401 16.2002 30.1701 18.3402 28.1301 18.3402C26.0901 18.3402 25.8501 16.2002 25.8501 16.2002H28.3901H28.3801Z" fill="white"/>
<path d="M28.1201 18.54C26.9701 18.54 26.3601 17.91 26.0401 17.37C25.7101 16.8 25.6401 16.24 25.6401 16.22L25.6201 16H30.6601L30.6301 16.22C30.6301 16.22 30.5501 16.8 30.2101 17.37C29.8901 17.9 29.2701 18.54 28.1201 18.54ZM26.0701 16.4C26.1201 16.59 26.2101 16.89 26.3901 17.19C26.7701 17.83 27.3601 18.16 28.1201 18.16C28.8801 18.16 29.4801 17.83 29.8801 17.18C30.0601 16.89 30.1501 16.6 30.2001 16.4H26.0801H26.0701Z" fill="#231814"/>
</svg>
