<svg width="48" height="48" viewBox="0 0 48 48" fill="none" xmlns="http://www.w3.org/2000/svg">
<path d="M30.5598 36.1201H28.9198C28.8398 36.1201 28.7598 36.0601 28.7498 35.9801L28.3898 34.0201H19.6098L19.2498 35.9801C19.2298 36.0601 19.1598 36.1201 19.0798 36.1201H17.4398C17.4398 36.1201 17.3398 36.1001 17.3098 36.0601C17.2798 36.0201 17.2598 35.9701 17.2598 35.9301L18.1798 25.8201H17.4398C17.3398 25.8201 17.2598 25.7401 17.2598 25.6401V24.2301C17.2598 23.4901 17.8598 22.8801 18.6098 22.8801H27.1098C27.2098 21.6701 27.8498 14.4001 28.5098 12.0001C28.5298 11.9201 28.5998 11.8701 28.6798 11.8701H30.5498C30.5498 11.8701 30.6498 11.8901 30.6798 11.9301C30.7098 11.9701 30.7298 12.0101 30.7298 12.0601C30.7298 12.1601 30.0298 21.9001 30.0298 23.0501C30.0298 23.0501 30.0298 23.0501 30.0298 23.0601L29.7998 25.6201L30.7398 35.9101C30.7398 35.9101 30.7298 36.0101 30.6898 36.0401C30.6598 36.0801 30.6098 36.1001 30.5598 36.1001V36.1201ZM29.0698 35.7701H30.3698L29.4698 25.8201H27.2698L28.3698 31.8601C28.3698 31.8601 28.4098 31.9301 28.4098 31.9701C28.4098 31.9901 28.4098 32.0101 28.4098 32.0201L28.7298 33.7801C28.7298 33.7801 28.7398 33.8201 28.7398 33.8401L29.0898 35.7701H29.0698ZM17.6398 35.7701H18.9398L19.6198 32.0201C19.6198 32.0201 19.6198 31.9801 19.6198 31.9701C19.6198 31.9301 19.6298 31.8901 19.6598 31.8601L20.7598 25.8201H18.5598L17.6598 35.7701H17.6398ZM19.6798 33.6601H28.3298L28.0498 32.1401H19.9598L19.6798 33.6601ZM20.0198 31.7901H27.9898L26.8998 25.8201H21.0998L20.0098 31.7901H20.0198ZM27.0498 25.4701H29.4598L29.6598 23.2501H18.6098C18.0598 23.2501 17.6098 23.7001 17.6098 24.2501V25.4801H27.0398L27.0498 25.4701ZM27.4698 22.8901H29.6798C29.7298 21.2801 30.2698 13.5801 30.3698 12.2401H28.8198C28.1998 14.6801 27.5798 21.6501 27.4698 22.8901Z" fill="#231814"/>
<path d="M19.9502 32.1401L19.6802 33.6601H28.3202L28.0502 32.1401H19.9502Z" fill="#1E64FF"/>
<path d="M18.3799 25.4602H29.4599L29.6599 23.2402H18.6099C18.0599 23.2402 17.6099 23.6902 17.6099 24.2402V25.4702H18.3699L18.3799 25.4602Z" fill="#1E64FF"/>
<path d="M28.8202 12.23C28.2002 14.67 27.5802 21.64 27.4702 22.88H29.6802C29.7302 21.27 30.2702 13.57 30.3702 12.23H28.8202Z" fill="#1E64FF"/>
</svg>
