<svg width="48" height="48" viewBox="0 0 48 48" fill="none" xmlns="http://www.w3.org/2000/svg">
<path d="M13.8799 24.3999H12.9199V36.0299H13.8799V24.3999Z" fill="#1E64FF"/>
<path d="M14.08 36.23H12.73V24.21H14.08V36.23ZM13.12 35.84H13.69V24.6H13.12V35.84Z" fill="#231814"/>
<path d="M35.03 24.3999H24.23V36.0299H35.03V24.3999Z" fill="#1E64FF"/>
<path d="M35.23 36.23H24.04V24.21H35.23V36.23ZM24.43 35.84H34.84V24.6H24.43V35.84Z" fill="#231814"/>
<path d="M35.0404 22.1802H12.9204V24.5102H35.0404V22.1802Z" fill="#1E64FF"/>
<path d="M35.2302 24.7H12.7202V21.98H35.2302V24.7ZM13.1102 24.31H34.8402V22.37H13.1102V24.31Z" fill="#231814"/>
<path d="M35.0898 30.4098H24.2298C24.1198 30.4098 24.0298 30.3198 24.0298 30.2198C24.0298 30.1198 24.1198 30.0298 24.2298 30.0298H35.0898C35.1998 30.0298 35.2798 30.1198 35.2798 30.2198C35.2798 30.3198 35.1898 30.4098 35.0898 30.4098Z" fill="#231814"/>
<path d="M30.7798 27.9H28.4898C28.3798 27.9 28.2998 27.81 28.2998 27.71C28.2998 27.61 28.3898 27.52 28.4898 27.52H30.7798C30.8898 27.52 30.9698 27.61 30.9698 27.71C30.9698 27.81 30.8798 27.9 30.7798 27.9Z" fill="#231814"/>
<path d="M30.7798 32.9H28.4898C28.3798 32.9 28.2998 32.81 28.2998 32.71C28.2998 32.61 28.3898 32.52 28.4898 32.52H30.7798C30.8898 32.52 30.9698 32.61 30.9698 32.71C30.9698 32.81 30.8798 32.9 30.7798 32.9Z" fill="#231814"/>
<path d="M33.1197 16.2197H24.9897V21.2497H33.1197V16.2197Z" fill="white"/>
<path d="M33.3198 21.4498H24.7998V16.0298H33.3198V21.4498ZM25.1898 21.0598H32.9298V16.4198H25.1898V21.0598Z" fill="#231814"/>
<path d="M33.98 21.2603H23.98V22.1203H33.98V21.2603Z" fill="white"/>
<path d="M34.1698 22.3101H23.7798V21.0601H34.1698V22.3101ZM24.1698 21.9201H33.7798V21.4501H24.1698V21.9201Z" fill="#231814"/>
<path d="M32.4703 16.8301H25.5903V20.6901H32.4703V16.8301Z" fill="white"/>
<path d="M32.6601 20.8901H25.3901V16.6401H32.6601V20.8901ZM25.7801 20.5001H32.2701V17.0301H25.7801V20.5001Z" fill="#231814"/>
<path d="M18.9102 35.18C18.8002 35.18 18.7202 35.09 18.7202 34.99V27.42C18.7202 27.31 18.8102 27.23 18.9102 27.23C19.0102 27.23 19.1002 27.32 19.1002 27.42V34.99C19.1002 35.1 19.0102 35.18 18.9102 35.18Z" fill="#231814"/>
<path d="M22.1 30.8301H15.72C15.31 30.8301 14.98 30.5001 14.98 30.0901C14.98 29.6801 15.31 29.3501 15.72 29.3501H22.1C22.51 29.3501 22.84 29.6801 22.84 30.0901C22.84 30.5001 22.51 30.8301 22.1 30.8301Z" fill="white"/>
<path d="M22.0998 31.0299H15.7198C15.1998 31.0299 14.7798 30.6099 14.7798 30.0899C14.7798 29.5699 15.1998 29.1499 15.7198 29.1499H22.0998C22.6198 29.1499 23.0398 29.5699 23.0398 30.0899C23.0398 30.6099 22.6198 31.0299 22.0998 31.0299ZM15.7198 29.5399C15.4198 29.5399 15.1698 29.7899 15.1698 30.0899C15.1698 30.3899 15.4198 30.6399 15.7198 30.6399H22.0998C22.3998 30.6399 22.6498 30.3899 22.6498 30.0899C22.6498 29.7899 22.3998 29.5399 22.0998 29.5399H15.7198Z" fill="#231814"/>
<path d="M21.3602 35.3C21.2502 35.3 21.1702 35.21 21.1702 35.11V34.39H16.6002V35.11C16.6002 35.22 16.5102 35.3 16.4102 35.3C16.3102 35.3 16.2202 35.21 16.2202 35.11V34H21.5702V35.11C21.5702 35.22 21.4802 35.3 21.3802 35.3H21.3602Z" fill="#231814"/>
<path d="M21.7 19.3701H16.13C15.4949 19.3701 14.98 19.885 14.98 20.5201V26.5601C14.98 27.1952 15.4949 27.7101 16.13 27.7101H21.7C22.3351 27.7101 22.85 27.1952 22.85 26.5601V20.5201C22.85 19.885 22.3351 19.3701 21.7 19.3701Z" fill="white"/>
<path d="M21.6998 27.9002H16.1198C15.3798 27.9002 14.7798 27.3002 14.7798 26.5602V20.5202C14.7798 19.7802 15.3798 19.1802 16.1198 19.1802H21.6998C22.4398 19.1802 23.0398 19.7802 23.0398 20.5202V26.5602C23.0398 27.3002 22.4398 27.9002 21.6998 27.9002ZM16.1198 19.5602C15.5998 19.5602 15.1698 19.9902 15.1698 20.5102V26.5502C15.1698 27.0702 15.5998 27.5002 16.1198 27.5002H21.6998C22.2198 27.5002 22.6498 27.0702 22.6498 26.5502V20.5102C22.6498 19.9902 22.2198 19.5602 21.6998 19.5602H16.1198Z" fill="#231814"/>
<path d="M16.36 36.0301C16.18 36.0301 16.04 35.8901 16.04 35.7101V35.4201C16.04 35.2401 16.18 35.1001 16.36 35.1001C16.54 35.1001 16.68 35.2401 16.68 35.4201V35.7101C16.68 35.8901 16.54 36.0301 16.36 36.0301Z" fill="white"/>
<path d="M16.3601 36.2299C16.0801 36.2299 15.8501 35.9999 15.8501 35.7199V35.4299C15.8501 35.1499 16.0801 34.9199 16.3601 34.9199C16.6401 34.9199 16.8701 35.1499 16.8701 35.4299V35.7199C16.8701 35.9999 16.6401 36.2299 16.3601 36.2299ZM16.3601 35.2999C16.2901 35.2999 16.2401 35.3599 16.2401 35.4199V35.7099C16.2401 35.7799 16.3001 35.8299 16.3601 35.8299C16.4201 35.8299 16.4801 35.7699 16.4801 35.7099V35.4199C16.4801 35.3499 16.4201 35.2999 16.3601 35.2999Z" fill="#231814"/>
<path d="M21.36 36.0301C21.18 36.0301 21.04 35.8901 21.04 35.7101V35.4201C21.04 35.2401 21.18 35.1001 21.36 35.1001C21.54 35.1001 21.68 35.2401 21.68 35.4201V35.7101C21.68 35.8901 21.54 36.0301 21.36 36.0301Z" fill="white"/>
<path d="M21.3601 36.2299C21.0801 36.2299 20.8501 35.9999 20.8501 35.7199V35.4299C20.8501 35.1499 21.0801 34.9199 21.3601 34.9199C21.6401 34.9199 21.8701 35.1499 21.8701 35.4299V35.7199C21.8701 35.9999 21.6401 36.2299 21.3601 36.2299ZM21.3601 35.2999C21.2901 35.2999 21.2401 35.3599 21.2401 35.4199V35.7099C21.2401 35.7799 21.3001 35.8299 21.3601 35.8299C21.4201 35.8299 21.4801 35.7699 21.4801 35.7099V35.4199C21.4801 35.3499 21.4201 35.2999 21.3601 35.2999Z" fill="#231814"/>
<path d="M18.9098 35.68C18.7298 35.68 18.5898 35.54 18.5898 35.36V35.07C18.5898 34.89 18.7298 34.75 18.9098 34.75C19.0898 34.75 19.2298 34.89 19.2298 35.07V35.36C19.2298 35.54 19.0898 35.68 18.9098 35.68Z" fill="white"/>
<path d="M18.9099 35.8701C18.6299 35.8701 18.3999 35.6401 18.3999 35.3601V35.0701C18.3999 34.7901 18.6299 34.5601 18.9099 34.5601C19.1899 34.5601 19.4199 34.7901 19.4199 35.0701V35.3601C19.4199 35.6401 19.1899 35.8701 18.9099 35.8701ZM18.9099 34.9401C18.8399 34.9401 18.7899 35.0001 18.7899 35.0601V35.3501C18.7899 35.4201 18.8499 35.4701 18.9099 35.4701C18.9699 35.4701 19.0299 35.4101 19.0299 35.3501V35.0601C19.0299 34.9901 18.9699 34.9401 18.9099 34.9401Z" fill="#231814"/>
<path d="M13.88 22.31C13.78 22.31 13.7 22.24 13.69 22.14L12.71 14.61L15.96 11.77H21.69C21.8 11.77 21.88 11.86 21.88 11.96C21.88 12.06 21.79 12.15 21.69 12.15H16.11L13.12 14.76L14.07 22.08C14.08 22.19 14.01 22.28 13.9 22.3C13.9 22.3 13.88 22.3 13.87 22.3L13.88 22.31Z" fill="#231814"/>
<path d="M21.7001 11.9697H17.3101V13.0997H21.7001V11.9697Z" fill="white"/>
<path d="M21.8899 13.2998H17.1099V11.7798H21.8899V13.2998ZM17.4999 12.9098H21.4999V12.1698H17.4999V12.9098Z" fill="#231814"/>
</svg>
