<svg width="48" height="48" viewBox="0 0 48 48" fill="none" xmlns="http://www.w3.org/2000/svg">
<path d="M33.4303 15.9004H14.5703V24.2704H33.4303V15.9004Z" fill="white"/>
<path d="M33.6301 24.4602H14.3701V15.7002H33.6201V24.4602H33.6301ZM14.7701 24.0702H33.2401V16.0902H14.7601V24.0702H14.7701Z" fill="#231814"/>
<path d="M21.9298 20.1201H15.2198C14.5847 20.1201 14.0698 20.635 14.0698 21.2701V24.8601C14.0698 25.4952 14.5847 26.0101 15.2198 26.0101H21.9298C22.565 26.0101 23.0798 25.4952 23.0798 24.8601V21.2701C23.0798 20.635 22.565 20.1201 21.9298 20.1201Z" fill="#1E64FF"/>
<path d="M21.9299 26.1999H15.2199C14.4799 26.1999 13.8799 25.5999 13.8799 24.8599V21.2599C13.8799 20.5199 14.4799 19.9199 15.2199 19.9199H21.9299C22.6699 19.9199 23.2699 20.5199 23.2699 21.2599V24.8599C23.2699 25.5999 22.6699 26.1999 21.9299 26.1999ZM15.2199 20.3099C14.6999 20.3099 14.2699 20.7399 14.2699 21.2599V24.8599C14.2699 25.3799 14.6999 25.8099 15.2199 25.8099H21.9299C22.4499 25.8099 22.8799 25.3799 22.8799 24.8599V21.2599C22.8799 20.7399 22.4499 20.3099 21.9299 20.3099H15.2199Z" fill="#231814"/>
<path d="M32.6398 20.1201H25.9298C25.2947 20.1201 24.7798 20.635 24.7798 21.2701V24.8601C24.7798 25.4952 25.2947 26.0101 25.9298 26.0101H32.6398C33.2749 26.0101 33.7898 25.4952 33.7898 24.8601V21.2701C33.7898 20.635 33.2749 20.1201 32.6398 20.1201Z" fill="#1E64FF"/>
<path d="M32.6398 26.1999H25.9298C25.1898 26.1999 24.5898 25.5999 24.5898 24.8599V21.2599C24.5898 20.5199 25.1898 19.9199 25.9298 19.9199H32.6398C33.3798 19.9199 33.9798 20.5199 33.9798 21.2599V24.8599C33.9798 25.5999 33.3798 26.1999 32.6398 26.1999ZM25.9298 20.3099C25.4098 20.3099 24.9798 20.7399 24.9798 21.2599V24.8599C24.9798 25.3799 25.4098 25.8099 25.9298 25.8099H32.6398C33.1598 25.8099 33.5898 25.3799 33.5898 24.8599V21.2599C33.5898 20.7399 33.1598 20.3099 32.6398 20.3099H25.9298Z" fill="#231814"/>
<path d="M34.7603 24.27H13.2403C12.6052 24.27 12.0903 24.7849 12.0903 25.42V27.42C12.0903 28.0551 12.6052 28.57 13.2403 28.57H34.7603C35.3955 28.57 35.9103 28.0551 35.9103 27.42V25.42C35.9103 24.7849 35.3955 24.27 34.7603 24.27Z" fill="white"/>
<path d="M34.7701 28.7598H13.2301C12.4901 28.7598 11.8901 28.1598 11.8901 27.4198V25.4098C11.8901 24.6698 12.4901 24.0698 13.2301 24.0698H34.7601C35.5001 24.0698 36.1001 24.6698 36.1001 25.4098V27.4198C36.1001 28.1598 35.5001 28.7598 34.7601 28.7598H34.7701ZM13.2401 24.4598C12.7201 24.4598 12.2901 24.8898 12.2901 25.4098V27.4198C12.2901 27.9398 12.7201 28.3698 13.2401 28.3698H34.7701C35.2901 28.3698 35.7201 27.9398 35.7201 27.4198V25.4098C35.7201 24.8898 35.2901 24.4598 34.7701 24.4598H13.2301H13.2401Z" fill="#231814"/>
<path d="M35.9103 27.1997H12.0903V32.0997H35.9103V27.1997Z" fill="white"/>
<path d="M36.1101 32.2998H11.8901V27.0098H36.1001V32.2998H36.1101ZM12.2901 31.9098H35.7201V27.3998H12.2801V31.9098H12.2901Z" fill="#231814"/>
<path d="M13.7202 24.27L14.5702 29.05L34.1402 24.27H13.7202Z" fill="white"/>
<path d="M14.5702 29.2501C14.5702 29.2501 14.5002 29.2401 14.4602 29.2201C14.4102 29.1901 14.3802 29.1401 14.3702 29.0901L13.5202 24.3101C13.5102 24.2501 13.5202 24.1901 13.5602 24.1501C13.6002 24.1101 13.6502 24.0801 13.7102 24.0801H34.1302C34.2302 24.0801 34.3102 24.1501 34.3202 24.2501C34.3302 24.3501 34.2702 24.4401 34.1702 24.4601L14.6002 29.2401C14.6002 29.2401 14.5702 29.2401 14.5502 29.2401L14.5702 29.2501ZM13.9502 24.4701L14.7202 28.8201L32.5202 24.4701H13.9502Z" fill="#231814"/>
</svg>
