<svg width="48" height="48" viewBox="0 0 48 48" fill="none" xmlns="http://www.w3.org/2000/svg">
<path d="M24 34.3901C23.49 34.3901 22.73 34.3701 22.01 34.2401C21.9 34.2201 21.79 34.2001 21.67 34.1801C20.91 34.0601 20.06 33.9301 19.62 33.2301C19.44 32.9401 19.39 32.6001 19.47 32.2401C19.57 31.8101 19.85 31.4201 20.23 31.1901C20.27 31.1701 20.87 30.7901 21.46 30.1701C22 29.6001 22.65 28.6801 22.65 27.5801V23.8701C22.65 22.7601 22 21.8401 21.45 21.2701C20.85 20.6401 20.24 20.2701 20.23 20.2701C20.19 20.2501 20.17 20.2001 20.17 20.1601C18.68 20.0601 17.29 19.9001 16.11 19.6801C15.08 19.4901 14.27 19.2801 13.7 19.0401C13.06 18.7801 12.75 18.5001 12.75 18.1901V15.7201C12.75 15.4101 13.06 15.1301 13.7 14.8701C14.27 14.6301 15.08 14.4201 16.11 14.2301C18.26 13.8401 21.06 13.6201 24 13.6201C26.94 13.6201 29.74 13.8401 31.89 14.2301C32.92 14.4201 33.73 14.6301 34.3 14.8701C34.94 15.1301 35.25 15.4101 35.25 15.7201V18.1901C35.25 18.5001 34.94 18.7801 34.3 19.0401C33.73 19.2801 32.92 19.4901 31.89 19.6801C30.7 19.9001 29.32 20.0601 27.83 20.1601C27.83 20.2001 27.81 20.2501 27.77 20.2701C27.77 20.2701 27.15 20.6401 26.55 21.2701C26 21.8501 25.35 22.7701 25.35 23.8701V27.5801C25.35 28.6801 26 29.6001 26.54 30.1701C27.13 30.7901 27.73 31.1601 27.77 31.1901C28.15 31.4201 28.43 31.8101 28.53 32.2401C28.61 32.6001 28.56 32.9401 28.38 33.2301C27.94 33.9301 27.08 34.0601 26.33 34.1801C26.21 34.2001 26.1 34.2201 25.99 34.2401C25.26 34.3701 24.51 34.3901 24 34.3901ZM20.3 31.4401C20 31.6401 19.78 31.9601 19.7 32.3101C19.65 32.5201 19.63 32.8201 19.82 33.1201C20.2 33.7301 21 33.8501 21.71 33.9601C21.83 33.9801 21.94 34.0001 22.06 34.0201C22.77 34.1501 23.51 34.1601 24.01 34.1601C24.51 34.1601 25.25 34.1501 25.96 34.0201C26.07 34.0001 26.18 33.9801 26.31 33.9601C27.02 33.8501 27.82 33.7201 28.2 33.1201C28.39 32.8301 28.37 32.5201 28.32 32.3101C28.24 31.9601 28.02 31.6401 27.72 31.4401C26 32.1601 24.04 32.1701 24.02 32.1701C24 32.1701 22.04 32.1701 20.32 31.4401H20.3ZM20.54 31.2801C22.18 31.9201 23.98 31.9301 24 31.9301C24.02 31.9301 25.82 31.9301 27.46 31.2801C26.87 30.8701 25.12 29.5001 25.12 27.5901V23.8801C25.12 22.9401 25.56 21.9801 26.39 21.1101C26.82 20.6601 27.24 20.3501 27.47 20.1901C26.36 20.2601 25.19 20.2901 24 20.2901C22.81 20.2901 21.64 20.2501 20.53 20.1901C20.76 20.3501 21.18 20.6601 21.61 21.1101C22.44 21.9801 22.88 22.9401 22.88 23.8801V27.5901C22.88 28.5201 22.45 29.4801 21.63 30.3401C21.21 30.7901 20.78 31.1101 20.54 31.2701V31.2801ZM12.98 16.1601V18.1901C12.98 18.3001 13.08 18.5301 13.78 18.8201C14.33 19.0501 15.15 19.2601 16.14 19.4501C18.28 19.8401 21.07 20.0501 23.99 20.0501C26.91 20.0501 29.7 19.8401 31.84 19.4501C32.84 19.2701 33.65 19.0501 34.2 18.8201C34.5 18.7001 35 18.4501 35 18.1901V16.1601C34.84 16.3001 34.61 16.4301 34.29 16.5701C33.72 16.8101 32.91 17.0201 31.88 17.2101C29.73 17.6001 26.93 17.8201 23.99 17.8201C21.05 17.8201 18.25 17.6001 16.1 17.2101C15.07 17.0201 14.26 16.8101 13.69 16.5701C13.37 16.4401 13.14 16.3001 12.98 16.1601ZM23.99 13.8501C21.06 13.8501 18.28 14.0601 16.14 14.4501C15.14 14.6301 14.33 14.8501 13.78 15.0801C13.48 15.2001 12.98 15.4501 12.98 15.7101C12.98 15.8201 13.08 16.0501 13.78 16.3401C14.33 16.5701 15.15 16.7801 16.14 16.9701C18.28 17.3601 21.07 17.5701 23.99 17.5701C26.91 17.5701 29.7 17.3601 31.84 16.9701C32.84 16.7901 33.65 16.5701 34.2 16.3401C34.5 16.2201 35 15.9701 35 15.7101C35 15.6001 34.9 15.3701 34.2 15.0801C33.65 14.8501 32.83 14.6401 31.84 14.4501C29.7 14.0601 26.91 13.8501 23.99 13.8501Z" fill="#231814"/>
<path d="M31.8902 17.1999C29.7402 17.5899 26.9402 17.8099 24.0002 17.8099C21.0602 17.8099 18.2602 17.5899 16.1102 17.1999C15.0802 17.0099 14.2702 16.7999 13.7002 16.5599C13.3802 16.4299 13.1502 16.2899 12.9902 16.1499V18.1799C12.9902 18.2899 13.0902 18.5199 13.7902 18.8099C14.3402 19.0399 15.1602 19.2499 16.1502 19.4399C18.2902 19.8299 21.0802 20.0399 24.0002 20.0399C26.9202 20.0399 29.7102 19.8299 31.8502 19.4399C32.8502 19.2599 33.6602 19.0399 34.2102 18.8099C34.5102 18.6899 35.0102 18.4399 35.0102 18.1799V16.1499C34.8502 16.2899 34.6202 16.4199 34.3002 16.5599C33.7302 16.7999 32.9202 17.0099 31.8902 17.1999Z" fill="#1E64FF"/>
<path d="M20.3002 31.4302C20.0002 31.6302 19.7802 31.9502 19.7002 32.3002C19.6502 32.5102 19.6302 32.8102 19.8202 33.1102C20.2002 33.7202 21.0002 33.8402 21.7102 33.9502C21.8302 33.9702 21.9402 33.9902 22.0602 34.0102C22.7702 34.1402 23.5102 34.1502 24.0102 34.1502C24.5102 34.1502 25.2502 34.1402 25.9602 34.0102C26.0702 33.9902 26.1802 33.9702 26.3102 33.9502C27.0202 33.8402 27.8202 33.7102 28.2002 33.1102C28.3902 32.8202 28.3702 32.5102 28.3202 32.3002C28.2402 31.9502 28.0202 31.6302 27.7202 31.4302C26.0002 32.1502 24.0402 32.1602 24.0202 32.1602C24.0002 32.1602 22.0402 32.1602 20.3202 31.4302H20.3002Z" fill="#1E64FF"/>
</svg>
