<svg width="48" height="48" viewBox="0 0 48 48" fill="none" xmlns="http://www.w3.org/2000/svg">
<path d="M34.71 21.7402H13.29V36.6102H34.71V21.7402Z" fill="white"/>
<path d="M34.9001 36.8H13.1001V21.54H34.9101V36.8H34.9001ZM13.4801 36.41H34.5101V21.93H13.4901V36.41H13.4801Z" fill="#231814"/>
<path d="M34.71 21.7402H13.29V25.0702H34.71V21.7402Z" fill="#1E64FF"/>
<path d="M34.9001 25.26H13.1001V21.54H34.9101V25.26H34.9001ZM13.4801 24.87H34.5101V21.93H13.4901V24.87H13.4801Z" fill="#231814"/>
<path d="M32.7601 26.6001H14.8701V34.7201H32.7601V26.6001Z" fill="#1E64FF"/>
<path d="M32.9499 34.9099H14.6699V26.3999H32.9499V34.9099ZM15.0599 34.5199H32.5599V26.7899H15.0599V34.5199Z" fill="#231814"/>
<path d="M17.0799 24.1002C17.4665 24.1002 17.7799 23.7868 17.7799 23.4002C17.7799 23.0136 17.4665 22.7002 17.0799 22.7002C16.6933 22.7002 16.3799 23.0136 16.3799 23.4002C16.3799 23.7868 16.6933 24.1002 17.0799 24.1002Z" fill="white"/>
<path d="M17.0799 24.3C16.5899 24.3 16.1899 23.9 16.1899 23.41C16.1899 22.92 16.5899 22.52 17.0799 22.52C17.5699 22.52 17.9699 22.92 17.9699 23.41C17.9699 23.9 17.5699 24.3 17.0799 24.3ZM17.0799 22.9C16.7999 22.9 16.5799 23.13 16.5799 23.4C16.5799 23.67 16.8099 23.9 17.0799 23.9C17.3499 23.9 17.5799 23.67 17.5799 23.4C17.5799 23.13 17.3499 22.9 17.0799 22.9Z" fill="#231814"/>
<path d="M17.0801 24.3001C16.9701 24.3001 16.8901 24.2101 16.8901 24.1101V22.2901C16.8901 22.1801 16.9801 22.1001 17.0801 22.1001C17.1801 22.1001 17.2701 22.1901 17.2701 22.2901V24.1101C17.2701 24.2201 17.1801 24.3001 17.0801 24.3001Z" fill="#231814"/>
<path d="M20.44 23.4002C20.44 23.7902 20.13 24.1002 19.74 24.1002C19.35 24.1002 19.04 23.7902 19.04 23.4002C19.04 23.0102 19.35 22.7002 19.74 22.7002C20.13 22.7002 20.44 23.0102 20.44 23.4002Z" fill="white"/>
<path d="M19.7401 24.3C19.2501 24.3 18.8501 23.9 18.8501 23.41C18.8501 22.92 19.2501 22.52 19.7401 22.52C20.2301 22.52 20.6301 22.92 20.6301 23.41C20.6301 23.9 20.2301 24.3 19.7401 24.3ZM19.7401 22.9C19.4601 22.9 19.2401 23.13 19.2401 23.4C19.2401 23.67 19.4701 23.9 19.7401 23.9C20.0101 23.9 20.2401 23.67 20.2401 23.4C20.2401 23.13 20.0101 22.9 19.7401 22.9Z" fill="#231814"/>
<path d="M19.7398 24.3001C19.6298 24.3001 19.5498 24.2101 19.5498 24.1101V22.2901C19.5498 22.1801 19.6398 22.1001 19.7398 22.1001C19.8398 22.1001 19.9298 22.1901 19.9298 22.2901V24.1101C19.9298 24.2201 19.8398 24.3001 19.7398 24.3001Z" fill="#231814"/>
<path d="M23.0997 23.4002C23.0997 23.7902 22.7897 24.1002 22.3997 24.1002C22.0097 24.1002 21.6997 23.7902 21.6997 23.4002C21.6997 23.0102 22.0097 22.7002 22.3997 22.7002C22.7897 22.7002 23.0997 23.0102 23.0997 23.4002Z" fill="white"/>
<path d="M22.3998 24.3C21.9098 24.3 21.5098 23.9 21.5098 23.41C21.5098 22.92 21.9098 22.52 22.3998 22.52C22.8898 22.52 23.2898 22.92 23.2898 23.41C23.2898 23.9 22.8898 24.3 22.3998 24.3ZM22.3998 22.9C22.1198 22.9 21.8998 23.13 21.8998 23.4C21.8998 23.67 22.1298 23.9 22.3998 23.9C22.6698 23.9 22.8998 23.67 22.8998 23.4C22.8998 23.13 22.6698 22.9 22.3998 22.9Z" fill="#231814"/>
<path d="M22.4 24.3001C22.29 24.3001 22.21 24.2101 22.21 24.1101V22.2901C22.21 22.1801 22.3 22.1001 22.4 22.1001C22.5 22.1001 22.59 22.1901 22.59 22.2901V24.1101C22.59 24.2201 22.5 24.3001 22.4 24.3001Z" fill="#231814"/>
<path d="M25.7599 23.4002C25.7599 23.7902 25.4499 24.1002 25.0599 24.1002C24.6699 24.1002 24.3599 23.7902 24.3599 23.4002C24.3599 23.0102 24.6699 22.7002 25.0599 22.7002C25.4499 22.7002 25.7599 23.0102 25.7599 23.4002Z" fill="white"/>
<path d="M25.0599 24.3C24.5699 24.3 24.1699 23.9 24.1699 23.41C24.1699 22.92 24.5699 22.52 25.0599 22.52C25.5499 22.52 25.9499 22.92 25.9499 23.41C25.9499 23.9 25.5499 24.3 25.0599 24.3ZM25.0599 22.9C24.7799 22.9 24.5599 23.13 24.5599 23.4C24.5599 23.67 24.7899 23.9 25.0599 23.9C25.3299 23.9 25.5599 23.67 25.5599 23.4C25.5599 23.13 25.3299 22.9 25.0599 22.9Z" fill="#231814"/>
<path d="M25.0601 24.3001C24.9501 24.3001 24.8701 24.2101 24.8701 24.1101V22.2901C24.8701 22.1801 24.9601 22.1001 25.0601 22.1001C25.1601 22.1001 25.2501 22.1901 25.2501 22.2901V24.1101C25.2501 24.2201 25.1601 24.3001 25.0601 24.3001Z" fill="#231814"/>
<path d="M29.3602 24.1002C29.7468 24.1002 30.0602 23.7868 30.0602 23.4002C30.0602 23.0136 29.7468 22.7002 29.3602 22.7002C28.9736 22.7002 28.6602 23.0136 28.6602 23.4002C28.6602 23.7868 28.9736 24.1002 29.3602 24.1002Z" fill="white"/>
<path d="M29.3602 24.3C28.8702 24.3 28.4702 23.9 28.4702 23.41C28.4702 22.92 28.8702 22.52 29.3602 22.52C29.8502 22.52 30.2502 22.92 30.2502 23.41C30.2502 23.9 29.8502 24.3 29.3602 24.3ZM29.3602 22.9C29.0802 22.9 28.8602 23.13 28.8602 23.4C28.8602 23.67 29.0902 23.9 29.3602 23.9C29.6302 23.9 29.8602 23.67 29.8602 23.4C29.8602 23.13 29.6302 22.9 29.3602 22.9Z" fill="#231814"/>
<path d="M29.3599 24.3001C29.2499 24.3001 29.1699 24.2101 29.1699 24.1101V22.2901C29.1699 22.1801 29.2599 22.1001 29.3599 22.1001C29.4599 22.1001 29.5499 22.1901 29.5499 22.2901V24.1101C29.5499 24.2201 29.4599 24.3001 29.3599 24.3001Z" fill="#231814"/>
<path d="M31.65 23.3997C31.65 23.6297 31.46 23.8297 31.22 23.8297C30.98 23.8297 30.79 23.6397 30.79 23.3997C30.79 23.1597 30.98 22.9697 31.22 22.9697C31.46 22.9697 31.65 23.1597 31.65 23.3997Z" fill="white"/>
<path d="M31.2201 24.0198C30.8801 24.0198 30.6001 23.7398 30.6001 23.3998C30.6001 23.0598 30.8801 22.7798 31.2201 22.7798C31.5601 22.7798 31.8401 23.0598 31.8401 23.3998C31.8401 23.7398 31.5601 24.0198 31.2201 24.0198ZM31.2201 23.1698C31.0901 23.1698 30.9901 23.2698 30.9901 23.3998C30.9901 23.5298 31.0901 23.6298 31.2201 23.6298C31.3501 23.6298 31.4501 23.5298 31.4501 23.3998C31.4501 23.2698 31.3501 23.1698 31.2201 23.1698Z" fill="#231814"/>
<path d="M27.82 31C27.82 31 27.74 30.99 27.7 30.96C27.61 30.89 27.6 30.77 27.67 30.69L29.79 27.96C29.86 27.88 29.98 27.86 30.06 27.93C30.14 28 30.16 28.12 30.09 28.2L27.97 30.93C27.97 30.93 27.87 31.01 27.82 31.01V31Z" fill="#231814"/>
<path d="M27.2802 33.4399C27.2802 33.4399 27.2002 33.4299 27.1602 33.3999C27.0802 33.3299 27.0602 33.2099 27.1302 33.1299L29.2502 30.3999C29.3202 30.3199 29.4402 30.2999 29.5202 30.3699C29.6102 30.4399 29.6202 30.5599 29.5502 30.6399L27.4302 33.3699C27.4302 33.3699 27.3302 33.4499 27.2802 33.4499V33.4399Z" fill="#231814"/>
<path d="M18.5402 31C18.5402 31 18.4602 30.99 18.4202 30.96C18.3302 30.89 18.3202 30.77 18.3902 30.69L20.5102 27.96C20.5802 27.88 20.7002 27.86 20.7802 27.93C20.8602 28 20.8802 28.12 20.8102 28.2L18.6902 30.93C18.6902 30.93 18.5902 31.01 18.5402 31.01V31Z" fill="#231814"/>
<path d="M17.9899 33.4399C17.9899 33.4399 17.9099 33.4299 17.8699 33.3999C17.7799 33.3299 17.7699 33.2099 17.8399 33.1299L19.9599 30.3999C20.0299 30.3199 20.1499 30.2999 20.2299 30.3699C20.3199 30.4399 20.3299 30.5599 20.2599 30.6399L18.1399 33.3699C18.1399 33.3699 18.0399 33.4499 17.9899 33.4499V33.4399Z" fill="#231814"/>
<path d="M33.1999 21.93H14.9199V20.75H33.1999V21.93ZM15.3099 21.54H32.8099V21.14H15.3099V21.54Z" fill="#231814"/>
<path d="M26.6397 12.5601V11.3901H21.4397V12.5601L16.2397 14.4801H31.8497L26.6397 12.5601Z" fill="#1E64FF"/>
<path d="M32.9399 14.6699H15.1499L21.2499 12.4199V11.1899H26.8399V12.4199L32.9399 14.6699ZM17.3399 14.2799H30.7599L26.4599 12.6999V11.5899H21.6499V12.6999L17.3499 14.2799H17.3399Z" fill="#231814"/>
<path d="M32.7601 14.48H15.1201V15.38H32.7601V14.48Z" fill="white"/>
<path d="M32.7602 15.5798H15.1202C15.0102 15.5798 14.9302 15.4898 14.9302 15.3898V14.4898C14.9302 14.3798 15.0202 14.2998 15.1202 14.2998H32.7602C32.8702 14.2998 32.9502 14.3898 32.9502 14.4898V15.3898C32.9502 15.4998 32.8602 15.5798 32.7602 15.5798ZM15.3102 15.1898H32.5602V14.6798H15.3102V15.1898Z" fill="#231814"/>
</svg>
