<svg width="48" height="48" viewBox="0 0 48 48" fill="none" xmlns="http://www.w3.org/2000/svg">
<path d="M34.1303 26.8799H13.8203V34.3999H34.1303V26.8799Z" fill="#1E64FF"/>
<path d="M34.3301 34.5999H13.6201V26.6899H34.3201V34.5999H34.3301ZM14.0201 34.2099H33.9401V27.0799H14.0101V34.2099H14.0201Z" fill="#231814"/>
<path d="M16.3099 34.4102H15.1899V36.0102H16.3099V34.4102Z" fill="white"/>
<path d="M16.51 36.2H15V34.21H16.51V36.2ZM15.39 35.81H16.12V34.6H15.39V35.81Z" fill="#231814"/>
<path d="M32.83 34.4102H31.71V36.0102H32.83V34.4102Z" fill="white"/>
<path d="M33.03 36.2H31.52V34.21H33.03V36.2ZM31.91 35.81H32.64V34.6H31.91V35.81Z" fill="#231814"/>
<path d="M24.1698 26.8799H23.7798V34.3999H24.1698V26.8799Z" fill="#231814"/>
<path d="M24.7498 32.0098C24.6398 32.0098 24.5498 31.9198 24.5498 31.8198V29.5298C24.5498 29.4198 24.6398 29.3398 24.7498 29.3398C24.8598 29.3398 24.9398 29.4298 24.9398 29.5298V31.8198C24.9398 31.9298 24.8498 32.0098 24.7498 32.0098Z" fill="#231814"/>
<path d="M23.1802 32.0098C23.0702 32.0098 22.9902 31.9198 22.9902 31.8198V29.5298C22.9902 29.4198 23.0802 29.3398 23.1802 29.3398C23.2802 29.3398 23.3802 29.4298 23.3802 29.5298V31.8198C23.3802 31.9298 23.2902 32.0098 23.1802 32.0098Z" fill="#231814"/>
<path d="M17.5104 11.9897H10.6304V26.8797H17.5104V11.9897Z" fill="white"/>
<path d="M17.7002 27.0798H10.4302V11.7998H17.7002V27.0798ZM10.8202 26.6898H17.3102V12.1898H10.8202V26.6898Z" fill="#231814"/>
<path d="M37.38 11.9897H30.5V26.8797H37.38V11.9897Z" fill="white"/>
<path d="M37.5698 27.0798H30.2998V11.7998H37.5698V27.0798ZM30.6898 26.6898H37.1798V12.1898H30.6898V26.6898Z" fill="#231814"/>
<path d="M30.49 11.9897H17.5V26.8797H30.49V11.9897Z" fill="white"/>
<path d="M30.6901 27.0798H17.3101V11.7998H30.6901V27.0798ZM17.7001 26.6898H30.3001V12.1898H17.7001V26.6898Z" fill="#231814"/>
<path d="M12.79 17.9998C12.79 17.9998 12.71 17.9898 12.67 17.9598C12.59 17.8898 12.57 17.7698 12.64 17.6898L15.12 14.4998C15.19 14.4098 15.31 14.3998 15.39 14.4698C15.48 14.5398 15.49 14.6598 15.42 14.7398L12.94 17.9298C12.94 17.9298 12.84 18.0098 12.79 18.0098V17.9998Z" fill="#231814"/>
<path d="M12.1498 20.8499C12.1498 20.8499 12.0698 20.8399 12.0298 20.8099C11.9498 20.7399 11.9298 20.6199 11.9998 20.5399L14.4798 17.3499C14.5498 17.2599 14.6698 17.2499 14.7498 17.3199C14.8398 17.3899 14.8498 17.5099 14.7798 17.5899L12.2998 20.7799C12.2998 20.7799 12.1998 20.8599 12.1498 20.8599V20.8499Z" fill="#231814"/>
<path d="M26.56 17.9998C26.56 17.9998 26.48 17.9898 26.44 17.9598C26.36 17.8898 26.34 17.7698 26.41 17.6898L28.89 14.4998C28.96 14.4098 29.08 14.3998 29.16 14.4698C29.24 14.5398 29.26 14.6598 29.19 14.7398L26.71 17.9298C26.71 17.9298 26.61 18.0098 26.56 18.0098V17.9998Z" fill="#231814"/>
<path d="M25.9198 20.8499C25.9198 20.8499 25.8398 20.8399 25.7998 20.8099C25.7198 20.7399 25.6998 20.6199 25.7698 20.5399L28.2498 17.3499C28.3198 17.2599 28.4398 17.2499 28.5198 17.3199C28.6098 17.3899 28.6198 17.5099 28.5498 17.5899L26.0698 20.7799C26.0698 20.7799 25.9698 20.8599 25.9198 20.8599V20.8499Z" fill="#231814"/>
<path d="M22.4001 22.9502H15.8901V26.8302H22.4001V22.9502Z" fill="white"/>
<path d="M22.5899 27.02H15.6899V22.75H22.5899V27.02ZM16.0799 26.63H22.1999V23.14H16.0799V26.63Z" fill="#231814"/>
<path d="M22.4001 24.02H15.8901V24.41H22.4001V24.02Z" fill="#231814"/>
<path d="M19.6503 23.7603H18.5903V24.9703H19.6503V23.7603Z" fill="white"/>
<path d="M19.8401 25.1601H18.3901V23.5601H19.8401V25.1601ZM18.7801 24.7701H19.4501V23.9501H18.7801V24.7701Z" fill="#231814"/>
<path d="M31.1701 22.02H29.8101V26.82H31.1701V22.02Z" fill="white"/>
<path d="M31.3599 27.0201H29.6099V21.8301H31.3599V27.0201ZM29.9999 26.6301H30.9699V22.2201H29.9999V26.6301Z" fill="#231814"/>
<path d="M29.9801 23.7603H28.1001V26.8303H29.9801V23.7603Z" fill="white"/>
<path d="M30.1802 27.0201H27.9102V23.5601H30.1802V27.0201ZM28.3002 26.6301H29.7902V23.9501H28.3002V26.6301Z" fill="#231814"/>
</svg>
