<svg width="48" height="48" viewBox="0 0 48 48" fill="none" xmlns="http://www.w3.org/2000/svg">
<path d="M33.9397 13.4004H13.9897V29.3404H33.9397V13.4004Z" fill="white"/>
<path d="M34.1398 29.5302H13.7998V13.2002H34.1398V29.5302ZM14.1898 29.1402H33.7498V13.5902H14.1898V29.1402Z" fill="#231814"/>
<path d="M28.3199 13.4004H19.6099V30.4004H28.3199V13.4004Z" fill="white"/>
<path d="M28.5199 30.5902H19.4199V13.2002H28.5199V30.5902ZM19.8099 30.2002H28.1299V13.5902H19.8099V30.2002Z" fill="#231814"/>
<path d="M33.9401 13.4004H29.1001V30.4004H33.9401V13.4004Z" fill="white"/>
<path d="M34.1402 30.5902H28.9102V13.2002H34.1402V30.5902ZM29.3002 30.2002H33.7502V13.5902H29.3002V30.2002Z" fill="#231814"/>
<path d="M18.8197 13.4004H13.9897V30.4004H18.8197V13.4004Z" fill="white"/>
<path d="M19.0198 30.5902H13.7998V13.2002H19.0198V30.5902ZM14.1898 30.2002H18.6298V13.5902H14.1898V30.2002Z" fill="#231814"/>
<path d="M24.9401 20.7102C24.9401 20.7102 24.8601 20.7002 24.8201 20.6702C24.7301 20.6002 24.7201 20.4802 24.7901 20.4002L26.9101 17.6702C26.9801 17.5802 27.1001 17.5702 27.1801 17.6402C27.2701 17.7102 27.2801 17.8302 27.2101 17.9102L25.0901 20.6402C25.0901 20.6402 24.9901 20.7202 24.9401 20.7202V20.7102Z" fill="#231814"/>
<path d="M24.3998 23.1501C24.3998 23.1501 24.3198 23.1401 24.2798 23.1101C24.1998 23.0401 24.1798 22.9201 24.2498 22.8401L26.3698 20.1101C26.4398 20.0201 26.5598 20.0101 26.6398 20.0801C26.7198 20.1501 26.7398 20.2701 26.6698 20.3501L24.5498 23.0801C24.5498 23.0801 24.4498 23.1601 24.3998 23.1601V23.1501Z" fill="#231814"/>
<path d="M30.4 22.0901C30.4 22.0901 30.32 22.0801 30.28 22.0501C30.19 21.9801 30.18 21.8601 30.25 21.7801L32.37 19.0501C32.44 18.9601 32.56 18.9501 32.64 19.0201C32.73 19.0901 32.74 19.2101 32.67 19.2901L30.55 22.0201C30.55 22.0201 30.45 22.1001 30.4 22.1001V22.0901Z" fill="#231814"/>
<path d="M15.2101 28.3899C15.2101 28.3899 15.1301 28.3799 15.0901 28.3499C15.0001 28.2799 14.9901 28.1599 15.0601 28.0799L17.1801 25.3499C17.2501 25.2599 17.3701 25.2499 17.4501 25.3199C17.5301 25.3899 17.5501 25.5099 17.4801 25.5899L15.3601 28.3199C15.3601 28.3199 15.2601 28.3999 15.2101 28.3999V28.3899Z" fill="#231814"/>
<path d="M34.4997 29.3301H13.4897V30.8201H34.4997V29.3301Z" fill="white"/>
<path d="M34.6898 31.0201H13.2998V29.1401H34.6998V31.0201H34.6898ZM13.6798 30.6301H34.2998V29.5301H13.6898V30.6301H13.6798Z" fill="#231814"/>
<path d="M16.0296 22.2399C16.0296 22.2399 16.5496 29.3599 16.5496 34.6799L13.3896 34.5999V23.1299C13.3896 23.1299 14.3496 21.3499 16.0196 22.2399H16.0296Z" fill="#1E64FF"/>
<path d="M16.7497 34.8897L13.1997 34.7997V23.0897L13.2197 23.0497C13.2197 23.0497 14.2897 21.1097 16.1197 22.0797L16.2097 22.1297V22.2397C16.2197 22.3097 16.7397 29.4197 16.7397 34.6997V34.8997L16.7497 34.8897ZM13.5897 34.4197L16.3597 34.4897C16.3497 29.6197 15.9097 23.2797 15.8397 22.3697C15.2497 22.0897 14.6997 22.1397 14.1997 22.5097C13.8697 22.7597 13.6597 23.0797 13.5897 23.1897V34.4197Z" fill="#231814"/>
<path d="M19.9199 14.3896C19.9199 14.3896 18.2699 25.5196 13.3999 26.4196V14.3896H19.9199Z" fill="#1E64FF"/>
<path d="M13.1997 26.6597V14.1997H20.1397L20.1097 14.4197C20.1097 14.4197 19.6797 17.2497 18.6697 20.1297C18.0697 21.8297 17.3797 23.2197 16.6297 24.2697C15.6697 25.6097 14.5997 26.3897 13.4297 26.6097L13.1997 26.6497V26.6597ZM13.5897 14.5897V26.1897C14.5597 25.9397 15.4797 25.2197 16.3097 24.0597C17.0397 23.0397 17.7097 21.6797 18.2997 20.0097C19.1397 17.6297 19.5697 15.3097 19.6897 14.5897H13.5897Z" fill="#231814"/>
<path d="M31.8598 22.2399C31.8598 22.2399 31.3398 29.3599 31.3398 34.6799L34.4998 34.5999V23.1299C34.4998 23.1299 33.5398 21.3499 31.8698 22.2399H31.8598Z" fill="#1E64FF"/>
<path d="M31.1399 34.8899V34.6899C31.1399 29.4199 31.6599 22.3099 31.6599 22.2299V22.1199L31.7599 22.0699C33.5799 21.0999 34.6499 23.0199 34.6599 23.0399L34.6799 23.0799V34.7899L31.1299 34.8799L31.1399 34.8899ZM32.0499 22.3699C31.9899 23.2799 31.5499 29.6099 31.5399 34.4899L34.3099 34.4199V23.1899C34.1599 22.9499 33.3599 21.7499 32.0599 22.3699H32.0499Z" fill="#231814"/>
<path d="M27.98 14.3901C27.98 14.3901 29.63 25.5201 34.5 26.4201V14.3901H27.98Z" fill="#1E64FF"/>
<path d="M34.69 26.66L34.46 26.62C33.3 26.4 32.22 25.62 31.26 24.28C30.51 23.23 29.82 21.84 29.22 20.14C28.2 17.26 27.78 14.45 27.78 14.43L27.75 14.21H34.69V26.67V26.66ZM28.2 14.59C28.32 15.31 28.75 17.64 29.59 20.01C30.18 21.67 30.85 23.03 31.58 24.05C32.41 25.21 33.33 25.92 34.3 26.18V14.58H28.2V14.59Z" fill="#231814"/>
<path d="M35.3799 13.3101H12.6099V16.2901H35.3799V13.3101Z" fill="#1E64FF"/>
<path d="M35.5799 16.4799H12.4199V13.1099H35.5799V16.4799ZM12.8099 16.0899H35.1899V13.4999H12.8099V16.0899Z" fill="#231814"/>
<path d="M15.2099 33.7096C15.0999 33.7096 15.0199 33.6296 15.0199 33.5196C15.0199 33.4796 14.9099 29.6496 14.6099 25.3696V25.3196L14.6299 25.2796C15.3199 23.6896 16.0099 18.1196 16.0199 18.0596C16.0299 17.9496 16.1299 17.8796 16.2399 17.8896C16.3499 17.8996 16.4199 17.9996 16.4099 18.1096C16.3799 18.3396 15.7199 23.6996 15.0099 25.3896C15.2999 29.6496 15.4099 33.4696 15.4099 33.4996C15.4099 33.6096 15.3299 33.6996 15.2199 33.6996L15.2099 33.7096Z" fill="#231814"/>
<path d="M16.2099 24.3003H13.3999V26.4303H16.2099V24.3003Z" fill="white"/>
<path d="M16.3997 26.6201H13.1997V24.1001H16.3997V26.6201ZM13.5897 26.2301H16.0097V24.4901H13.5897V26.2301Z" fill="#231814"/>
<path d="M32.6597 33.7099C32.5497 33.7099 32.4697 33.6199 32.4697 33.5099C32.4697 33.4699 32.5797 29.6599 32.8697 25.3999C32.1597 23.7099 31.4997 18.3399 31.4697 18.1199C31.4597 18.0099 31.5297 17.9199 31.6397 17.8999C31.7497 17.8899 31.8397 17.9599 31.8597 18.0699C31.8597 18.1299 32.5597 23.6999 33.2497 25.2899L33.2697 25.3299V25.3799C32.9697 29.6499 32.8597 33.4899 32.8597 33.5299C32.8597 33.6399 32.7697 33.7199 32.6697 33.7199L32.6597 33.7099Z" fill="#231814"/>
<path d="M34.4999 24.3003H31.6899V26.4303H34.4999V24.3003Z" fill="white"/>
<path d="M34.6897 26.6201H31.4897V24.1001H34.6897V26.6201ZM31.8797 26.2301H34.2997V24.4901H31.8797V26.2301Z" fill="#231814"/>
</svg>
