<svg width="48" height="48" viewBox="0 0 48 48" fill="none" xmlns="http://www.w3.org/2000/svg">
<path d="M32.85 13.4899C32.76 13.2599 32.54 13.0999 32.28 13.0799L26.25 12.7899L24.59 11.1299C24.34 10.8799 23.94 10.8799 23.69 11.1299L21.65 13.1799C21.53 13.2999 21.46 13.4599 21.46 13.6299C21.46 13.7999 21.53 13.9599 21.65 14.0799L22.18 14.6099L22.39 14.8199L22.68 15.1099L22.89 15.3199L23.31 15.7399L23.6 21.7699C23.61 22.0199 23.77 22.2399 24.01 22.3399C24.25 22.4299 24.51 22.3699 24.69 22.1899L32.71 14.1699C32.89 13.9899 32.95 13.7199 32.85 13.4899Z" fill="#0076EF"/>
<path d="M22.9002 15.1202L23.4602 15.6802L23.7502 21.7702C23.7602 21.9602 23.8802 22.1302 24.0602 22.2002C24.1202 22.2202 24.1802 22.2302 24.2402 22.2302C24.3702 22.2302 24.4902 22.1802 24.5802 22.0902L32.6002 14.0702C32.7402 13.9302 32.7802 13.7302 32.7102 13.5502C32.6402 13.3702 32.4702 13.2502 32.2802 13.2402L26.1902 12.9502L24.4802 11.2402C24.2902 11.0502 23.9802 11.0502 23.7902 11.2402L21.7402 13.2902C21.5502 13.4802 21.5502 13.7902 21.7402 13.9802L22.3802 14.6202L17.9602 18.4102V33.7002H15.7202V36.9002H24.8402V33.7002H18.6602V18.7302L22.8802 15.1102L22.9002 15.1202Z" stroke="#231F20" stroke-width="0.3" stroke-miterlimit="10"/>
</svg>
