<svg width="48" height="48" viewBox="0 0 48 48" fill="none" xmlns="http://www.w3.org/2000/svg">
<path d="M30.11 11.73H17.88C17.2449 11.73 16.73 12.2449 16.73 12.88V35.11C16.73 35.7451 17.2449 36.26 17.88 36.26H30.11C30.7451 36.26 31.26 35.7451 31.26 35.11V12.88C31.26 12.2449 30.7451 11.73 30.11 11.73Z" fill="white"/>
<path d="M30.12 36.46H17.88C17.14 36.46 16.54 35.86 16.54 35.12V12.88C16.54 12.14 17.14 11.54 17.88 11.54H30.12C30.86 11.54 31.46 12.14 31.46 12.88V35.12C31.46 35.86 30.86 36.46 30.12 36.46ZM17.88 11.93C17.36 11.93 16.93 12.36 16.93 12.88V35.12C16.93 35.64 17.36 36.07 17.88 36.07H30.12C30.64 36.07 31.07 35.64 31.07 35.12V12.88C31.07 12.36 30.64 11.93 30.12 11.93H17.88Z" fill="#231814"/>
<path d="M31.26 20.8101H16.73V21.6001H31.26V20.8101Z" fill="#1E64FF"/>
<path d="M31.46 21.8001H16.54V20.6201H31.46V21.8001ZM16.93 21.4101H31.07V21.0101H16.93V21.4101Z" fill="#231814"/>
<path d="M29.4598 24.4303C29.4598 23.2803 28.9998 22.8403 28.9998 22.8403H28.9698C28.9698 22.8403 28.5098 23.2803 28.5098 24.4303C28.5098 25.3503 28.9598 28.4003 28.9798 28.3003C28.9998 28.4003 29.0098 28.4603 29.0098 28.4603C29.0098 28.4603 29.4498 25.3603 29.4498 24.4403L29.4598 24.4303Z" fill="#1E64FF"/>
<path d="M29.0198 28.6401C28.9298 28.6401 28.8398 28.5701 28.8298 28.4801C28.8298 28.4801 28.8298 28.4301 28.8098 28.3401C28.7998 28.3001 28.7898 28.2501 28.7798 28.1901C28.7598 28.1101 28.7398 27.9801 28.7198 27.8401C28.6698 27.5201 28.6098 27.1101 28.5598 26.7201C28.4798 26.0901 28.3398 24.9501 28.3398 24.4201C28.3398 23.2101 28.8298 22.7101 28.8598 22.6901C28.8998 22.6601 28.9398 22.6401 28.9998 22.6401H29.0298C29.0798 22.6401 29.1298 22.6601 29.1698 22.6901C29.1898 22.7101 29.6898 23.2001 29.6898 24.4201C29.6898 25.3401 29.2598 28.3401 29.2398 28.4701C29.2298 28.5701 29.1498 28.6401 29.0498 28.6401H29.0198ZM28.9898 23.1501C28.9898 23.1501 28.9398 23.2401 28.9198 23.3001C28.8298 23.5101 28.7198 23.8801 28.7198 24.4201C28.7198 24.9601 28.8698 26.1901 28.9998 27.1101C29.1198 26.1501 29.2698 24.9301 29.2698 24.4201C29.2698 23.7601 29.1098 23.3601 28.9998 23.1501H28.9898Z" fill="#231814"/>
<path d="M29.4598 15.8598C29.4598 15.0898 28.9998 14.7998 28.9998 14.7998H28.9698C28.9698 14.7998 28.5098 15.0898 28.5098 15.8598C28.5098 16.4798 28.9598 18.5198 28.9798 18.4498C28.9998 18.5198 29.0098 18.5498 29.0098 18.5498C29.0098 18.5498 29.4498 16.4698 29.4498 15.8498L29.4598 15.8598Z" fill="#1E64FF"/>
<path d="M29.0198 18.7498C28.9298 18.7498 28.8498 18.6898 28.8298 18.5998C28.8298 18.5998 28.8298 18.5698 28.8098 18.5198C28.7898 18.4798 28.7798 18.4498 28.7698 18.4098C28.7498 18.3498 28.7298 18.2698 28.7098 18.1698C28.6598 17.9498 28.5998 17.6798 28.5498 17.4098C28.4698 16.9798 28.3198 16.2098 28.3198 15.8498C28.3198 14.9898 28.8398 14.6398 28.8598 14.6198C28.8898 14.5998 28.9298 14.5898 28.9698 14.5898H28.9998C28.9998 14.5898 29.0698 14.5998 29.1098 14.6198C29.1298 14.6298 29.6498 14.9798 29.6498 15.8498C29.6498 16.4798 29.2198 18.4998 29.1998 18.5898C29.1798 18.6798 29.0998 18.7398 29.0098 18.7398L29.0198 18.7498ZM28.9898 15.0398C28.8798 15.1598 28.7198 15.4098 28.7198 15.8598C28.7198 16.1998 28.8698 17.0398 28.9998 17.6598C29.1198 17.0198 29.2698 16.1998 29.2698 15.8598C29.2698 15.4198 29.0998 15.1698 28.9998 15.0398H28.9898Z" fill="#231814"/>
<path d="M20.5882 14.4242L18.626 15.374L19.5932 17.3722L21.5554 16.4224L20.5882 14.4242Z" fill="#1E64FF"/>
<path d="M19.5101 17.6399L18.3701 15.2899L20.6801 14.1699L21.8201 16.5199L19.5101 17.6399ZM18.8901 15.4699L19.6901 17.1199L21.3001 16.3399L20.5001 14.6899L18.8901 15.4699Z" fill="#231814"/>
<path d="M22.4661 13.5039L22.1484 15.0312L24.1751 15.4528L24.4927 13.9255L22.4661 13.5039Z" fill="white"/>
<path d="M24.3202 15.6898L21.9102 15.1898L22.3102 13.2798L24.7202 13.7798L24.3202 15.6898ZM22.3702 14.8898L24.0102 15.2298L24.2502 14.0898L22.6102 13.7498L22.3702 14.8898Z" fill="#231814"/>
</svg>
