<svg width="48" height="48" viewBox="0 0 48 48" fill="none" xmlns="http://www.w3.org/2000/svg">
<path d="M32.5999 18.2002H15.3999V36.3702H32.5999V18.2002Z" fill="white"/>
<path d="M32.8299 36.61H15.1699V17.98H32.8299V36.61ZM15.6299 36.15H32.3699V18.44H15.6299V36.15Z" fill="#231814"/>
<path d="M32.5999 18.2002H15.3999V21.9102H32.5999V18.2002Z" fill="white"/>
<path d="M32.8299 22.15H15.1699V17.98H32.8299V22.15ZM15.6299 21.69H32.3699V18.44H15.6299V21.69Z" fill="#231814"/>
<path d="M28.9898 27.2398H28.2798C27.6498 25.5098 25.9898 24.2798 24.0398 24.2798C21.5498 24.2798 19.5298 26.2998 19.5298 28.7898C19.5298 31.2798 21.5498 33.2998 24.0398 33.2998C26.0498 33.2998 27.7498 31.9798 28.3398 30.1698H28.9898V27.2498V27.2398Z" fill="white"/>
<path d="M24.0398 33.5298C21.4298 33.5298 19.2998 31.3998 19.2998 28.7898C19.2998 26.1798 21.4298 24.0498 24.0398 24.0498C25.9698 24.0498 27.7198 25.2298 28.4398 27.0098H28.9898C29.1198 27.0098 29.2198 27.1098 29.2198 27.2398V30.1598C29.2198 30.2898 29.1198 30.3898 28.9898 30.3898H28.5098C27.8298 32.2698 26.0598 33.5198 24.0498 33.5198L24.0398 33.5298ZM24.0398 24.5098C21.6798 24.5098 19.7598 26.4298 19.7598 28.7898C19.7598 31.1498 21.6798 33.0698 24.0398 33.0698C25.9098 33.0698 27.5498 31.8798 28.1198 30.0998C28.1498 29.9998 28.2398 29.9398 28.3398 29.9398H28.7598V27.4798H28.2798C28.1798 27.4798 28.0998 27.4198 28.0598 27.3298C27.4498 25.6498 25.8298 24.5198 24.0398 24.5198V24.5098Z" fill="#231814"/>
<path d="M27.517 29.6063C27.9711 27.6819 26.7794 25.7538 24.8551 25.2996C22.9308 24.8454 21.0026 26.0372 20.5484 27.9615C20.0943 29.8858 21.286 31.814 23.2103 32.2682C25.1346 32.7223 27.0628 31.5306 27.517 29.6063Z" fill="#1E64FF"/>
<path d="M24.0402 32.6C21.9402 32.6 20.2202 30.89 20.2202 28.78C20.2202 26.67 21.9302 24.96 24.0402 24.96C26.1502 24.96 27.8602 26.67 27.8602 28.78C27.8602 30.89 26.1502 32.6 24.0402 32.6ZM24.0402 25.43C22.1902 25.43 20.6902 26.93 20.6902 28.78C20.6902 30.63 22.1902 32.13 24.0402 32.13C25.8902 32.13 27.3902 30.63 27.3902 28.78C27.3902 26.93 25.8902 25.43 24.0402 25.43Z" fill="#231814"/>
<path d="M24.8402 20.2301C24.8402 20.7001 24.4602 21.0701 24.0002 21.0701C23.5402 21.0701 23.1602 20.6901 23.1602 20.2301C23.1602 19.7701 23.5402 19.3901 24.0002 19.3901C24.4602 19.3901 24.8402 19.7701 24.8402 20.2301Z" fill="white"/>
<path d="M24.0002 21.3002C23.4102 21.3002 22.9302 20.8202 22.9302 20.2302C22.9302 19.6402 23.4102 19.1602 24.0002 19.1602C24.5902 19.1602 25.0702 19.6402 25.0702 20.2302C25.0702 20.8202 24.5902 21.3002 24.0002 21.3002ZM24.0002 19.6102C23.6602 19.6102 23.3902 19.8802 23.3902 20.2202C23.3902 20.5602 23.6602 20.8302 24.0002 20.8302C24.3402 20.8302 24.6102 20.5602 24.6102 20.2202C24.6102 19.8802 24.3402 19.6102 24.0002 19.6102Z" fill="#231814"/>
<path d="M24.2701 18.6499H23.8101V19.6199H24.2701V18.6499Z" fill="#231814"/>
<path d="M20.7902 19.1299H16.4102V20.7699H20.7902V19.1299Z" fill="#1E64FF"/>
<path d="M21.0302 21.0099H16.1802V18.8999H21.0302V21.0099ZM16.6502 20.5499H20.5702V19.3699H16.6502V20.5499Z" fill="#231814"/>
<path d="M31.7597 20.0598C31.7597 20.3398 31.5297 20.5698 31.2497 20.5698C30.9697 20.5698 30.7397 20.3398 30.7397 20.0598C30.7397 19.7798 30.9697 19.5498 31.2497 19.5498C31.5297 19.5498 31.7597 19.7798 31.7597 20.0598Z" fill="#1E64FF"/>
<path d="M31.2498 20.7998C30.8398 20.7998 30.5098 20.4698 30.5098 20.0598C30.5098 19.6498 30.8398 19.3198 31.2498 19.3198C31.6598 19.3198 31.9898 19.6498 31.9898 20.0598C31.9898 20.4698 31.6598 20.7998 31.2498 20.7998ZM31.2498 19.7898C31.0998 19.7898 30.9798 19.9098 30.9798 20.0598C30.9798 20.2098 31.0998 20.3298 31.2498 20.3298C31.3998 20.3298 31.5198 20.2098 31.5198 20.0598C31.5198 19.9098 31.3998 19.7898 31.2498 19.7898Z" fill="#231814"/>
<path d="M29.5298 18.8999H26.2798V19.3599H29.5298V18.8999Z" fill="#231814"/>
<path d="M29.5298 19.7202H26.2798V20.1802H29.5298V19.7202Z" fill="#231814"/>
<path d="M29.5298 20.54H26.2798V21H29.5298V20.54Z" fill="#231814"/>
<path d="M20.5601 11.6299H18.8501V18.2099H20.5601V11.6299Z" fill="white"/>
<path d="M20.7901 18.4399H18.6201V11.3999H20.7901V18.4399ZM19.0801 17.9799H20.3201V11.8699H19.0801V17.9799Z" fill="#231814"/>
<path d="M24.14 14.48V12.73H22.28H20.42V14.48L19.75 16.58V18.2H22.28H24.81V16.58L24.14 14.48Z" fill="white"/>
<path d="M25.04 18.44H19.52V16.55L20.19 14.45V12.5H24.37V14.45L25.04 16.55V18.44ZM19.98 17.98H24.57V16.63L23.9 14.53V12.97H20.64V14.53L19.97 16.63V17.98H19.98Z" fill="#231814"/>
<path d="M24.1399 12.73H20.4199V13.91H24.1399V12.73Z" fill="white"/>
<path d="M24.3699 14.14H20.1899V12.5H24.3699V14.14ZM20.6499 13.68H23.9099V12.97H20.6499V13.68Z" fill="#231814"/>
<path d="M24.75 16.5801H19.75V18.2001H24.75V16.5801Z" fill="white"/>
<path d="M24.7398 18.4399H19.7398L19.5098 18.2099V16.5899L19.7398 16.3599H24.7398L24.9698 16.5899V18.2099L24.7398 18.4399ZM19.9798 17.9799H24.5098V16.8199H19.9798V17.9799Z" fill="#231814"/>
</svg>
