<svg width="48" height="48" viewBox="0 0 48 48" fill="none" xmlns="http://www.w3.org/2000/svg">
<path d="M28.8602 20.7798H17.1402C16.8861 20.7798 16.6802 20.9857 16.6802 21.2398V29.8098C16.6802 30.0638 16.8861 30.2698 17.1402 30.2698H28.8602C29.1142 30.2698 29.3202 30.0638 29.3202 29.8098V21.2398C29.3202 20.9857 29.1142 20.7798 28.8602 20.7798Z" fill="#1E64FF"/>
<path d="M27.5098 18.7998H20.4898C20.3898 18.7998 20.2998 18.7198 20.2998 18.6098C20.2998 17.7398 20.7098 17.0098 21.4798 16.4998C22.1498 16.0598 23.0398 15.8198 23.9898 15.8198C24.9398 15.8198 25.8398 16.0598 26.4998 16.4998C27.2698 17.0098 27.6698 17.7298 27.6798 18.5898C27.6798 18.5898 27.6798 18.5998 27.6798 18.6098C27.6798 18.7098 27.5998 18.7998 27.4898 18.7998H27.5098ZM20.6898 18.4298H27.3198C27.1998 16.8998 25.5398 16.1998 24.0098 16.1998C22.4798 16.1998 20.8198 16.8998 20.6998 18.4298H20.6898Z" fill="#231814"/>
<path d="M23.4302 16.2199C23.4302 16.2199 23.3402 16.2099 23.3102 16.1799L19.4902 12.9499C19.4102 12.8799 19.4002 12.7699 19.4702 12.6899C19.5402 12.6099 19.6502 12.5999 19.7302 12.6699L23.5502 15.8999C23.6302 15.9699 23.6402 16.0799 23.5702 16.1599C23.5302 16.1999 23.4802 16.2299 23.4302 16.2299V16.2199Z" fill="#231814"/>
<path d="M23.43 16.2199C23.38 16.2199 23.32 16.1999 23.29 16.1499C23.22 16.0699 23.23 15.9499 23.31 15.8899L25.57 13.9799C25.65 13.9099 25.77 13.9199 25.83 13.9999C25.9 14.0799 25.89 14.1999 25.81 14.2599L23.55 16.1699C23.55 16.1699 23.47 16.2099 23.43 16.2099V16.2199Z" fill="#231814"/>
<path d="M17.0899 35.38C17.0099 35.38 16.9399 35.33 16.9099 35.25L15.9699 32.5C15.9499 32.44 15.9599 32.38 15.9899 32.33C16.0199 32.28 16.0799 32.25 16.1399 32.25H18.0199C18.0799 32.25 18.1399 32.28 18.1699 32.33C18.2099 32.38 18.2099 32.44 18.1899 32.5L17.2499 35.25C17.2199 35.33 17.1499 35.38 17.0699 35.38H17.0899ZM16.4099 32.63L17.0899 34.62L17.7699 32.63H16.4099Z" fill="#231814"/>
<path d="M30.9098 35.38C30.8298 35.38 30.7598 35.33 30.7298 35.25L29.7898 32.5C29.7698 32.44 29.7898 32.38 29.8198 32.33C29.8498 32.28 29.9098 32.25 29.9698 32.25H31.8498C31.9098 32.25 31.9698 32.28 31.9998 32.33C32.0298 32.38 32.0398 32.44 32.0198 32.5L31.0798 35.25C31.0498 35.33 30.9798 35.38 30.8998 35.38H30.9098ZM30.2298 32.63L30.9098 34.62L31.5898 32.63H30.2298Z" fill="#231814"/>
<path d="M32.5898 32.6302H15.4098C14.8098 32.6302 14.3198 32.1402 14.3198 31.5402V19.5202C14.3198 18.9202 14.8098 18.4302 15.4098 18.4302H32.5798C33.1798 18.4302 33.6698 18.9202 33.6698 19.5202V31.5402C33.6698 32.1402 33.1798 32.6302 32.5798 32.6302H32.5898ZM15.4198 18.8002C15.0198 18.8002 14.6998 19.1202 14.6998 19.5202V31.5402C14.6998 31.9402 15.0198 32.2602 15.4198 32.2602H32.5898C32.9898 32.2602 33.3098 31.9402 33.3098 31.5402V19.5202C33.3098 19.1202 32.9898 18.8002 32.5898 18.8002H15.4098H15.4198Z" fill="#231814"/>
<path d="M28.8601 30.6402H17.1401C16.6801 30.6402 16.3101 30.2702 16.3101 29.8102V21.2402C16.3101 20.7802 16.6801 20.4102 17.1401 20.4102H28.8601C29.3201 20.4102 29.6901 20.7802 29.6901 21.2402V29.8102C29.6901 30.2702 29.3201 30.6402 28.8601 30.6402ZM17.1401 20.7802C16.8901 20.7802 16.6801 20.9902 16.6801 21.2402V29.8102C16.6801 30.0602 16.8801 30.2702 17.1401 30.2702H28.8601C29.1101 30.2702 29.3201 30.0602 29.3201 29.8102V21.2402C29.3201 20.9902 29.1101 20.7802 28.8601 20.7802H17.1401Z" fill="#231814"/>
<path d="M31.6002 22.72C31.1202 22.72 30.7402 22.33 30.7402 21.86C30.7402 21.39 31.1302 21 31.6002 21C32.0702 21 32.4602 21.39 32.4602 21.86C32.4602 22.33 32.0702 22.72 31.6002 22.72ZM31.6002 21.36C31.3302 21.36 31.1102 21.58 31.1102 21.85C31.1102 22.12 31.3302 22.34 31.6002 22.34C31.8702 22.34 32.0902 22.12 32.0902 21.85C32.0902 21.58 31.8702 21.36 31.6002 21.36Z" fill="#231814"/>
<path d="M31.6002 26.3902C31.1202 26.3902 30.7402 26.0002 30.7402 25.5302C30.7402 25.0602 31.1302 24.6602 31.6002 24.6602C32.0702 24.6602 32.4602 25.0502 32.4602 25.5302C32.4602 26.0102 32.0702 26.3902 31.6002 26.3902ZM31.6002 25.0302C31.3302 25.0302 31.1102 25.2502 31.1102 25.5202C31.1102 25.7902 31.3302 26.0102 31.6002 26.0102C31.8702 26.0102 32.0902 25.7902 32.0902 25.5202C32.0902 25.2502 31.8702 25.0302 31.6002 25.0302Z" fill="#231814"/>
<path d="M31.6002 30.0601C31.1202 30.0601 30.7402 29.6701 30.7402 29.2001C30.7402 28.7301 31.1302 28.3301 31.6002 28.3301C32.0702 28.3301 32.4602 28.7201 32.4602 29.2001C32.4602 29.6801 32.0702 30.0601 31.6002 30.0601ZM31.6002 28.7001C31.3302 28.7001 31.1102 28.9201 31.1102 29.1901C31.1102 29.4601 31.3302 29.6801 31.6002 29.6801C31.8702 29.6801 32.0902 29.4601 32.0902 29.1901C32.0902 28.9201 31.8702 28.7001 31.6002 28.7001Z" fill="#231814"/>
<path d="M32.6999 35.38H15.2999C15.1999 35.38 15.1099 35.3 15.1099 35.19C15.1099 35.08 15.1899 35 15.2999 35H32.7099C32.8099 35 32.8999 35.08 32.8999 35.19C32.8999 35.3 32.8199 35.38 32.7099 35.38H32.6999Z" fill="#231814"/>
<path d="M21.1898 25.9202C21.1898 25.9202 21.0898 25.9002 21.0598 25.8702C20.9898 25.8002 20.9898 25.6802 21.0598 25.6102L23.7598 22.9002C23.8298 22.8302 23.9498 22.8302 24.0198 22.9002C24.0898 22.9702 24.0898 23.0902 24.0198 23.1602L21.3198 25.8702C21.3198 25.8702 21.2398 25.9202 21.1898 25.9202Z" fill="#231814"/>
<path d="M21.35 28.0998C21.35 28.0998 21.25 28.0798 21.22 28.0498C21.15 27.9798 21.15 27.8598 21.22 27.7898L23.92 25.0798C23.99 25.0098 24.11 25.0098 24.18 25.0798C24.25 25.1498 24.25 25.2698 24.18 25.3398L21.48 28.0498C21.48 28.0498 21.4 28.0998 21.35 28.0998Z" fill="#231814"/>
</svg>
