<svg width="48" height="48" viewBox="0 0 48 48" fill="none" xmlns="http://www.w3.org/2000/svg">
<path d="M27.7501 17.25H20.1301L19.7101 18.87L19.0101 21.58L18.1001 25.11V30.47H29.6001V25.11L27.7501 17.25Z" fill="#1E64FF"/>
<path d="M27.1498 17.5597H20.5698V17.3697C20.5698 16.1697 21.5398 15.1997 22.7398 15.1997H24.9898C26.1898 15.1997 27.1598 16.1697 27.1598 17.3697V17.5597H27.1498ZM20.8798 17.2497H26.8398C26.7798 16.2797 25.9698 15.5097 24.9898 15.5097H22.7398C21.7598 15.5097 20.9498 16.2797 20.8898 17.2497H20.8798Z" fill="#231814"/>
<path d="M24.9403 15.5098H23.0103V14.2498C23.0103 13.7298 23.4403 13.2998 23.9603 13.2998C24.5103 13.2998 24.9403 13.7298 24.9403 14.2498V15.5098ZM23.3203 15.1998H24.6303V14.2498C24.6303 13.8998 24.3403 13.6098 23.9903 13.6098C23.6103 13.6098 23.3203 13.8998 23.3203 14.2498V15.1998Z" fill="#231814"/>
<path d="M19.0899 22.0396L15.9199 18.8696H19.9099L19.0899 22.0396ZM16.6699 19.1796L18.9299 21.4396L19.5099 19.1796H16.6699Z" fill="#231814"/>
<path d="M29.7602 30.78H17.9502V25.23L20.0102 17.25H27.8702L29.7602 25.27V30.78ZM18.2602 30.47H29.4502V25.29L27.6302 17.57H20.2502L18.2602 25.29V30.47Z" fill="#231814"/>
<path d="M30.9302 33.2397H19.4102V32.9297H30.9302C32.0102 32.9297 32.9002 32.0497 32.9002 30.9597C32.9002 29.8697 32.0202 28.9897 30.9302 28.9897H29.6002V28.6797H30.9302C32.1802 28.6797 33.2102 29.6997 33.2102 30.9597C33.2102 32.2197 32.1902 33.2397 30.9302 33.2397Z" fill="#231814"/>
<path d="M17.9801 34.6997H16.1401V31.4697H17.9801C18.8501 31.4697 19.5701 32.1797 19.5701 33.0597V33.1097C19.5701 33.9797 18.8601 34.6997 17.9801 34.6997ZM16.4501 34.3897H17.9801C18.6801 34.3897 19.2601 33.8197 19.2601 33.1097V33.0597C19.2601 32.3597 18.6901 31.7797 17.9801 31.7797H16.4501V34.3897Z" fill="#231814"/>
<path d="M16.29 32.3198H14.79V32.6298H16.29V32.3198Z" fill="#231814"/>
<path d="M16.29 33.6196H14.79V33.9296H16.29V33.6196Z" fill="#231814"/>
<path d="M29.4101 25.1299L29.1101 23.8599L29.2501 23.8199C29.8501 23.6399 30.2701 23.0699 30.2701 22.4499V21.4099C30.2701 20.6199 29.6301 19.9699 28.8301 19.9699H28.1901L27.8901 18.6899H28.9801C30.5501 18.6899 31.8301 19.9699 31.8301 21.5399V22.2899C31.8301 23.6399 30.8701 24.8099 29.5501 25.0899L29.4001 25.1199L29.4101 25.1299ZM29.4801 24.0699L29.6401 24.7599C30.7401 24.4699 31.5201 23.4599 31.5201 22.2999V21.5499C31.5201 20.1499 30.3801 19.0099 28.9801 19.0099H28.2801L28.4301 19.6699H28.8301C29.7901 19.6699 30.5801 20.4499 30.5801 21.4199V22.4599C30.5801 23.1699 30.1301 23.8199 29.4801 24.0799V24.0699Z" fill="#231814"/>
<path d="M27.1397 18.9807L26.8369 19.0474L27.936 24.0378L28.2387 23.9711L27.1397 18.9807Z" fill="#231814"/>
</svg>
