<svg width="48" height="48" viewBox="0 0 48 48" fill="none" xmlns="http://www.w3.org/2000/svg">
<path d="M12.6699 17.8799V24.5099C12.6699 24.5899 12.6899 24.6599 12.7299 24.7299L13.4899 26.0899C13.5699 26.2299 13.7199 26.3199 13.8799 26.3199H34.1399C34.2999 26.3199 34.4499 26.2299 34.5299 26.0899L35.2899 24.7299C35.3299 24.6599 35.3499 24.5899 35.3499 24.5099V17.8799H12.6699Z" fill="#1E64FF"/>
<path d="M34.13 26.73H13.87C13.56 26.73 13.27 26.56 13.12 26.29L12.36 24.93C12.29 24.8 12.25 24.66 12.25 24.51V17.67C12.25 17.56 12.34 17.46 12.46 17.46H35.54C35.65 17.46 35.75 17.55 35.75 17.67V24.51C35.75 24.66 35.71 24.8 35.64 24.93L34.88 26.29C34.73 26.56 34.44 26.73 34.13 26.73ZM12.67 17.88V24.51C12.67 24.59 12.69 24.66 12.73 24.73L13.49 26.09C13.57 26.23 13.72 26.32 13.88 26.32H34.14C34.3 26.32 34.45 26.23 34.53 26.09L35.29 24.73C35.33 24.66 35.35 24.59 35.35 24.51V17.88H12.67Z" fill="#231814"/>
<path d="M15.5098 24.88H14.2598C14.1498 24.88 14.0498 24.79 14.0498 24.67C14.0498 24.55 14.1398 24.46 14.2598 24.46H15.5098C15.6198 24.46 15.7198 24.55 15.7198 24.67C15.7198 24.79 15.6298 24.88 15.5098 24.88Z" fill="#231814"/>
<path d="M30.2598 24.88H27.5798C27.4698 24.88 27.3698 24.79 27.3698 24.67C27.3698 24.55 27.4598 24.46 27.5798 24.46H30.2598C30.3698 24.46 30.4698 24.55 30.4698 24.67C30.4698 24.79 30.3798 24.88 30.2598 24.88ZM25.3398 24.88H22.6598C22.5498 24.88 22.4498 24.79 22.4498 24.67C22.4498 24.55 22.5398 24.46 22.6598 24.46H25.3398C25.4498 24.46 25.5498 24.55 25.5498 24.67C25.5498 24.79 25.4598 24.88 25.3398 24.88ZM20.4198 24.88H17.7398C17.6298 24.88 17.5298 24.79 17.5298 24.67C17.5298 24.55 17.6198 24.46 17.7398 24.46H20.4198C20.5298 24.46 20.6298 24.55 20.6298 24.67C20.6298 24.79 20.5398 24.88 20.4198 24.88Z" fill="#231814"/>
<path d="M33.7398 24.88H32.4898C32.3798 24.88 32.2798 24.79 32.2798 24.67C32.2798 24.55 32.3698 24.46 32.4898 24.46H33.7398C33.8498 24.46 33.9498 24.55 33.9498 24.67C33.9498 24.79 33.8598 24.88 33.7398 24.88Z" fill="#231814"/>
<path d="M13.8301 20.7501C13.7201 20.7501 13.6201 20.6601 13.6201 20.5401V18.7901C13.6201 18.6801 13.7101 18.5801 13.8301 18.5801C13.9501 18.5801 14.0401 18.6701 14.0401 18.7901V20.5401C14.0401 20.6501 13.9501 20.7501 13.8301 20.7501Z" fill="#231814"/>
<path d="M15.3999 20.7501C15.2899 20.7501 15.1899 20.6601 15.1899 20.5401V18.7901C15.1899 18.6801 15.2799 18.5801 15.3999 18.5801C15.5199 18.5801 15.6099 18.6701 15.6099 18.7901V20.5401C15.6099 20.6501 15.5199 20.7501 15.3999 20.7501Z" fill="#231814"/>
<path d="M16.96 20.7501C16.85 20.7501 16.75 20.6601 16.75 20.5401V18.7901C16.75 18.6801 16.84 18.5801 16.96 18.5801C17.08 18.5801 17.17 18.6701 17.17 18.7901V20.5401C17.17 20.6501 17.08 20.7501 16.96 20.7501Z" fill="#231814"/>
<path d="M18.5298 20.7501C18.4198 20.7501 18.3198 20.6601 18.3198 20.5401V18.7901C18.3198 18.6801 18.4098 18.5801 18.5298 18.5801C18.6498 18.5801 18.7398 18.6701 18.7398 18.7901V20.5401C18.7398 20.6501 18.6498 20.7501 18.5298 20.7501Z" fill="#231814"/>
<path d="M20.0899 20.7501C19.9799 20.7501 19.8799 20.6601 19.8799 20.5401V18.7901C19.8799 18.6801 19.9699 18.5801 20.0899 18.5801C20.2099 18.5801 20.2999 18.6701 20.2999 18.7901V20.5401C20.2999 20.6501 20.2099 20.7501 20.0899 20.7501Z" fill="#231814"/>
<path d="M33.9602 23.4599H14.0402C13.8302 23.4599 13.6602 23.2899 13.6602 23.0799V22.0899C13.6602 21.9799 13.7502 21.8799 13.8702 21.8799C13.9902 21.8799 14.0802 21.9699 14.0802 22.0899V23.0499H33.9302V22.0899C33.9302 21.9799 34.0202 21.8799 34.1402 21.8799C34.2602 21.8799 34.3502 21.9699 34.3502 22.0899V23.0799C34.3502 23.2899 34.1802 23.4599 33.9702 23.4599H33.9602Z" fill="#231814"/>
<path d="M26.0602 20.0699H21.9502C21.8402 20.0699 21.7402 19.9799 21.7402 19.8599C21.7402 19.7399 21.8302 19.6499 21.9502 19.6499H26.0602C26.1702 19.6499 26.2702 19.7399 26.2702 19.8599C26.2702 19.9799 26.1802 20.0699 26.0602 20.0699Z" fill="#231814"/>
<path d="M16.91 30.5398C16.91 30.5398 16.81 30.5198 16.77 30.4898C16.68 30.4098 16.67 30.2798 16.75 30.1998L19.04 27.5498C19.12 27.4598 19.25 27.4498 19.33 27.5298C19.42 27.6098 19.43 27.7398 19.35 27.8198L17.06 30.4698C17.06 30.4698 16.96 30.5398 16.9 30.5398H16.91Z" fill="#231814"/>
<path d="M24 30.5397C23.89 30.5397 23.79 30.4497 23.79 30.3297V27.6797C23.79 27.5697 23.88 27.4697 24 27.4697C24.12 27.4697 24.21 27.5597 24.21 27.6797V30.3297C24.21 30.4397 24.12 30.5397 24 30.5397Z" fill="#231814"/>
<path d="M31.0902 30.5397C31.0302 30.5397 30.9702 30.5197 30.9302 30.4697L28.6402 27.8197C28.5602 27.7297 28.5702 27.5997 28.6602 27.5297C28.7502 27.4597 28.8802 27.4597 28.9502 27.5497L31.2402 30.1997C31.3202 30.2897 31.3102 30.4197 31.2202 30.4897C31.1802 30.5197 31.1302 30.5397 31.0802 30.5397H31.0902Z" fill="#231814"/>
</svg>
