<svg width="48" height="48" viewBox="0 0 48 48" fill="none" xmlns="http://www.w3.org/2000/svg">
<path d="M34.1499 27.4302C34.1499 26.9702 34.5199 26.6002 34.9799 26.6002H35.5199C35.4799 24.1102 33.7599 22.0302 31.4499 21.4202C31.0099 21.3102 30.5499 21.2402 30.0799 21.2402C29.5999 21.2402 29.1399 21.3102 28.6999 21.4202C26.3899 22.0202 24.6699 24.1002 24.6299 26.6002H25.1699C25.6299 26.6002 25.9999 26.9702 25.9999 27.4302V36.1202C25.9999 36.1202 25.9999 36.2102 25.9899 36.2502H34.1599C34.1599 36.2502 34.1499 36.1602 34.1499 36.1202V27.4302Z" fill="#1E64FF"/>
<path d="M34.32 36.3901H25.84L25.86 36.2401C25.86 36.2401 25.87 36.1701 25.87 36.1301V27.4401C25.87 27.0501 25.56 26.7401 25.17 26.7401H24.5V26.6101C24.54 24.1201 26.26 21.9401 28.67 21.3101C29.62 21.0601 30.54 21.0601 31.49 21.3101C33.9 21.9401 35.62 24.1201 35.66 26.6101V26.7401H34.99C34.6 26.7401 34.29 27.0501 34.29 27.4401V36.1301C34.29 36.1301 34.29 36.2101 34.3 36.2401L34.32 36.3901ZM26.14 36.1301H34.03V27.4401C34.03 26.9101 34.46 26.4801 34.99 26.4801H35.4C35.3 24.1601 33.69 22.1501 31.43 21.5601C30.53 21.3201 29.65 21.3201 28.75 21.5601C26.49 22.1501 24.88 24.1601 24.78 26.4801H25.19C25.72 26.4801 26.15 26.9101 26.15 27.4401V36.1301H26.14Z" fill="#231814"/>
<path d="M25.1701 37.0802H24.0801C23.5501 37.0802 23.1201 36.6502 23.1201 36.1202V27.4302C23.1201 26.9002 23.5501 26.4702 24.0801 26.4702H25.1701C25.7001 26.4702 26.1301 26.9002 26.1301 27.4302V36.1202C26.1301 36.1702 26.1301 36.2202 26.1101 36.2702C26.0301 36.7402 25.6401 37.0702 25.1701 37.0702V37.0802ZM24.0801 26.7302C23.6901 26.7302 23.3801 27.0402 23.3801 27.4302V36.1202C23.3801 36.5102 23.6901 36.8202 24.0801 36.8202H25.1701C25.5101 36.8202 25.8001 36.5702 25.8601 36.2302C25.8601 36.1902 25.8701 36.1602 25.8701 36.1202V27.4302C25.8701 27.0402 25.5601 26.7302 25.1701 26.7302H24.0801Z" fill="#231814"/>
<path d="M36.07 37.08H34.98C34.51 37.08 34.11 36.74 34.04 36.28C34.04 36.23 34.02 36.18 34.02 36.13V27.44C34.02 26.91 34.45 26.48 34.98 26.48H36.07C36.6 26.48 37.03 26.91 37.03 27.44V36.13C37.03 36.66 36.6 37.09 36.07 37.09V37.08ZM34.98 26.73C34.59 26.73 34.28 27.04 34.28 27.43V36.12C34.28 36.12 34.28 36.2 34.29 36.23C34.35 36.57 34.63 36.82 34.98 36.82H36.07C36.46 36.82 36.77 36.51 36.77 36.12V27.43C36.77 27.04 36.46 26.73 36.07 26.73H34.98Z" fill="#231814"/>
<path d="M34.2801 36.2499H25.8701V30.3599L26.9401 27.7999C27.1101 27.3899 27.5001 27.1299 27.9401 27.1299H32.2201C32.6601 27.1299 33.0501 27.3899 33.2201 27.7999L34.2901 30.4099V36.2499H34.2801ZM26.1301 35.9899H34.0201V30.4299L32.9701 27.8899C32.8401 27.5799 32.5401 27.3799 32.2101 27.3799H27.9301C27.6001 27.3799 27.3001 27.5799 27.1701 27.8899L26.1201 30.4299V35.9899H26.1301Z" fill="#231814"/>
<path d="M30.0798 30.7499C30.6597 30.7499 31.1298 30.2798 31.1298 29.6999C31.1298 29.12 30.6597 28.6499 30.0798 28.6499C29.4999 28.6499 29.0298 29.12 29.0298 29.6999C29.0298 30.2798 29.4999 30.7499 30.0798 30.7499Z" fill="#231814"/>
<path d="M30.0798 34.4101C30.6597 34.4101 31.1298 33.94 31.1298 33.3601C31.1298 32.7802 30.6597 32.3101 30.0798 32.3101C29.4999 32.3101 29.0298 32.7802 29.0298 33.3601C29.0298 33.94 29.4999 34.4101 30.0798 34.4101Z" fill="#231814"/>
<path d="M20.0102 36.5401H10.9702V35.3501L12.6002 33.5601H18.3802L20.0102 35.3501V36.5401ZM11.2302 36.2801H19.7502V35.4501L18.2602 33.8201H12.7102L11.2202 35.4501V36.2801H11.2302Z" fill="#231814"/>
<path d="M16.1698 33.8199H14.5498V21.9299L17.5698 14.9599C18.8098 12.3099 20.9098 10.9199 23.6298 10.9199C28.1998 10.9199 30.6198 13.9399 30.8098 19.8999V20.0499L30.6398 20.0299C30.6398 20.0299 30.6198 20.0299 30.6098 20.0299L29.3198 20.0499V19.9099C29.2198 15.0299 27.3598 12.5499 23.7898 12.5499C21.7298 12.5499 20.1398 13.6199 19.1798 15.6499L16.1598 22.6499V33.8299L16.1698 33.8199ZM14.8098 33.5599H15.9098V22.5899L18.9498 15.5399C19.9598 13.4099 21.6298 12.2899 23.7998 12.2899C27.4998 12.2899 29.4498 14.8099 29.5898 19.7699H30.5598C30.3398 14.0699 28.0098 11.1899 23.6398 11.1899C21.0198 11.1899 19.0098 12.5299 17.8098 15.0799L14.8098 22.0199V33.5699V33.5599Z" fill="#231814"/>
<path d="M31.5801 21.59L31.4201 21.55C30.5201 21.31 29.6401 21.31 28.7401 21.55L28.5801 21.59V20.72C28.5801 20.22 28.9601 19.81 29.4601 19.77C29.5001 19.77 29.5201 19.77 29.5401 19.77H30.6301C30.6301 19.77 30.6701 19.77 30.6901 19.77H30.7101C31.2101 19.82 31.5901 20.22 31.5901 20.72V21.59H31.5801ZM29.5301 20.02H29.4701C29.1001 20.06 28.8301 20.35 28.8301 20.72V21.26C29.6701 21.07 30.4801 21.07 31.3201 21.26V20.72C31.3201 20.36 31.0501 20.06 30.6801 20.03H30.6501C30.6501 20.03 30.6301 20.03 30.6201 20.03H29.5301V20.02Z" fill="#231814"/>
</svg>
