<svg width="48" height="48" viewBox="0 0 48 48" fill="none" xmlns="http://www.w3.org/2000/svg">
<path d="M32.1404 33.0299L29.0304 28.8999L26.8604 30.5299L29.0304 33.4099L30.7904 35.7399H31.1404H35.7704V33.0299H32.1404Z" fill="white"/>
<path d="M35.9602 35.94H30.7502L26.6802 30.54L29.1002 28.71L32.2602 32.91H35.9602V35.94ZM30.9102 35.62H35.6402V33.23H32.1002L29.0302 29.16L27.1202 30.6L30.9002 35.62H30.9102Z" fill="#231814"/>
<path d="M17.259 18.1301L21.208 28.4932C21.4499 29.128 22.1606 29.4465 22.7954 29.2046L23.2719 29.023C23.9067 28.7811 24.2252 28.0704 23.9833 27.4356L20.0343 17.0725C19.7925 16.4378 19.0818 16.1193 18.447 16.3611L17.9704 16.5428C17.3356 16.7846 17.0171 17.4953 17.259 18.1301Z" fill="white"/>
<path d="M22.3203 29.4603C21.7803 29.4603 21.2703 29.1303 21.0703 28.6003L17.0803 18.1303C16.9503 17.8003 16.9603 17.4403 17.1103 17.1103C17.2603 16.7803 17.5203 16.5403 17.8503 16.4103L18.4403 16.1903C19.1303 15.9303 19.9003 16.2703 20.1603 16.9603L24.1503 27.4303C24.4103 28.1203 24.0703 28.8903 23.3803 29.1503L22.7903 29.3703C22.6303 29.4303 22.4703 29.4603 22.3203 29.4603ZM18.9103 16.4203C18.7903 16.4203 18.6703 16.4403 18.5503 16.4903L17.9603 16.7103C17.7103 16.8103 17.5103 16.9903 17.4003 17.2403C17.2903 17.4903 17.2803 17.7603 17.3803 18.0103L21.3703 28.4803C21.5703 29.0003 22.1503 29.2603 22.6703 29.0603L23.2603 28.8403C23.7803 28.6403 24.0403 28.0603 23.8403 27.5403L19.8503 17.0703C19.7003 16.6703 19.3103 16.4203 18.9003 16.4203H18.9103Z" fill="#231814"/>
<path d="M26.0902 27.91H21.5202C20.4502 27.91 19.4402 27.4 18.8002 26.55C15.9502 22.77 18.0302 18.14 18.0302 18.14C20.3102 13.78 17.2402 12.23 17.2402 12.23H12.2202L15.2902 27.91V33.28H15.1202C14.5402 33.28 14.0102 33.67 13.9002 34.24C13.7502 35.01 14.3402 35.68 15.0802 35.68H26.2302C28.4602 35.68 30.2502 33.8 30.1102 31.53C29.9802 29.46 28.1702 27.9 26.1002 27.9L26.0902 27.91Z" fill="#1E64FF"/>
<path d="M26.24 35.8398H15.09C14.68 35.8398 14.3 35.6598 14.04 35.3498C13.78 35.0398 13.68 34.6198 13.75 34.2098C13.87 33.5798 14.45 33.1198 15.13 33.1198H15.14V27.9098L12.04 12.0698H17.29L17.32 12.0898C17.32 12.0898 18.43 12.6598 18.86 14.0198C19.24 15.2098 19.01 16.6298 18.18 18.2198C18.16 18.2598 16.18 22.7998 18.94 26.4498C19.55 27.2598 20.52 27.7498 21.53 27.7498H26.1C28.3 27.7498 30.14 29.4098 30.27 31.5298C30.34 32.6598 29.96 33.7398 29.18 34.5698C28.42 35.3798 27.34 35.8498 26.23 35.8498L26.24 35.8398ZM15.14 33.4398C14.62 33.4398 14.17 33.7898 14.08 34.2698C14.02 34.5798 14.1 34.8998 14.3 35.1398C14.5 35.3798 14.79 35.5198 15.1 35.5198H26.25C27.29 35.5198 28.26 35.0998 28.97 34.3398C29.68 33.5798 30.04 32.5898 29.97 31.5398C29.84 29.5898 28.15 28.0598 26.12 28.0598H21.55C20.44 28.0598 19.37 27.5298 18.7 26.6298C15.83 22.8198 17.89 18.1098 17.91 18.0598C18.71 16.5298 18.93 15.1998 18.58 14.0998C18.23 12.9998 17.4 12.4798 17.23 12.3798H12.45L15.48 27.8698V33.4298H15.15L15.14 33.4398Z" fill="#231814"/>
<path d="M31.3402 26.4199H22.4302C21.7509 26.4199 21.2002 26.9706 21.2002 27.6499V28.1599C21.2002 28.8392 21.7509 29.3899 22.4302 29.3899H31.3402C32.0195 29.3899 32.5702 28.8392 32.5702 28.1599V27.6499C32.5702 26.9706 32.0195 26.4199 31.3402 26.4199Z" fill="white"/>
<path d="M31.39 29.5498H22.37C21.63 29.5498 21.04 28.9498 21.04 28.2198V27.5898C21.04 26.8498 21.64 26.2598 22.37 26.2598H31.39C32.13 26.2598 32.72 26.8598 32.72 27.5898V28.2198C32.72 28.9598 32.12 29.5498 31.39 29.5498ZM22.37 26.5798C21.81 26.5798 21.36 27.0298 21.36 27.5898V28.2198C21.36 28.7798 21.81 29.2298 22.37 29.2298H31.39C31.95 29.2298 32.4 28.7798 32.4 28.2198V27.5898C32.4 27.0298 31.95 26.5798 31.39 26.5798H22.37Z" fill="#231814"/>
<path d="M29.7703 22.6201H25.5803C25.1495 22.6201 24.8003 22.9693 24.8003 23.4001V23.7101C24.8003 24.1409 25.1495 24.4901 25.5803 24.4901H29.7703C30.2011 24.4901 30.5503 24.1409 30.5503 23.7101V23.4001C30.5503 22.9693 30.2011 22.6201 29.7703 22.6201Z" fill="white"/>
<path d="M29.8101 24.66H25.5401C25.0401 24.66 24.6401 24.26 24.6401 23.76V23.36C24.6401 22.86 25.0401 22.46 25.5401 22.46H29.8101C30.3101 22.46 30.7101 22.86 30.7101 23.36V23.76C30.7101 24.26 30.3101 24.66 29.8101 24.66ZM25.5401 22.79C25.2201 22.79 24.9601 23.05 24.9601 23.37V23.77C24.9601 24.09 25.2201 24.35 25.5401 24.35H29.8101C30.1301 24.35 30.3901 24.09 30.3901 23.77V23.37C30.3901 23.05 30.1301 22.79 29.8101 22.79H25.5401Z" fill="#231814"/>
<path d="M24.8001 23.3999H22.6001V23.7199H24.8001V23.3999Z" fill="#231814"/>
<path d="M22.8101 33.1201H15.3101V33.4401H22.8101V33.1201Z" fill="#231814"/>
<path d="M29.6802 33.1201H23.7002V33.4401H29.6802V33.1201Z" fill="#231814"/>
</svg>
