<svg width="48" height="48" viewBox="0 0 48 48" fill="none" xmlns="http://www.w3.org/2000/svg">
<path d="M30.9898 18.4C30.9898 17.38 30.1598 16.54 29.1298 16.54H12.6998C11.6798 16.54 10.8398 17.37 10.8398 18.4V27.51H30.9898V18.4Z" fill="#1E64FF"/>
<path d="M19.0198 30.3101L18.3398 32.7401H23.4898L22.8098 30.3101H19.0198Z" fill="#1E64FF"/>
<path d="M23.1802 30.3099H29.1402C30.3602 30.3099 31.3502 29.3199 31.3502 28.0999V18.3999C31.3502 17.1799 30.3602 16.1899 29.1402 16.1899H12.7002C11.4802 16.1899 10.4902 17.1799 10.4902 18.3999V28.0999C10.4902 29.3199 11.4802 30.3099 12.7002 30.3099H18.6602L17.9802 32.7399H16.3602V33.0899H25.4902V32.7399H23.8702L23.1902 30.3099H23.1802ZM10.8402 18.3999C10.8402 17.3799 11.6702 16.5399 12.7002 16.5399H29.1402C30.1602 16.5399 31.0002 17.3699 31.0002 18.3999V27.5099H10.8402V18.3999ZM12.7002 29.9599C11.6802 29.9599 10.8402 29.1299 10.8402 28.0999V27.8599H30.9902V28.0999C30.9902 29.1199 30.1602 29.9599 29.1302 29.9599H12.7002ZM18.3402 32.7399L19.0202 30.3099H22.8102L23.4902 32.7399H18.3402Z" fill="#231814"/>
<path d="M36.8203 14.9102H28.9503C28.5703 14.9102 28.2603 15.2202 28.2603 15.6002V15.7102H28.6103V15.6002C28.6103 15.4102 28.7603 15.2602 28.9503 15.2602H36.8203C37.0103 15.2602 37.1603 15.4102 37.1603 15.6002V32.2402C37.1603 32.4302 37.0103 32.5802 36.8203 32.5802H28.9503C28.7603 32.5802 28.6103 32.4302 28.6103 32.2402V31.4902H28.2603V32.2402C28.2603 32.6202 28.5703 32.9302 28.9503 32.9302H36.8203C37.2003 32.9302 37.5103 32.6202 37.5103 32.2402V15.6002C37.5103 15.2202 37.2003 14.9102 36.8203 14.9102Z" fill="#231814"/>
<path d="M34.7305 16.1701V16.2201C34.7305 16.303 34.7976 16.3701 34.8805 16.3701H36.3105C36.3933 16.3701 36.4605 16.303 36.4605 16.2201V16.1701C36.4605 16.0873 36.3933 16.0201 36.3105 16.0201H34.8805C34.7976 16.0201 34.7305 16.0873 34.7305 16.1701Z" fill="#231814"/>
<path d="M33.1401 16.1701V16.2201C33.1401 16.303 33.2073 16.3701 33.2901 16.3701H33.9701C34.053 16.3701 34.1201 16.303 34.1201 16.2201V16.1701C34.1201 16.0873 34.053 16.0201 33.9701 16.0201H33.2901C33.2073 16.0201 33.1401 16.0873 33.1401 16.1701Z" fill="#231814"/>
<path d="M32.5601 21.3503V21.4003C32.5601 21.4831 32.6272 21.5503 32.7101 21.5503H36.3001C36.3829 21.5503 36.4501 21.4831 36.4501 21.4003V21.3503C36.4501 21.2674 36.3829 21.2003 36.3001 21.2003H32.7101C32.6272 21.2003 32.5601 21.2674 32.5601 21.3503Z" fill="#231814"/>
<path d="M32.5601 27.4802V27.5302C32.5601 27.613 32.6272 27.6802 32.7101 27.6802H36.3001C36.3829 27.6802 36.4501 27.613 36.4501 27.5302V27.4802C36.4501 27.3973 36.3829 27.3302 36.3001 27.3302H32.7101C32.6272 27.3302 32.5601 27.3973 32.5601 27.4802Z" fill="#231814"/>
<path d="M32.5601 28.8801V28.9301C32.5601 29.0129 32.6272 29.0801 32.7101 29.0801H36.3001C36.3829 29.0801 36.4501 29.0129 36.4501 28.9301V28.8801C36.4501 28.7972 36.3829 28.7301 36.3001 28.7301H32.7101C32.6272 28.7301 32.5601 28.7972 32.5601 28.8801Z" fill="#231814"/>
</svg>
