<svg width="48" height="48" viewBox="0 0 48 48" fill="none" xmlns="http://www.w3.org/2000/svg">
<path d="M36.54 22.9701H11.46L15.33 17.8901H32.67L36.54 22.9701Z" fill="#1E64FF"/>
<path d="M36.5003 22.99H11.4203L11.5903 23.29C12.8803 21.6 14.1703 19.91 15.4603 18.22L15.2903 18.32H32.6303L32.4603 18.22C33.7503 19.91 35.0403 21.6 36.3303 23.29C36.4903 23.49 36.8403 23.29 36.6803 23.09C35.4103 21.42 34.1803 19.71 32.8603 18.08C32.6303 17.8 32.1103 17.91 31.7803 17.91H15.7003C15.5803 17.91 15.4203 17.88 15.2903 17.91C15.0703 17.96 14.9003 18.29 14.7703 18.47L13.6703 19.92L11.4003 22.9L11.2503 23.09C11.1503 23.22 11.2903 23.39 11.4203 23.39H36.5003C36.7603 23.39 36.7603 22.99 36.5003 22.99Z" fill="#231814"/>
<path d="M11.1301 24.4801H36.8601C37.1201 24.4801 37.1201 24.0801 36.8601 24.0801H11.1301C10.8701 24.0801 10.8701 24.4801 11.1301 24.4801Z" fill="#231814"/>
<path d="M11.1301 28.6598H36.8601C37.1201 28.6598 37.1201 28.2598 36.8601 28.2598H11.1301C10.8701 28.2598 10.8701 28.6598 11.1301 28.6598Z" fill="#231814"/>
<path d="M11.1301 30.11H36.8601C37.1201 30.11 37.1201 29.71 36.8601 29.71H11.1301C10.8701 29.71 10.8701 30.11 11.1301 30.11Z" fill="#231814"/>
<path d="M12.25 25.2897V27.4397C12.25 27.6997 12.65 27.6997 12.65 27.4397V25.2897C12.65 25.0297 12.25 25.0297 12.25 25.2897Z" fill="#231814"/>
<path d="M16.9199 25.2897V27.4397C16.9199 27.6997 17.3199 27.6997 17.3199 27.4397V25.2897C17.3199 25.0297 16.9199 25.0297 16.9199 25.2897Z" fill="#231814"/>
<path d="M21.5898 25.2897V27.4397C21.5898 27.6997 21.9898 27.6997 21.9898 27.4397V25.2897C21.9898 25.0297 21.5898 25.0297 21.5898 25.2897Z" fill="#231814"/>
<path d="M26.2603 25.2897V27.4397C26.2603 27.6997 26.6603 27.6997 26.6603 27.4397V25.2897C26.6603 25.0297 26.2603 25.0297 26.2603 25.2897Z" fill="#231814"/>
<path d="M30.9399 25.2897V27.4397C30.9399 27.6997 31.3399 27.6997 31.3399 27.4397V25.2897C31.3399 25.0297 30.9399 25.0297 30.9399 25.2897Z" fill="#231814"/>
<path d="M35.6099 25.2897V27.4397C35.6099 27.6997 36.0099 27.6997 36.0099 27.4397V25.2897C36.0099 25.0297 35.6099 25.0297 35.6099 25.2897Z" fill="#231814"/>
<path d="M16.2301 19.5701C16.4289 19.5701 16.5901 19.4089 16.5901 19.2101C16.5901 19.0113 16.4289 18.8501 16.2301 18.8501C16.0313 18.8501 15.8701 19.0113 15.8701 19.2101C15.8701 19.4089 16.0313 19.5701 16.2301 19.5701Z" fill="#231814"/>
<path d="M18.7702 19.5701C18.969 19.5701 19.1302 19.4089 19.1302 19.2101C19.1302 19.0113 18.969 18.8501 18.7702 18.8501C18.5713 18.8501 18.4102 19.0113 18.4102 19.2101C18.4102 19.4089 18.5713 19.5701 18.7702 19.5701Z" fill="#231814"/>
<path d="M21.3102 19.5701C21.509 19.5701 21.6702 19.4089 21.6702 19.2101C21.6702 19.0113 21.509 18.8501 21.3102 18.8501C21.1114 18.8501 20.9502 19.0113 20.9502 19.2101C20.9502 19.4089 21.1114 19.5701 21.3102 19.5701Z" fill="#231814"/>
<path d="M23.8502 19.5701C24.0491 19.5701 24.2102 19.4089 24.2102 19.2101C24.2102 19.0113 24.0491 18.8501 23.8502 18.8501C23.6514 18.8501 23.4902 19.0113 23.4902 19.2101C23.4902 19.4089 23.6514 19.5701 23.8502 19.5701Z" fill="#231814"/>
<path d="M26.3903 19.5701C26.5891 19.5701 26.7503 19.4089 26.7503 19.2101C26.7503 19.0113 26.5891 18.8501 26.3903 18.8501C26.1914 18.8501 26.0303 19.0113 26.0303 19.2101C26.0303 19.4089 26.1914 19.5701 26.3903 19.5701Z" fill="#231814"/>
<path d="M28.9298 19.5701C29.1286 19.5701 29.2898 19.4089 29.2898 19.2101C29.2898 19.0113 29.1286 18.8501 28.9298 18.8501C28.731 18.8501 28.5698 19.0113 28.5698 19.2101C28.5698 19.4089 28.731 19.5701 28.9298 19.5701Z" fill="#231814"/>
<path d="M31.4699 19.5701C31.6687 19.5701 31.8299 19.4089 31.8299 19.2101C31.8299 19.0113 31.6687 18.8501 31.4699 18.8501C31.271 18.8501 31.1099 19.0113 31.1099 19.2101C31.1099 19.4089 31.271 19.5701 31.4699 19.5701Z" fill="#231814"/>
<path d="M16.2301 22.4397C16.4289 22.4397 16.5901 22.2785 16.5901 22.0797C16.5901 21.8809 16.4289 21.7197 16.2301 21.7197C16.0313 21.7197 15.8701 21.8809 15.8701 22.0797C15.8701 22.2785 16.0313 22.4397 16.2301 22.4397Z" fill="#231814"/>
<path d="M13.6798 22.4397C13.8786 22.4397 14.0398 22.2785 14.0398 22.0797C14.0398 21.8809 13.8786 21.7197 13.6798 21.7197C13.481 21.7197 13.3198 21.8809 13.3198 22.0797C13.3198 22.2785 13.481 22.4397 13.6798 22.4397Z" fill="#231814"/>
<path d="M18.7702 22.4397C18.969 22.4397 19.1302 22.2785 19.1302 22.0797C19.1302 21.8809 18.969 21.7197 18.7702 21.7197C18.5713 21.7197 18.4102 21.8809 18.4102 22.0797C18.4102 22.2785 18.5713 22.4397 18.7702 22.4397Z" fill="#231814"/>
<path d="M21.3102 22.4397C21.509 22.4397 21.6702 22.2785 21.6702 22.0797C21.6702 21.8809 21.509 21.7197 21.3102 21.7197C21.1114 21.7197 20.9502 21.8809 20.9502 22.0797C20.9502 22.2785 21.1114 22.4397 21.3102 22.4397Z" fill="#231814"/>
<path d="M23.8502 22.4397C24.0491 22.4397 24.2102 22.2785 24.2102 22.0797C24.2102 21.8809 24.0491 21.7197 23.8502 21.7197C23.6514 21.7197 23.4902 21.8809 23.4902 22.0797C23.4902 22.2785 23.6514 22.4397 23.8502 22.4397Z" fill="#231814"/>
<path d="M26.3903 22.4397C26.5891 22.4397 26.7503 22.2785 26.7503 22.0797C26.7503 21.8809 26.5891 21.7197 26.3903 21.7197C26.1914 21.7197 26.0303 21.8809 26.0303 22.0797C26.0303 22.2785 26.1914 22.4397 26.3903 22.4397Z" fill="#231814"/>
<path d="M28.9298 22.4397C29.1286 22.4397 29.2898 22.2785 29.2898 22.0797C29.2898 21.8809 29.1286 21.7197 28.9298 21.7197C28.731 21.7197 28.5698 21.8809 28.5698 22.0797C28.5698 22.2785 28.731 22.4397 28.9298 22.4397Z" fill="#231814"/>
<path d="M31.4699 22.4397C31.6687 22.4397 31.8299 22.2785 31.8299 22.0797C31.8299 21.8809 31.6687 21.7197 31.4699 21.7197C31.271 21.7197 31.1099 21.8809 31.1099 22.0797C31.1099 22.2785 31.271 22.4397 31.4699 22.4397Z" fill="#231814"/>
<path d="M34.2702 22.4397C34.469 22.4397 34.6302 22.2785 34.6302 22.0797C34.6302 21.8809 34.469 21.7197 34.2702 21.7197C34.0713 21.7197 33.9102 21.8809 33.9102 22.0797C33.9102 22.2785 34.0713 22.4397 34.2702 22.4397Z" fill="#231814"/>
<path d="M15.07 21.0198C15.2688 21.0198 15.43 20.8586 15.43 20.6598C15.43 20.461 15.2688 20.2998 15.07 20.2998C14.8711 20.2998 14.71 20.461 14.71 20.6598C14.71 20.8586 14.8711 21.0198 15.07 21.0198Z" fill="#231814"/>
<path d="M17.61 21.0198C17.8088 21.0198 17.97 20.8586 17.97 20.6598C17.97 20.461 17.8088 20.2998 17.61 20.2998C17.4112 20.2998 17.25 20.461 17.25 20.6598C17.25 20.8586 17.4112 21.0198 17.61 21.0198Z" fill="#231814"/>
<path d="M20.15 21.0198C20.3489 21.0198 20.51 20.8586 20.51 20.6598C20.51 20.461 20.3489 20.2998 20.15 20.2998C19.9512 20.2998 19.79 20.461 19.79 20.6598C19.79 20.8586 19.9512 21.0198 20.15 21.0198Z" fill="#231814"/>
<path d="M22.6901 21.0198C22.8889 21.0198 23.0501 20.8586 23.0501 20.6598C23.0501 20.461 22.8889 20.2998 22.6901 20.2998C22.4913 20.2998 22.3301 20.461 22.3301 20.6598C22.3301 20.8586 22.4913 21.0198 22.6901 21.0198Z" fill="#231814"/>
<path d="M25.2301 21.0198C25.4289 21.0198 25.5901 20.8586 25.5901 20.6598C25.5901 20.461 25.4289 20.2998 25.2301 20.2998C25.0313 20.2998 24.8701 20.461 24.8701 20.6598C24.8701 20.8586 25.0313 21.0198 25.2301 21.0198Z" fill="#231814"/>
<path d="M27.7702 21.0198C27.969 21.0198 28.1302 20.8586 28.1302 20.6598C28.1302 20.461 27.969 20.2998 27.7702 20.2998C27.5713 20.2998 27.4102 20.461 27.4102 20.6598C27.4102 20.8586 27.5713 21.0198 27.7702 21.0198Z" fill="#231814"/>
<path d="M30.3102 21.0198C30.509 21.0198 30.6702 20.8586 30.6702 20.6598C30.6702 20.461 30.509 20.2998 30.3102 20.2998C30.1114 20.2998 29.9502 20.461 29.9502 20.6598C29.9502 20.8586 30.1114 21.0198 30.3102 21.0198Z" fill="#231814"/>
<path d="M32.84 21.0198C33.0388 21.0198 33.2 20.8586 33.2 20.6598C33.2 20.461 33.0388 20.2998 32.84 20.2998C32.6412 20.2998 32.48 20.461 32.48 20.6598C32.48 20.8586 32.6412 21.0198 32.84 21.0198Z" fill="#231814"/>
</svg>
