<svg width="48" height="48" viewBox="0 0 48 48" fill="none" xmlns="http://www.w3.org/2000/svg">
<path d="M33.9397 15.3301H13.9897V31.2701H33.9397V15.3301Z" fill="#1E64FF"/>
<path d="M34.1398 31.4601H13.7998V15.1401H34.1398V31.4701V31.4601ZM14.1898 31.0701H33.7498V15.5201H14.1898V31.0701Z" fill="#231814"/>
<path d="M28.3199 15.3301H19.6099V32.3301H28.3199V15.3301Z" fill="white"/>
<path d="M28.5199 32.5301H19.4199V15.1401H28.5199V32.5301ZM19.8099 32.1401H28.1299V15.5301H19.8099V32.1401Z" fill="#231814"/>
<path d="M33.9401 15.3301H29.1001V32.3301H33.9401V15.3301Z" fill="white"/>
<path d="M34.1402 32.5301H28.9102V15.1401H34.1402V32.5301ZM29.3002 32.1401H33.7502V15.5301H29.3002V32.1401Z" fill="#231814"/>
<path d="M18.8197 15.3301H13.9897V32.3301H18.8197V15.3301Z" fill="white"/>
<path d="M19.0198 32.5301H13.7998V15.1401H19.0198V32.5301ZM14.1898 32.1401H18.6298V15.5301H14.1898V32.1401Z" fill="#231814"/>
<path d="M24.9401 22.6501C24.9401 22.6501 24.8601 22.6401 24.8201 22.6101C24.7301 22.5401 24.7201 22.4201 24.7901 22.3401L26.9101 19.6101C26.9801 19.5201 27.1001 19.5101 27.1801 19.5801C27.2701 19.6501 27.2801 19.7701 27.2101 19.8501L25.0901 22.5801C25.0901 22.5801 24.9901 22.6601 24.9401 22.6601V22.6501Z" fill="#231814"/>
<path d="M24.3998 25.0901C24.3998 25.0901 24.3198 25.0801 24.2798 25.0501C24.1998 24.9801 24.1798 24.8601 24.2498 24.7801L26.3698 22.0501C26.4398 21.9601 26.5598 21.9501 26.6398 22.0201C26.7198 22.0901 26.7398 22.2101 26.6698 22.2901L24.5498 25.0201C24.5498 25.0201 24.4498 25.1001 24.3998 25.1001V25.0901Z" fill="#231814"/>
<path d="M30.4 24.03C30.4 24.03 30.32 24.02 30.28 23.99C30.19 23.92 30.18 23.8 30.25 23.72L32.37 20.99C32.44 20.9 32.56 20.89 32.64 20.96C32.73 21.03 32.74 21.15 32.67 21.23L30.55 23.96C30.55 23.96 30.45 24.04 30.4 24.04V24.03Z" fill="#231814"/>
<path d="M15.2101 30.3298C15.2101 30.3298 15.1301 30.3198 15.0901 30.2898C15.0001 30.2198 14.9901 30.0998 15.0601 30.0198L17.1801 27.2898C17.2501 27.1998 17.3701 27.1898 17.4501 27.2598C17.5301 27.3298 17.5501 27.4498 17.4801 27.5298L15.3601 30.2598C15.3601 30.2598 15.2601 30.3398 15.2101 30.3398V30.3298Z" fill="#231814"/>
<path d="M34.4997 31.27H13.4897V32.76H34.4997V31.27Z" fill="#1E64FF"/>
<path d="M34.6898 32.9498H13.2998V31.0698H34.6998V32.9498H34.6898ZM13.6798 32.5598H34.2998V31.4598H13.6898V32.5598H13.6798Z" fill="#231814"/>
<path d="M35.3799 15.2397H12.6099V18.2197H35.3799V15.2397Z" fill="#1E64FF"/>
<path d="M35.5799 18.4198H12.4199V15.0498H35.5799V18.4198ZM12.8099 18.0298H35.1899V15.4398H12.8099V18.0298Z" fill="#231814"/>
</svg>
