<svg width="48" height="48" viewBox="0 0 48 48" fill="none" xmlns="http://www.w3.org/2000/svg">
<path d="M25.1701 23.0098H14.7401C14.6738 23.0098 14.6201 23.0635 14.6201 23.1298V31.2398C14.6201 31.306 14.6738 31.3598 14.7401 31.3598H25.1701C25.2364 31.3598 25.2901 31.306 25.2901 31.2398V23.1298C25.2901 23.0635 25.2364 23.0098 25.1701 23.0098Z" fill="#1E64FF"/>
<path d="M37.4499 19.6001L34.2699 12.6501C34.2399 12.6001 34.1899 12.5601 34.1299 12.5601H32.1499C32.1499 12.5601 32.0999 12.5601 32.0799 12.5601C32.0799 12.5601 32.0799 12.5601 32.0699 12.5601H19.9599H16.7799H13.8899C13.8299 12.5601 13.7699 12.6001 13.7499 12.6501L10.5699 19.5901C10.5699 19.5901 10.5499 19.6501 10.5599 19.6801C10.5599 19.7001 10.6399 20.1501 10.9199 20.6101C11.1899 21.0401 11.5599 21.3301 11.9999 21.4601V35.2801C11.9999 35.3701 12.0699 35.4301 12.1499 35.4301H35.8799C35.9699 35.4301 36.0299 35.3601 36.0299 35.2801V21.4601C36.0299 21.4601 36.0299 21.4601 36.0299 21.4501C36.4699 21.3201 36.8399 21.0301 37.1099 20.6001C37.3499 20.2201 37.4399 19.8501 37.4599 19.7201C37.4799 19.6801 37.4799 19.6301 37.4599 19.5901L37.4499 19.6001ZM34.0299 12.8701L37.0699 19.5101H33.6199L32.2899 12.8701H34.0299ZM31.9799 12.8701L33.3099 19.5101H29.8399L29.3699 12.8701H31.9699H31.9799ZM33.3099 19.8201C33.2699 19.9801 33.1799 20.2101 33.0299 20.4501C32.6999 20.9801 32.2199 21.2501 31.5999 21.2501C30.9799 21.2501 30.4999 20.9901 30.1699 20.4601C30.0199 20.2201 29.9299 19.9801 29.8899 19.8201H33.2999H33.3099ZM29.0599 12.8701L29.5299 19.5101H26.0399L25.8799 12.8701H29.0499H29.0599ZM29.4999 19.8201C29.4599 19.9801 29.3699 20.2201 29.2199 20.4601C28.8899 20.9801 28.4099 21.2501 27.7899 21.2501C27.1699 21.2501 26.6899 20.9901 26.3599 20.4601C26.2099 20.2201 26.1199 19.9801 26.0799 19.8201H29.4899H29.4999ZM25.5799 12.8701L25.7399 19.5101H22.2599L22.6999 12.8701H25.5899H25.5799ZM25.6999 19.8201C25.6599 19.9801 25.5699 20.2201 25.4199 20.4601C25.0899 20.9801 24.6099 21.2501 23.9899 21.2501C23.3699 21.2501 22.8899 20.9901 22.5599 20.4601C22.4099 20.2201 22.3199 19.9801 22.2799 19.8201H25.6899H25.6999ZM20.0699 12.8701H22.3899L21.9499 19.5101H18.4899L20.0699 12.8701ZM21.8999 19.8201C21.8599 19.9801 21.7699 20.2201 21.6199 20.4601C21.2899 20.9801 20.8099 21.2501 20.1899 21.2501C19.5699 21.2501 19.0899 20.9901 18.7599 20.4601C18.6099 20.2201 18.5199 19.9801 18.4799 19.8201H21.8899H21.8999ZM16.8799 12.8701H19.7599L18.1799 19.5101H14.7099L16.8799 12.8701ZM18.0999 19.8201C18.0599 19.9801 17.9699 20.2201 17.8199 20.4601C17.4899 20.9801 17.0099 21.2501 16.3899 21.2501C15.7699 21.2501 15.2899 20.9901 14.9599 20.4601C14.8099 20.2201 14.7199 19.9801 14.6799 19.8201H18.0899H18.0999ZM13.9699 12.8701H16.5499L14.3799 19.5101H10.9299L13.9699 12.8701ZM11.1599 20.4601C11.0099 20.2201 10.9199 19.9801 10.8799 19.8201H14.2899C14.2499 19.9801 14.1599 20.2201 14.0099 20.4601C13.6799 20.9801 13.1999 21.2501 12.5799 21.2501C11.9599 21.2501 11.4799 20.9901 11.1499 20.4601H11.1599ZM34.2899 35.1401H28.1699V23.2601H34.2899V35.1401ZM35.7099 35.1401H34.5399V23.1401C34.5399 23.0701 34.4799 23.0201 34.4199 23.0201H28.0499C27.9799 23.0201 27.9299 23.0801 27.9299 23.1401V35.1401H12.2899V21.5401C12.3899 21.5501 12.4899 21.5601 12.5899 21.5601C13.3099 21.5601 13.8999 21.2301 14.2799 20.6201C14.3699 20.4801 14.4399 20.3401 14.4899 20.2101C14.5399 20.3401 14.6099 20.4801 14.6999 20.6201C15.0899 21.2401 15.6699 21.5601 16.3899 21.5601C17.1099 21.5601 17.6999 21.2301 18.0799 20.6201C18.1699 20.4801 18.2399 20.3401 18.2899 20.2101C18.3399 20.3401 18.4099 20.4801 18.4999 20.6201C18.8899 21.2401 19.4699 21.5601 20.1899 21.5601C20.9099 21.5601 21.4999 21.2301 21.8799 20.6201C21.9699 20.4801 22.0399 20.3401 22.0899 20.2101C22.1399 20.3401 22.2099 20.4801 22.2999 20.6201C22.6899 21.2401 23.2699 21.5601 23.9899 21.5601C24.7099 21.5601 25.2999 21.2301 25.6799 20.6201C25.7699 20.4801 25.8399 20.3401 25.8899 20.2101C25.9399 20.3401 26.0099 20.4801 26.0999 20.6201C26.4799 21.2401 27.0699 21.5601 27.7899 21.5601C28.5099 21.5601 29.0999 21.2301 29.4799 20.6201C29.5699 20.4801 29.6399 20.3401 29.6899 20.2101C29.7399 20.3401 29.8099 20.4801 29.8999 20.6201C30.2899 21.2401 30.8699 21.5601 31.5899 21.5601C32.3099 21.5601 32.8999 21.2301 33.2799 20.6201C33.3699 20.4801 33.4399 20.3401 33.4899 20.2101C33.5399 20.3401 33.6099 20.4801 33.6999 20.6201C34.0899 21.2401 34.6699 21.5601 35.3899 21.5601C35.4999 21.5601 35.5999 21.5601 35.6999 21.5401V35.1401H35.7099ZM36.8299 20.4601C36.4999 20.9801 36.0199 21.2501 35.3999 21.2501C34.7799 21.2501 34.2999 20.9901 33.9699 20.4601C33.8199 20.2201 33.7299 19.9801 33.6899 19.8201H37.0999C37.0599 19.9801 36.9699 20.2201 36.8199 20.4601H36.8299Z" fill="#231814"/>
<path d="M25.1601 23.0103H14.7401C14.6701 23.0103 14.6201 23.0703 14.6201 23.1303V31.2303C14.6201 31.3003 14.6801 31.3503 14.7401 31.3503H25.1601C25.2301 31.3503 25.2801 31.2903 25.2801 31.2303V23.1303C25.2801 23.0603 25.2201 23.0103 25.1601 23.0103ZM25.0401 31.1103H14.8701V23.2503H25.0401V31.1103Z" fill="#231814"/>
<path d="M29.7898 33.68H32.6798C33.0698 33.68 33.3798 33.36 33.3798 32.98V30.66C33.3798 30.27 33.0598 29.96 32.6798 29.96H29.7898C29.3998 29.96 29.0898 30.28 29.0898 30.66V32.98C29.0898 33.37 29.4098 33.68 29.7898 33.68ZM29.3298 30.66C29.3298 30.41 29.5298 30.2 29.7898 30.2H32.6798C32.9298 30.2 33.1398 30.4 33.1398 30.66V32.98C33.1398 33.23 32.9398 33.44 32.6798 33.44H29.7898C29.5398 33.44 29.3298 33.24 29.3298 32.98V30.66Z" fill="#231814"/>
<path d="M29.7898 28.47H32.6798C33.0698 28.47 33.3798 28.15 33.3798 27.77V25.45C33.3798 25.06 33.0598 24.75 32.6798 24.75H29.7898C29.3998 24.75 29.0898 25.07 29.0898 25.45V27.77C29.0898 28.16 29.4098 28.47 29.7898 28.47ZM29.3298 25.45C29.3298 25.2 29.5298 24.99 29.7898 24.99H32.6798C32.9298 24.99 33.1398 25.19 33.1398 25.45V27.77C33.1398 28.02 32.9398 28.23 32.6798 28.23H29.7898C29.5398 28.23 29.3298 28.03 29.3298 27.77V25.45Z" fill="#231814"/>
<path d="M20.73 29.01C20.73 29.01 20.79 29.05 20.82 29.05C20.85 29.05 20.88 29.04 20.91 29.01L22.65 27.27C22.65 27.27 22.7 27.14 22.65 27.1C22.6 27.05 22.52 27.05 22.48 27.1L20.74 28.84C20.74 28.84 20.69 28.97 20.74 29.01H20.73Z" fill="#231814"/>
<path d="M20.2399 27.3103C20.2399 27.3103 20.2999 27.3003 20.3299 27.2703L22.0699 25.5303C22.0699 25.5303 22.1199 25.4003 22.0699 25.3603C22.0199 25.3103 21.9399 25.3103 21.8999 25.3603L20.1599 27.1003C20.1599 27.1003 20.1099 27.2303 20.1599 27.2703C20.1799 27.2903 20.2199 27.3103 20.2499 27.3103H20.2399Z" fill="#231814"/>
</svg>
