<svg width="48" height="48" viewBox="0 0 48 48" fill="none" xmlns="http://www.w3.org/2000/svg">
<path d="M27.0901 16.7398H26.3501C26.3501 16.7398 26.2601 16.6998 26.2601 16.6498V15.4498H26.1501C26.1501 15.4498 26.0601 15.4098 26.0601 15.3598V14.6298C26.0601 14.6298 26.1001 14.5398 26.1501 14.5398H26.5501C26.9001 14.5398 27.1801 14.8198 27.1801 15.1698V16.6598C27.1801 16.6598 27.1401 16.7498 27.0901 16.7498V16.7398ZM26.4501 16.5598H27.0001V15.1598C27.0001 14.9198 26.8001 14.7098 26.5501 14.7098H26.2401V15.2598H26.3501C26.3501 15.2598 26.4401 15.2998 26.4401 15.3498V16.5498L26.4501 16.5598ZM21.6501 16.7398H20.9201C20.8701 16.7398 20.8301 16.6998 20.8301 16.6498V15.1598C20.8301 14.8098 21.1101 14.5298 21.4601 14.5298H21.8201C21.8701 14.5298 21.9101 14.5698 21.9101 14.6198V15.3498C21.9101 15.3498 21.8701 15.4398 21.8201 15.4398H21.7401V16.6398C21.7401 16.6398 21.7001 16.7298 21.6501 16.7298V16.7398ZM21.0101 16.5598H21.5501V15.3598C21.5501 15.3598 21.5901 15.2698 21.6401 15.2698H21.7201V14.7198H21.4501C21.2001 14.7198 21.0001 14.9198 21.0001 15.1698V16.5698L21.0101 16.5598Z" fill="#231814"/>
<path d="M27.09 16.7797H26.35C26.28 16.7797 26.22 16.7197 26.22 16.6497V15.4897H26.15C26.08 15.4897 26.02 15.4297 26.02 15.3597V14.6297C26.02 14.5597 26.08 14.4997 26.15 14.4997H26.55C26.92 14.4997 27.22 14.7997 27.22 15.1697V16.6597C27.22 16.7297 27.16 16.7897 27.09 16.7897V16.7797ZM26.16 14.5697C26.16 14.5697 26.11 14.5897 26.11 14.6197V15.3497C26.11 15.3497 26.13 15.3997 26.16 15.3997H26.31V16.6397C26.31 16.6397 26.33 16.6897 26.36 16.6897H27.1C27.1 16.6897 27.15 16.6697 27.15 16.6397V15.1497C27.15 14.8197 26.89 14.5597 26.56 14.5597H26.16V14.5697ZM21.65 16.7797H20.92C20.85 16.7797 20.79 16.7197 20.79 16.6497V15.1597C20.79 14.7897 21.09 14.4897 21.46 14.4897H21.82C21.89 14.4897 21.95 14.5497 21.95 14.6197V15.3497C21.95 15.4197 21.89 15.4797 21.82 15.4797H21.78V16.6397C21.78 16.7097 21.72 16.7697 21.65 16.7697V16.7797ZM21.46 14.5697C21.14 14.5697 20.87 14.8397 20.87 15.1597V16.6497C20.87 16.6497 20.89 16.6997 20.92 16.6997H21.65C21.65 16.6997 21.7 16.6797 21.7 16.6497V15.4097H21.82C21.82 15.4097 21.87 15.3897 21.87 15.3597V14.6297C21.87 14.6297 21.85 14.5797 21.82 14.5797H21.46V14.5697ZM27.04 16.5997H26.4V15.3597C26.4 15.3597 26.38 15.3097 26.35 15.3097H26.2V14.6797H26.55C26.81 14.6797 27.04 14.9097 27.04 15.1697V16.6097V16.5997ZM26.49 16.5197H26.96V15.1697C26.96 14.9497 26.77 14.7597 26.55 14.7597H26.28V15.2297H26.35C26.42 15.2297 26.48 15.2897 26.48 15.3597V16.5197H26.49ZM21.6 16.5997H20.97V15.1597C20.97 14.8797 21.18 14.6697 21.46 14.6697H21.77V15.2997H21.65C21.65 15.2997 21.6 15.3197 21.6 15.3497V16.5897V16.5997ZM21.06 16.5197H21.52V15.3597C21.52 15.2897 21.58 15.2297 21.65 15.2297H21.69V14.7597H21.46C21.23 14.7597 21.05 14.9397 21.05 15.1697V16.5197H21.06Z" fill="#231814"/>
<path d="M27.7699 17.1801H25.6599C25.6599 17.1801 25.5699 17.1401 25.5699 17.0901V16.7401C25.5699 16.6401 25.6499 16.5601 25.7499 16.5601H27.6699C27.7699 16.5601 27.8599 16.6401 27.8599 16.7401V17.0901C27.8599 17.0901 27.8199 17.1801 27.7699 17.1801ZM25.7499 17.0001H27.6799V16.7401H25.7499V17.0001ZM22.3299 17.1801H20.2199C20.2199 17.1801 20.1299 17.1401 20.1299 17.0901V16.7401C20.1299 16.6401 20.2099 16.5601 20.3099 16.5601H22.2299C22.3299 16.5601 22.4199 16.6401 22.4199 16.7401V17.0901C22.4199 17.0901 22.3799 17.1801 22.3299 17.1801ZM20.3099 17.0001H22.2399V16.7401H20.3099V17.0001Z" fill="#231814"/>
<path d="M27.7698 17.22H25.6598C25.5898 17.22 25.5298 17.16 25.5298 17.09V16.74C25.5298 16.62 25.6298 16.52 25.7498 16.52H27.6698C27.7898 16.52 27.8998 16.62 27.8998 16.74V17.09C27.8998 17.16 27.8398 17.22 27.7698 17.22ZM25.7498 16.6C25.6698 16.6 25.6098 16.66 25.6098 16.74V17.09C25.6098 17.09 25.6298 17.14 25.6598 17.14H27.7698C27.7698 17.14 27.8198 17.12 27.8198 17.09V16.74C27.8198 16.66 27.7498 16.6 27.6698 16.6H25.7498ZM22.3298 17.22H20.2198C20.1498 17.22 20.0898 17.16 20.0898 17.09V16.74C20.0898 16.62 20.1898 16.52 20.3098 16.52H22.2298C22.3498 16.52 22.4598 16.62 22.4598 16.74V17.09C22.4598 17.16 22.3998 17.22 22.3298 17.22ZM20.3098 16.6C20.2298 16.6 20.1698 16.66 20.1698 16.74V17.09C20.1698 17.09 20.1898 17.14 20.2198 17.14H22.3298C22.3298 17.14 22.3798 17.12 22.3798 17.09V16.74C22.3798 16.66 22.3098 16.6 22.2298 16.6H20.3098ZM27.7098 17.04H25.6998V16.7H27.7098V17.04ZM25.7798 16.96H27.6298V16.78H25.7798V16.96ZM22.2698 17.04H20.2598V16.7H22.2698V17.04ZM20.3398 16.96H22.1898V16.78H20.3398V16.96Z" fill="#231814"/>
<path d="M36.38 33.61H11.62C11.12 33.61 10.71 33.2 10.71 32.7V17.92C10.71 17.42 11.12 17.01 11.62 17.01H16.01C16.01 17.01 16.1 17.05 16.1 17.1C16.1 17.15 16.06 17.19 16.01 17.19H12.02V33.44H35.97V17.19H31.98C31.93 17.19 31.89 17.15 31.89 17.1C31.89 17.05 31.93 17.01 31.98 17.01H36.38C36.88 17.01 37.29 17.42 37.29 17.92V32.7C37.29 33.2 36.88 33.61 36.38 33.61ZM36.15 33.43H36.38C36.78 33.43 37.1 33.1 37.1 32.7V17.92C37.1 17.52 36.78 17.19 36.38 17.19H36.15V33.44V33.43ZM11.62 17.18C11.22 17.18 10.9 17.51 10.9 17.91V32.69C10.9 33.09 11.22 33.42 11.62 33.42H11.84V17.17H11.62V17.18ZM30.34 17.18H17.65C17.6 17.18 17.56 17.14 17.56 17.09C17.56 17.04 17.6 17 17.65 17H30.34C30.34 17 30.43 17.04 30.43 17.09C30.43 17.14 30.39 17.18 30.34 17.18Z" fill="#231814"/>
<path d="M36.3799 33.65H11.6199C11.0999 33.65 10.6699 33.22 10.6699 32.7V17.92C10.6699 17.39 11.0899 16.97 11.6199 16.97H16.0099C16.0799 16.97 16.1399 17.03 16.1399 17.1C16.1399 17.17 16.0799 17.23 16.0099 17.23H12.0599V33.4H35.9299V17.23H31.9799C31.9099 17.23 31.8499 17.17 31.8499 17.1C31.8499 17.03 31.9099 16.97 31.9799 16.97H36.3799C36.8999 16.97 37.3299 17.4 37.3299 17.92V32.7C37.3299 33.23 36.9099 33.65 36.3799 33.65ZM11.6199 17.04C11.1399 17.04 10.7599 17.43 10.7599 17.91V32.69C10.7599 33.17 11.1499 33.56 11.6199 33.56H36.3699C36.8499 33.56 37.2299 33.17 37.2299 32.69V17.91C37.2299 17.43 36.8399 17.04 36.3699 17.04H31.9699C31.9699 17.04 31.9199 17.06 31.9199 17.09C31.9199 17.12 31.9399 17.14 31.9699 17.14H35.9999V33.47H11.9799V17.14H16.0099C16.0099 17.14 16.0599 17.12 16.0599 17.09C16.0599 17.06 16.0399 17.04 16.0099 17.04H11.6199ZM36.3699 33.47H36.0999V17.14H36.3699C36.7899 17.14 37.1299 17.49 37.1299 17.91V32.69C37.1299 33.12 36.7899 33.46 36.3699 33.46V33.47ZM36.1799 33.39H36.3699C36.7499 33.39 37.0499 33.08 37.0499 32.7V17.92C37.0499 17.54 36.7399 17.23 36.3699 17.23H36.1799V33.4V33.39ZM11.8699 33.47H11.6099C11.1899 33.47 10.8499 33.12 10.8499 32.7V17.92C10.8499 17.49 11.1899 17.15 11.6099 17.15H11.8699V33.48V33.47ZM11.6099 17.22C11.2299 17.22 10.9299 17.53 10.9299 17.91V32.69C10.9299 33.07 11.2399 33.38 11.6099 33.38H11.7899V17.21H11.6099V17.22ZM30.3299 17.22H17.6399C17.5699 17.22 17.5099 17.16 17.5099 17.09C17.5099 17.02 17.5699 16.96 17.6399 16.96H30.3299C30.3999 16.96 30.4599 17.02 30.4599 17.09C30.4599 17.16 30.3999 17.22 30.3299 17.22ZM17.6399 17.04C17.6399 17.04 17.5899 17.06 17.5899 17.09C17.5899 17.12 17.6099 17.14 17.6399 17.14H30.3299C30.3299 17.14 30.3799 17.12 30.3799 17.09C30.3799 17.06 30.3599 17.04 30.3299 17.04H17.6399Z" fill="#231814"/>
<path d="M25.9997 15.6498H21.9597C21.8297 15.6498 21.7197 15.5398 21.7197 15.3998V14.5698C21.7197 14.4298 21.8297 14.3198 21.9597 14.3198H25.9997C26.1297 14.3198 26.2397 14.4298 26.2397 14.5698V15.3998C26.2397 15.5398 26.1297 15.6498 25.9997 15.6498ZM21.9597 14.4998C21.9597 14.4998 21.8997 14.5298 21.8997 14.5698V15.3998C21.8997 15.3998 21.9297 15.4698 21.9597 15.4698H25.9997C25.9997 15.4698 26.0597 15.4398 26.0597 15.3998V14.5698C26.0597 14.5698 26.0297 14.4998 25.9997 14.4998H21.9597Z" fill="#231814"/>
<path d="M25.9997 15.6898H21.9597C21.8097 15.6898 21.6797 15.5598 21.6797 15.3998V14.5698C21.6797 14.4098 21.8097 14.2798 21.9597 14.2798H25.9997C26.1497 14.2798 26.2797 14.4098 26.2797 14.5698V15.3998C26.2797 15.5598 26.1497 15.6898 25.9997 15.6898ZM21.9597 14.3598C21.8497 14.3598 21.7597 14.4498 21.7597 14.5698V15.3998C21.7597 15.5198 21.8497 15.6098 21.9597 15.6098H25.9997C26.1097 15.6098 26.1997 15.5198 26.1997 15.3998V14.5698C26.1997 14.4498 26.1097 14.3598 25.9997 14.3598H21.9597ZM25.9997 15.5098H21.9597C21.9597 15.5098 21.8597 15.4698 21.8597 15.3998V14.5698C21.8597 14.5098 21.8997 14.4598 21.9597 14.4598H25.9997C26.0497 14.4598 26.0997 14.5098 26.0997 14.5698V15.3998C26.0997 15.4598 26.0597 15.5098 25.9997 15.5098ZM21.9597 14.5398C21.9597 14.5398 21.9397 14.5498 21.9397 14.5698V15.3998C21.9397 15.3998 21.9497 15.4298 21.9597 15.4298H25.9997C25.9997 15.4298 26.0197 15.4298 26.0197 15.3998V14.5698C26.0197 14.5698 26.0097 14.5398 25.9997 14.5398H21.9597Z" fill="#231814"/>
<path d="M17.6499 33.6795H16.0099C15.9599 33.6795 15.9199 33.6395 15.9199 33.5895V28.5995C15.9199 28.5995 15.9399 28.5295 15.9799 28.5195C16.0099 28.5095 16.0499 28.5195 16.0799 28.5395L16.8399 29.2995L17.5899 28.5395C17.5899 28.5395 17.6599 28.5095 17.6899 28.5195C17.7199 28.5295 17.7499 28.5695 17.7499 28.5995V33.5895C17.7499 33.5895 17.7099 33.6795 17.6599 33.6795H17.6499ZM16.0999 33.4995H17.5599V28.8195L16.8999 29.4895C16.8999 29.4895 16.8599 29.5195 16.8399 29.5195C16.8399 29.5195 16.7899 29.5195 16.7799 29.4895L16.1099 28.8195V33.4995H16.0999Z" fill="#231814"/>
<path d="M17.6499 33.7197H16.0099C15.9399 33.7197 15.8799 33.6597 15.8799 33.5897V28.5997C15.8799 28.5497 15.9099 28.4997 15.9599 28.4797C16.0099 28.4597 16.0599 28.4697 16.0999 28.5097L16.8299 29.2397L17.5499 28.5097C17.5499 28.5097 17.6399 28.4597 17.6899 28.4797C17.7399 28.4997 17.7699 28.5497 17.7699 28.5997V33.5897C17.7699 33.6597 17.7099 33.7197 17.6399 33.7197H17.6499ZM16.0099 28.5497C16.0099 28.5497 15.9999 28.5497 15.9899 28.5497C15.9699 28.5497 15.9599 28.5797 15.9599 28.5997V33.5897C15.9599 33.5897 15.9799 33.6397 16.0099 33.6397H17.6499C17.6499 33.6397 17.6999 33.6197 17.6999 33.5897V28.5997C17.6999 28.5997 17.6899 28.5597 17.6699 28.5497C17.6499 28.5497 17.6299 28.5497 17.6199 28.5597L16.8399 29.3497L16.0499 28.5597C16.0499 28.5597 16.0299 28.5397 16.0199 28.5397L16.0099 28.5497ZM17.5999 33.5397H16.0599V28.7197L16.7999 29.4597C16.7999 29.4597 16.8499 29.4797 16.8699 29.4597L17.5999 28.7197V33.5397ZM16.1399 33.4597H17.5199V28.9197L16.9299 29.5197C16.9299 29.5197 16.7899 29.5697 16.7399 29.5197L16.1399 28.9197V33.4597Z" fill="#231814"/>
<path d="M17.79 26.07H17.07C17.07 26.07 16.98 26.03 16.98 25.98V25.49C16.98 25.49 17.02 25.4 17.07 25.4H17.49V24.15H16.17V25.4H16.59C16.64 25.4 16.68 25.44 16.68 25.49V25.98C16.68 25.98 16.64 26.07 16.59 26.07H15.87C15.66 26.07 15.5 25.91 15.5 25.7V23.84C15.5 23.63 15.66 23.46 15.87 23.46H17.79C18 23.46 18.16 23.63 18.16 23.84V25.7C18.16 25.91 18 26.07 17.79 26.07ZM17.16 25.89H17.79C17.9 25.89 17.98 25.81 17.98 25.7V23.84C17.98 23.73 17.9 23.64 17.79 23.64H15.87C15.76 23.64 15.68 23.73 15.68 23.84V25.7C15.68 25.81 15.76 25.89 15.87 25.89H16.5V25.58H16.08C16.08 25.58 15.99 25.54 15.99 25.49V24.05C15.99 24.05 16.03 23.96 16.08 23.96H17.58C17.63 23.96 17.67 24 17.67 24.05V25.49C17.67 25.49 17.63 25.58 17.58 25.58H17.16V25.89Z" fill="#231814"/>
<path d="M17.79 26.1099H17.07C17 26.1099 16.94 26.0499 16.94 25.9799V25.4899C16.94 25.4199 17 25.3599 17.07 25.3599H17.45V24.1899H16.21V25.3599H16.59C16.66 25.3599 16.72 25.4199 16.72 25.4899V25.9799C16.72 26.0499 16.66 26.1099 16.59 26.1099H15.87C15.64 26.1099 15.46 25.9299 15.46 25.6999V23.8399C15.46 23.5999 15.64 23.4199 15.87 23.4199H17.79C18.02 23.4199 18.2 23.6099 18.2 23.8399V25.6999C18.2 25.9299 18.02 26.1099 17.79 26.1099ZM17.07 25.4399C17.07 25.4399 17.02 25.4599 17.02 25.4899V25.9799C17.02 25.9799 17.04 26.0299 17.07 26.0299H17.79C17.98 26.0299 18.12 25.8899 18.12 25.6999V23.8399C18.12 23.6499 17.98 23.4999 17.79 23.4999H15.87C15.69 23.4999 15.54 23.6499 15.54 23.8399V25.6999C15.54 25.8899 15.68 26.0299 15.87 26.0299H16.59C16.59 26.0299 16.64 26.0099 16.64 25.9799V25.4899C16.64 25.4899 16.62 25.4399 16.59 25.4399H16.13V24.1099H17.53V25.4399H17.07ZM17.79 25.9299H17.12V25.5399H17.58C17.58 25.5399 17.63 25.5199 17.63 25.4899V24.0499C17.63 24.0499 17.61 23.9999 17.58 23.9999H16.08C16.08 23.9999 16.03 24.0199 16.03 24.0499V25.4899C16.03 25.4899 16.05 25.5399 16.08 25.5399H16.54V25.9299H15.87C15.74 25.9299 15.64 25.8299 15.64 25.6999V23.8399C15.64 23.6999 15.74 23.5999 15.87 23.5999H17.79C17.92 23.5999 18.02 23.7099 18.02 23.8399V25.6999C18.02 25.8299 17.92 25.9299 17.79 25.9299ZM17.21 25.8499H17.79C17.88 25.8499 17.94 25.7899 17.94 25.6999V23.8399C17.94 23.7499 17.88 23.6799 17.79 23.6799H15.87C15.79 23.6799 15.72 23.7499 15.72 23.8399V25.6999C15.72 25.7899 15.78 25.8499 15.87 25.8499H16.45V25.6199H16.07C16 25.6199 15.94 25.5599 15.94 25.4899V24.0499C15.94 23.9799 16 23.9199 16.07 23.9199H17.57C17.64 23.9199 17.7 23.9799 17.7 24.0499V25.4899C17.7 25.5599 17.64 25.6199 17.57 25.6199H17.19V25.8499H17.21Z" fill="#231814"/>
<path d="M16.84 26.4899C16.65 26.4899 16.5 26.3399 16.5 26.1599V24.9399C16.5 24.7599 16.65 24.6099 16.84 24.6099C17.03 24.6099 17.17 24.7599 17.17 24.9399V26.1599C17.17 26.3399 17.02 26.4899 16.84 26.4899ZM16.84 24.7799C16.75 24.7799 16.68 24.8499 16.68 24.9299V26.1499C16.68 26.2299 16.75 26.2999 16.84 26.2999C16.92 26.2999 16.99 26.2299 16.99 26.1499V24.9299C16.99 24.8499 16.92 24.7799 16.84 24.7799Z" fill="#231814"/>
<path d="M16.84 26.5298C16.63 26.5298 16.46 26.3598 16.46 26.1598V24.9398C16.46 24.7298 16.63 24.5698 16.84 24.5698C17.05 24.5698 17.21 24.7398 17.21 24.9398V26.1598C17.21 26.3598 17.04 26.5298 16.84 26.5298ZM16.84 24.6398C16.68 24.6398 16.54 24.7698 16.54 24.9298V26.1498C16.54 26.3098 16.67 26.4398 16.84 26.4398C17.01 26.4398 17.13 26.3098 17.13 26.1498V24.9298C17.13 24.7698 17 24.6398 16.84 24.6398ZM16.84 26.3498C16.73 26.3498 16.64 26.2598 16.64 26.1598V24.9398C16.64 24.8298 16.73 24.7498 16.84 24.7498C16.94 24.7498 17.03 24.8398 17.03 24.9398V26.1598C17.03 26.2598 16.94 26.3498 16.84 26.3498ZM16.84 24.8198C16.78 24.8198 16.72 24.8698 16.72 24.9298V26.1498C16.72 26.2098 16.77 26.2598 16.84 26.2598C16.9 26.2598 16.95 26.2098 16.95 26.1498V24.9298C16.95 24.8698 16.9 24.8198 16.84 24.8198Z" fill="#231814"/>
<path d="M16.84 27.8799C16.64 27.8799 16.48 27.7199 16.48 27.5199C16.48 27.3199 16.64 27.1699 16.84 27.1699C17.04 27.1699 17.19 27.3199 17.19 27.5199C17.19 27.7199 17.03 27.8799 16.84 27.8799ZM16.84 27.3499C16.74 27.3499 16.66 27.4199 16.66 27.5199C16.66 27.6199 16.74 27.6999 16.84 27.6999C16.93 27.6999 17.01 27.6199 17.01 27.5199C17.01 27.4199 16.94 27.3499 16.84 27.3499Z" fill="#231814"/>
<path d="M16.8399 27.9199C16.6199 27.9199 16.4399 27.7399 16.4399 27.5199C16.4399 27.2999 16.6199 27.1299 16.8399 27.1299C17.0599 27.1299 17.2299 27.2999 17.2299 27.5199C17.2299 27.7399 17.0599 27.9199 16.8399 27.9199ZM16.8399 27.2099C16.6599 27.2099 16.5199 27.3499 16.5199 27.5199C16.5199 27.6899 16.6599 27.8399 16.8399 27.8399C17.0199 27.8399 17.1499 27.6999 17.1499 27.5199C17.1499 27.3399 17.0099 27.2099 16.8399 27.2099ZM16.8399 27.7399C16.7199 27.7399 16.6199 27.6399 16.6199 27.5199C16.6199 27.3999 16.7099 27.3099 16.8399 27.3099C16.9599 27.3099 17.0499 27.3999 17.0499 27.5199C17.0499 27.6399 16.9499 27.7399 16.8399 27.7399ZM16.8399 27.3899C16.7599 27.3899 16.6999 27.4399 16.6999 27.5199C16.6999 27.5999 16.7599 27.6599 16.8399 27.6599C16.9099 27.6599 16.9699 27.5999 16.9699 27.5199C16.9699 27.4399 16.9099 27.3899 16.8399 27.3899Z" fill="#231814"/>
<path d="M31.97 33.6795H30.34C30.29 33.6795 30.25 33.6395 30.25 33.5895V28.5995C30.25 28.5995 30.27 28.5295 30.31 28.5195C30.34 28.5095 30.38 28.5195 30.41 28.5395L31.16 29.2995L31.91 28.5395C31.91 28.5395 31.98 28.5095 32.01 28.5195C32.04 28.5295 32.07 28.5695 32.07 28.5995V33.5895C32.07 33.5895 32.03 33.6795 31.98 33.6795H31.97ZM30.43 33.4995H31.88V28.8195L31.22 29.4895C31.22 29.4895 31.13 29.5195 31.09 29.4895L30.43 28.8195V33.4995Z" fill="#231814"/>
<path d="M31.97 33.7197H30.34C30.27 33.7197 30.21 33.6597 30.21 33.5897V28.5997C30.21 28.5497 30.24 28.4997 30.29 28.4797C30.34 28.4597 30.4 28.4797 30.43 28.5097L31.15 29.2397L31.87 28.5097C31.87 28.5097 31.97 28.4597 32.01 28.4797C32.06 28.4997 32.09 28.5497 32.09 28.5997V33.5897C32.09 33.6597 32.03 33.7197 31.96 33.7197H31.97ZM30.34 28.5497C30.34 28.5497 30.33 28.5497 30.32 28.5497C30.3 28.5497 30.29 28.5797 30.29 28.5997V33.5897C30.29 33.5897 30.31 33.6397 30.34 33.6397H31.97C31.97 33.6397 32.02 33.6197 32.02 33.5897V28.5997C32.02 28.5997 32.01 28.5597 31.99 28.5497C31.97 28.5497 31.95 28.5497 31.94 28.5597L31.16 29.3497L30.38 28.5597C30.38 28.5597 30.36 28.5497 30.34 28.5497ZM31.92 33.5397H30.39V28.7197L31.12 29.4597C31.12 29.4597 31.17 29.4797 31.19 29.4597L31.92 28.7197V33.5397ZM30.47 33.4597H31.84V28.9197L31.25 29.5197C31.2 29.5697 31.11 29.5697 31.06 29.5197L30.47 28.9197V33.4597Z" fill="#231814"/>
<path d="M16.8402 29.5197C16.8402 29.5197 16.7902 29.5197 16.7802 29.4897L15.9602 28.6697C15.9602 28.6697 15.9302 28.6297 15.9302 28.6097V25.9897C15.9302 25.9897 15.9702 25.8997 16.0202 25.8997H16.6002C16.6502 25.8997 16.6902 25.9397 16.6902 25.9897V26.1697C16.6902 26.2497 16.7602 26.3197 16.8502 26.3197C16.9302 26.3197 17.0002 26.2497 17.0002 26.1697V25.9897C17.0002 25.9897 17.0402 25.8997 17.0902 25.8997H17.6702C17.6702 25.8997 17.7602 25.9397 17.7602 25.9897V28.6097C17.7602 28.6097 17.7602 28.6597 17.7302 28.6697L16.9202 29.4897C16.9202 29.4897 16.8802 29.5197 16.8602 29.5197H16.8402ZM16.1102 28.5697L16.8402 29.2997L17.5602 28.5697V26.0797H17.1602V26.1697C17.1602 26.3497 17.0102 26.4997 16.8302 26.4997C16.6502 26.4997 16.4902 26.3497 16.4902 26.1697V26.0797H16.0902V28.5697H16.1102ZM31.1602 29.5197C31.1602 29.5197 31.1102 29.5197 31.1002 29.4897L30.2902 28.6697C30.2902 28.6697 30.2602 28.6297 30.2602 28.6097V25.9897C30.2602 25.9897 30.3002 25.8997 30.3502 25.8997H30.9202C30.9702 25.8997 31.0102 25.9397 31.0102 25.9897V26.1697C31.0102 26.2497 31.0802 26.3197 31.1702 26.3197C31.2502 26.3197 31.3202 26.2497 31.3202 26.1697V25.9897C31.3202 25.9897 31.3602 25.8997 31.4102 25.8997H31.9902C31.9902 25.8997 32.0802 25.9397 32.0802 25.9897V28.6097C32.0802 28.6097 32.0802 28.6597 32.0502 28.6697L31.2402 29.4897C31.2402 29.4897 31.2002 29.5197 31.1802 29.5197H31.1602ZM30.4402 28.5697L31.1602 29.2997L31.8802 28.5697V26.0797H31.4802V26.1697C31.4802 26.3497 31.3302 26.4997 31.1502 26.4997C30.9602 26.4997 30.8102 26.3497 30.8102 26.1697V26.0797H30.4202V28.5697H30.4402ZM31.9102 25.5897H31.4002C31.4002 25.5897 31.3102 25.5497 31.3102 25.4997V24.9497C31.3102 24.8697 31.2402 24.7997 31.1602 24.7997C31.0702 24.7997 31.0002 24.8697 31.0002 24.9497V25.4997C31.0002 25.4997 30.9602 25.5897 30.9102 25.5897H30.4102C30.4102 25.5897 30.3202 25.5497 30.3202 25.4997V24.0597C30.3202 24.0597 30.3602 23.9697 30.4102 23.9697H31.9002C31.9002 23.9697 31.9902 24.0097 31.9902 24.0597V25.4997C31.9902 25.4997 31.9502 25.5897 31.9002 25.5897H31.9102ZM31.4902 25.4097H31.8202V24.1597H30.5102V25.4097H30.8302V24.9497C30.8302 24.7697 30.9802 24.6197 31.1702 24.6197C31.3602 24.6197 31.5002 24.7697 31.5002 24.9497V25.4097H31.4902ZM17.5902 25.5897H17.0802C17.0802 25.5897 16.9902 25.5497 16.9902 25.4997V24.9497C16.9902 24.8697 16.9202 24.7997 16.8402 24.7997C16.7502 24.7997 16.6802 24.8697 16.6802 24.9497V25.4997C16.6802 25.4997 16.6402 25.5897 16.5902 25.5897H16.0802C16.0802 25.5897 15.9902 25.5497 15.9902 25.4997V24.0597C15.9902 24.0597 16.0302 23.9697 16.0802 23.9697H17.5802C17.6302 23.9697 17.6702 24.0097 17.6702 24.0597V25.4997C17.6702 25.4997 17.6302 25.5897 17.5802 25.5897H17.5902ZM17.1702 25.4097H17.5002V24.1597H16.1802V25.4097H16.5102V24.9497C16.5102 24.7697 16.6602 24.6197 16.8502 24.6197C17.0402 24.6197 17.1802 24.7697 17.1802 24.9497V25.4097H17.1702ZM31.9802 23.6497H30.3502C30.3002 23.6497 30.2602 23.6097 30.2602 23.5597V17.0397C30.2602 17.0397 30.3002 16.9497 30.3502 16.9497H31.9802C31.9802 16.9497 32.0702 16.9897 32.0702 17.0397V23.5597C32.0702 23.5597 32.0302 23.6497 31.9802 23.6497ZM30.4402 23.4697H31.8902V17.1297H30.4402V23.4697ZM17.6602 23.6497H16.0202C15.9702 23.6497 15.9302 23.6097 15.9302 23.5597V17.0397C15.9302 17.0397 15.9702 16.9497 16.0202 16.9497H17.6602C17.6602 16.9497 17.7502 16.9897 17.7502 17.0397V23.5597C17.7502 23.5597 17.7102 23.6497 17.6602 23.6497ZM16.1102 23.4697H17.5702V17.1297H16.1102V23.4697Z" fill="#231814"/>
<path d="M31.1601 29.5599C31.1601 29.5599 31.0901 29.5499 31.0701 29.5199L30.2501 28.6999C30.2501 28.6999 30.2101 28.6399 30.2101 28.6099V25.9899C30.2101 25.9199 30.2701 25.8599 30.3401 25.8599H30.9101C30.9801 25.8599 31.0401 25.9199 31.0401 25.9899V26.1699C31.0401 26.2299 31.0901 26.2799 31.1601 26.2799C31.2201 26.2799 31.2701 26.2299 31.2701 26.1699V25.9899C31.2701 25.9199 31.3301 25.8599 31.4001 25.8599H31.9801C32.0501 25.8599 32.1101 25.9199 32.1101 25.9899V28.6099C32.1101 28.6099 32.1001 28.6799 32.0701 28.6999L31.2501 29.5199C31.2501 29.5199 31.1901 29.5599 31.1601 29.5599ZM30.3501 25.9399C30.3501 25.9399 30.3001 25.9599 30.3001 25.9899V28.6099C30.3001 28.6099 30.3001 28.6399 30.3101 28.6499L31.1201 29.4699C31.1201 29.4699 31.1701 29.4899 31.1901 29.4699L32.0001 28.6499C32.0001 28.6499 32.0101 28.6299 32.0101 28.6199V25.9999C32.0101 25.9999 31.9901 25.9499 31.9601 25.9499H31.3801C31.3801 25.9499 31.3301 25.9699 31.3301 25.9999V26.1799C31.3301 26.2799 31.2401 26.3699 31.1401 26.3699C31.0301 26.3699 30.9401 26.2799 30.9401 26.1799V25.9999C30.9401 25.9999 30.9201 25.9499 30.8901 25.9499H30.3201L30.3501 25.9399ZM16.8501 29.5599C16.8501 29.5599 16.7801 29.5499 16.7601 29.5199L15.9401 28.6999C15.9401 28.6999 15.9001 28.6399 15.9001 28.6099V25.9899C15.9001 25.9199 15.9601 25.8599 16.0301 25.8599H16.6101C16.6801 25.8599 16.7401 25.9199 16.7401 25.9899V26.1699C16.7401 26.2299 16.7901 26.2799 16.8601 26.2799C16.9201 26.2799 16.9701 26.2299 16.9701 26.1699V25.9899C16.9701 25.9199 17.0301 25.8599 17.1001 25.8599H17.6801C17.7501 25.8599 17.8101 25.9199 17.8101 25.9899V28.6099C17.8101 28.6099 17.8001 28.6799 17.7701 28.6999L16.9501 29.5199C16.9501 29.5199 16.8901 29.5599 16.8601 29.5599H16.8501ZM16.0301 25.9399C16.0301 25.9399 15.9801 25.9599 15.9801 25.9899V28.6099C15.9801 28.6099 15.9801 28.6399 15.9901 28.6499L16.8101 29.4699C16.8101 29.4699 16.8301 29.4799 16.8501 29.4799C16.8501 29.4799 16.8801 29.4799 16.8901 29.4599L17.7001 28.6399C17.7001 28.6399 17.7101 28.6199 17.7101 28.6099V25.9899C17.7101 25.9899 17.6901 25.9399 17.6601 25.9399H17.0801C17.0801 25.9399 17.0301 25.9599 17.0301 25.9899V26.1699C17.0301 26.2699 16.9401 26.3599 16.8401 26.3599C16.7301 26.3599 16.6401 26.2699 16.6401 26.1699V25.9899C16.6401 25.9899 16.6201 25.9399 16.5901 25.9399H16.0101H16.0301ZM16.8501 29.3599L16.0801 28.5899V26.0399H16.5601V26.1699C16.5601 26.3299 16.6901 26.4599 16.8601 26.4599C17.0301 26.4599 17.1501 26.3299 17.1501 26.1699V26.0399H17.6301V28.5899H17.6201L16.8701 29.3599H16.8501ZM16.1601 28.5499L16.8501 29.2399L17.5301 28.5499V26.1099H17.2201V26.1599C17.2201 26.3599 17.0501 26.5299 16.8501 26.5299C16.6501 26.5299 16.4701 26.3599 16.4701 26.1599V26.1099H16.1501V28.5399L16.1601 28.5499ZM31.1701 29.3599L30.4101 28.5899V26.0399H30.8801V26.1699C30.8801 26.3299 31.0101 26.4599 31.1801 26.4599C31.3501 26.4599 31.4701 26.3299 31.4701 26.1699V26.0399H31.9501V28.5899H31.9401L31.1901 29.3599H31.1701ZM30.4901 28.5499L31.1701 29.2399L31.8501 28.5499V26.1099H31.5301V26.1599C31.5301 26.3599 31.3601 26.5299 31.1601 26.5299C30.9601 26.5299 30.7801 26.3599 30.7801 26.1599V26.1099H30.4801V28.5499H30.4901ZM31.9201 25.6199H31.4101C31.3401 25.6199 31.2801 25.5599 31.2801 25.4899V24.9399C31.2801 24.8799 31.2301 24.8299 31.1701 24.8299C31.1101 24.8299 31.0501 24.8799 31.0501 24.9399V25.4899C31.0501 25.5599 30.9901 25.6199 30.9201 25.6199H30.4201C30.3501 25.6199 30.2901 25.5599 30.2901 25.4899V24.0499C30.2901 23.9799 30.3501 23.9199 30.4201 23.9199H31.9101C31.9801 23.9199 32.0401 23.9799 32.0401 24.0499V25.4899C32.0401 25.5599 31.9801 25.6199 31.9101 25.6199H31.9201ZM31.1701 24.7499C31.2701 24.7499 31.3601 24.8399 31.3601 24.9399V25.4899C31.3601 25.4899 31.3801 25.5399 31.4101 25.5399H31.9201C31.9201 25.5399 31.9701 25.5199 31.9701 25.4899V24.0499C31.9701 24.0499 31.9501 23.9999 31.9201 23.9999H30.4301C30.4301 23.9999 30.3801 24.0199 30.3801 24.0499V25.4899C30.3801 25.4899 30.4001 25.5399 30.4301 25.5399H30.9301C30.9301 25.5399 30.9801 25.5199 30.9801 25.4899V24.9399C30.9801 24.8299 31.0701 24.7499 31.1801 24.7499H31.1701ZM17.6001 25.6199H17.0901C17.0201 25.6199 16.9601 25.5599 16.9601 25.4899V24.9399C16.9601 24.8799 16.9101 24.8299 16.8501 24.8299C16.7901 24.8299 16.7301 24.8799 16.7301 24.9399V25.4899C16.7301 25.5599 16.6701 25.6199 16.6001 25.6199H16.0901C16.0201 25.6199 15.9601 25.5599 15.9601 25.4899V24.0499C15.9601 23.9799 16.0201 23.9199 16.0901 23.9199H17.5901C17.6601 23.9199 17.7201 23.9799 17.7201 24.0499V25.4899C17.7201 25.5599 17.6601 25.6199 17.5901 25.6199H17.6001ZM16.8501 24.7499C16.9501 24.7499 17.0401 24.8399 17.0401 24.9399V25.4899C17.0401 25.4899 17.0601 25.5399 17.0901 25.5399H17.6001C17.6001 25.5399 17.6501 25.5199 17.6501 25.4899V24.0499C17.6501 24.0499 17.6301 23.9999 17.6001 23.9999H16.1001C16.1001 23.9999 16.0501 24.0199 16.0501 24.0499V25.4899C16.0501 25.4899 16.0701 25.5399 16.1001 25.5399H16.6101C16.6101 25.5399 16.6601 25.5199 16.6601 25.4899V24.9399C16.6601 24.8299 16.7501 24.7499 16.8601 24.7499H16.8501ZM31.8601 25.4399H31.4501V24.9399C31.4501 24.7799 31.3201 24.6499 31.1601 24.6499C31.0001 24.6499 30.8601 24.7799 30.8601 24.9399V25.4399H30.4601V24.1099H31.8501V25.4399H31.8601ZM31.5301 25.3599H31.7801V24.1899H30.5501V25.3599H30.7901V24.9399C30.7901 24.7299 30.9601 24.5699 31.1701 24.5699C31.3801 24.5699 31.5401 24.7399 31.5401 24.9399V25.3599H31.5301ZM17.5401 25.4399H17.1301V24.9399C17.1301 24.7799 17.0001 24.6499 16.8401 24.6499C16.6801 24.6499 16.5401 24.7799 16.5401 24.9399V25.4399H16.1301V24.1099H17.5301V25.4399H17.5401ZM17.2101 25.3599H17.4601V24.1899H16.2201V25.3599H16.4701V24.9399C16.4701 24.7299 16.6401 24.5699 16.8501 24.5699C17.0601 24.5699 17.2201 24.7399 17.2201 24.9399V25.3599H17.2101ZM31.9801 23.6799H30.3501C30.2801 23.6799 30.2201 23.6199 30.2201 23.5499V17.0299C30.2201 16.9599 30.2801 16.8999 30.3501 16.8999H31.9801C32.0501 16.8999 32.1101 16.9599 32.1101 17.0299V23.5499C32.1101 23.6199 32.0501 23.6799 31.9801 23.6799ZM30.3501 16.9799C30.3501 16.9799 30.3001 16.9999 30.3001 17.0299V23.5499C30.3001 23.5499 30.3201 23.5999 30.3501 23.5999H31.9801C31.9801 23.5999 32.0301 23.5799 32.0301 23.5499V17.0299C32.0301 17.0299 32.0101 16.9799 31.9801 16.9799H30.3501ZM17.6601 23.6799H16.0201C15.9501 23.6799 15.8901 23.6199 15.8901 23.5499V17.0299C15.8901 16.9599 15.9501 16.8999 16.0201 16.8999H17.6601C17.7301 16.8999 17.7901 16.9599 17.7901 17.0299V23.5499C17.7901 23.6199 17.7301 23.6799 17.6601 23.6799ZM16.0201 16.9799C16.0201 16.9799 15.9701 16.9999 15.9701 17.0299V23.5499C15.9701 23.5499 15.9901 23.5999 16.0201 23.5999H17.6601C17.6601 23.5999 17.7101 23.5799 17.7101 23.5499V17.0299C17.7101 17.0299 17.6901 16.9799 17.6601 16.9799H16.0201ZM31.9301 23.4999H30.4001V17.0799H31.9301V23.4999ZM30.4801 23.4199H31.8501V17.1599H30.4801V23.4199ZM17.6101 23.4999H16.0701V17.0799H17.6101V23.4999ZM16.1501 23.4199H17.5301V17.1599H16.1501V23.4199Z" fill="#231814"/>
<path d="M32.1098 26.07H31.3898C31.3898 26.07 31.2998 26.03 31.2998 25.98V25.49C31.2998 25.49 31.3398 25.4 31.3898 25.4H31.8098V24.15H30.4998V25.4H30.9098C30.9598 25.4 30.9998 25.44 30.9998 25.49V25.98C30.9998 25.98 30.9598 26.07 30.9098 26.07H30.1898C29.9898 26.07 29.8198 25.9 29.8198 25.7V23.84C29.8198 23.63 29.9898 23.46 30.1898 23.46H32.1098C32.3198 23.46 32.4898 23.63 32.4898 23.84V25.7C32.4898 25.91 32.3198 26.07 32.1098 26.07ZM31.4798 25.89H32.1098C32.2198 25.89 32.3098 25.81 32.3098 25.7V23.84C32.3098 23.73 32.2198 23.64 32.1098 23.64H30.1898C30.0898 23.64 29.9998 23.73 29.9998 23.84V25.7C29.9998 25.81 30.0798 25.89 30.1898 25.89H30.8198V25.58H30.4098C30.4098 25.58 30.3198 25.54 30.3198 25.49V24.05C30.3198 24.05 30.3598 23.96 30.4098 23.96H31.8998C31.8998 23.96 31.9898 24 31.9898 24.05V25.49C31.9898 25.49 31.9498 25.58 31.8998 25.58H31.4798V25.89Z" fill="#231814"/>
<path d="M32.1098 26.1099H31.3898C31.3198 26.1099 31.2598 26.0499 31.2598 25.9799V25.4899C31.2598 25.4199 31.3198 25.3599 31.3898 25.3599H31.7698V24.1899H30.5398V25.3599H30.9098C30.9798 25.3599 31.0398 25.4199 31.0398 25.4899V25.9799C31.0398 26.0499 30.9798 26.1099 30.9098 26.1099H30.1898C29.9598 26.1099 29.7798 25.9299 29.7798 25.6999V23.8399C29.7798 23.6099 29.9698 23.4199 30.1898 23.4199H32.1098C32.3398 23.4199 32.5298 23.6099 32.5298 23.8399V25.6999C32.5298 25.9299 32.3498 26.1099 32.1098 26.1099ZM31.3898 25.4399C31.3898 25.4399 31.3398 25.4599 31.3398 25.4899V25.9799C31.3398 25.9799 31.3598 26.0299 31.3898 26.0299H32.1098C32.2998 26.0299 32.4498 25.8799 32.4498 25.6999V23.8399C32.4498 23.6499 32.2998 23.4999 32.1098 23.4999H30.1898C30.0098 23.4999 29.8598 23.6599 29.8598 23.8399V25.6999C29.8598 25.8799 30.0098 26.0299 30.1898 26.0299H30.9098C30.9098 26.0299 30.9598 26.0099 30.9598 25.9799V25.4899C30.9598 25.4899 30.9398 25.4399 30.9098 25.4399H30.4598V24.1099H31.8498V25.4399H31.3898ZM32.1098 25.9299H31.4398V25.5399H31.8998C31.8998 25.5399 31.9498 25.5199 31.9498 25.4899V24.0499C31.9498 24.0499 31.9298 23.9999 31.8998 23.9999H30.4098C30.4098 23.9999 30.3598 24.0199 30.3598 24.0499V25.4899C30.3598 25.4899 30.3798 25.5399 30.4098 25.5399H30.8598V25.9299H30.1898C30.0598 25.9299 29.9598 25.8299 29.9598 25.6999V23.8399C29.9598 23.7099 30.0598 23.5999 30.1898 23.5999H32.1098C32.2398 23.5999 32.3498 23.7099 32.3498 23.8399V25.6999C32.3498 25.8299 32.2498 25.9299 32.1098 25.9299ZM31.5298 25.8499H32.1098C32.1998 25.8499 32.2698 25.7899 32.2698 25.6999V23.8399C32.2698 23.7499 32.1998 23.6799 32.1098 23.6799H30.1898C30.1098 23.6799 30.0398 23.7499 30.0398 23.8399V25.6999C30.0398 25.7799 30.1098 25.8499 30.1898 25.8499H30.7698V25.6199H30.3998C30.3298 25.6199 30.2698 25.5599 30.2698 25.4899V24.0499C30.2698 23.9799 30.3298 23.9199 30.3998 23.9199H31.8898C31.9598 23.9199 32.0198 23.9799 32.0198 24.0499V25.4899C32.0198 25.5599 31.9598 25.6199 31.8898 25.6199H31.5098V25.8499H31.5298Z" fill="#231814"/>
<path d="M31.1598 26.4899C30.9698 26.4899 30.8198 26.3399 30.8198 26.1599V24.9399C30.8198 24.7599 30.9698 24.6099 31.1598 24.6099C31.3498 24.6099 31.4898 24.7599 31.4898 24.9399V26.1599C31.4898 26.3399 31.3398 26.4899 31.1598 26.4899ZM31.1598 24.7799C31.0698 24.7799 30.9998 24.8499 30.9998 24.9299V26.1499C30.9998 26.2299 31.0698 26.2999 31.1598 26.2999C31.2398 26.2999 31.3098 26.2299 31.3098 26.1499V24.9299C31.3098 24.8499 31.2398 24.7799 31.1598 24.7799Z" fill="#231814"/>
<path d="M31.1598 26.5298C30.9498 26.5298 30.7798 26.3598 30.7798 26.1598V24.9398C30.7798 24.7298 30.9498 24.5698 31.1598 24.5698C31.3698 24.5698 31.5298 24.7398 31.5298 24.9398V26.1598C31.5298 26.3598 31.3598 26.5298 31.1598 26.5298ZM31.1598 24.6398C30.9998 24.6398 30.8598 24.7698 30.8598 24.9298V26.1498C30.8598 26.3098 30.9898 26.4398 31.1598 26.4398C31.3298 26.4398 31.4498 26.3098 31.4498 26.1498V24.9298C31.4498 24.7698 31.3198 24.6398 31.1598 24.6398ZM31.1598 26.3498C31.0498 26.3498 30.9598 26.2598 30.9598 26.1598V24.9398C30.9598 24.8298 31.0498 24.7498 31.1598 24.7498C31.2598 24.7498 31.3498 24.8398 31.3498 24.9398V26.1598C31.3498 26.2598 31.2598 26.3498 31.1598 26.3498ZM31.1598 24.8198C31.0998 24.8198 31.0398 24.8698 31.0398 24.9298V26.1498C31.0398 26.2098 31.0898 26.2598 31.1598 26.2598C31.2198 26.2598 31.2698 26.2098 31.2698 26.1498V24.9298C31.2698 24.8698 31.2198 24.8198 31.1598 24.8198Z" fill="#231814"/>
<path d="M31.1598 27.8799C30.9598 27.8799 30.7998 27.7199 30.7998 27.5199C30.7998 27.3199 30.9598 27.1699 31.1598 27.1699C31.3598 27.1699 31.5098 27.3199 31.5098 27.5199C31.5098 27.7199 31.3598 27.8799 31.1598 27.8799ZM31.1598 27.3499C31.0598 27.3499 30.9798 27.4199 30.9798 27.5199C30.9798 27.6199 31.0598 27.6999 31.1598 27.6999C31.2598 27.6999 31.3298 27.6199 31.3298 27.5199C31.3298 27.4199 31.2598 27.3499 31.1598 27.3499Z" fill="#231814"/>
<path d="M31.1598 27.9199C30.9398 27.9199 30.7598 27.7399 30.7598 27.5199C30.7598 27.2999 30.9398 27.1299 31.1598 27.1299C31.3798 27.1299 31.5498 27.2999 31.5498 27.5199C31.5498 27.7399 31.3798 27.9199 31.1598 27.9199ZM31.1598 27.2099C30.9798 27.2099 30.8398 27.3499 30.8398 27.5199C30.8398 27.6899 30.9798 27.8399 31.1598 27.8399C31.3398 27.8399 31.4698 27.6999 31.4698 27.5199C31.4698 27.3399 31.3398 27.2099 31.1598 27.2099ZM31.1598 27.7399C31.0398 27.7399 30.9398 27.6399 30.9398 27.5199C30.9398 27.3999 31.0298 27.3099 31.1598 27.3099C31.2898 27.3099 31.3698 27.3999 31.3698 27.5199C31.3698 27.6399 31.2798 27.7399 31.1598 27.7399ZM31.1598 27.3899C31.0798 27.3899 31.0198 27.4399 31.0198 27.5199C31.0198 27.5999 31.0798 27.6599 31.1598 27.6599C31.2398 27.6599 31.2898 27.5999 31.2898 27.5199C31.2898 27.4399 31.2398 27.3899 31.1598 27.3899Z" fill="#231814"/>
<path d="M30.2298 26.1102H30.2098C29.9798 26.1102 29.7998 25.9302 29.7998 25.7002V23.8402C29.7998 23.6102 29.9898 23.4202 30.2098 23.4202H30.2298V17.2202H17.7998V23.4202C18.0298 23.4202 18.2098 23.6102 18.2098 23.8402V25.7002C18.2098 25.9302 18.0298 26.1102 17.7998 26.1102V33.3902H30.2298V26.1102Z" fill="#1E64FF"/>
</svg>
