<svg width="48" height="48" viewBox="0 0 48 48" fill="none" xmlns="http://www.w3.org/2000/svg">
<path d="M14.4101 25.29H14.0601V15.25C14.0601 14.44 14.6601 13.77 15.3901 13.77H16.4301C17.1601 13.77 17.7601 14.43 17.7601 15.25V16.3H17.4101V15.25C17.4101 14.63 16.9701 14.12 16.4301 14.12H15.3901C14.8501 14.12 14.4101 14.63 14.4101 15.25V25.29Z" fill="#231814"/>
<path d="M30.8804 32.24H17.1204C15.4104 32.24 13.9304 31.04 13.5804 29.37L12.9204 26.25H35.0904L34.4304 29.37C34.0804 31.04 32.6004 32.24 30.8904 32.24H30.8804Z" fill="white"/>
<path d="M30.8802 32.4098H17.1202C16.2502 32.4098 15.4002 32.1098 14.7302 31.5598C14.0602 31.0098 13.5902 30.2498 13.4102 29.3998L12.7002 26.0698H35.3002L34.5902 29.3998C34.4102 30.2498 33.9402 31.0198 33.2702 31.5598C32.6002 32.1098 31.7502 32.4098 30.8802 32.4098ZM13.1302 26.4198L13.7502 29.3298C13.9102 30.0998 14.3402 30.7998 14.9502 31.2898C15.5602 31.7898 16.3302 32.0598 17.1202 32.0598H30.8802C31.6702 32.0598 32.4402 31.7898 33.0502 31.2898C33.6602 30.7898 34.0902 30.0998 34.2502 29.3298L34.8702 26.4198H13.1302Z" fill="#231814"/>
<path d="M36.0097 25.52H11.9897V26.94H36.0097V25.52Z" fill="#1E64FF"/>
<path d="M36.1798 27.1101H11.8198V25.3501H36.1898V27.1101H36.1798ZM12.1598 26.7601H35.8298V25.6901H12.1698V26.7601H12.1598Z" fill="#231814"/>
<path d="M17.1197 34.0502H16.4697L16.7897 32.2402H18.0697L17.1197 34.0502Z" fill="white"/>
<path d="M17.2298 34.2201H16.2598L16.6398 32.0601H18.3598L17.2298 34.2201ZM16.6798 33.8701H17.0198L17.7898 32.4101H16.9398L16.6798 33.8701Z" fill="#231814"/>
<path d="M30.8802 34.0502H31.5302L31.2202 32.2402H29.9302L30.8802 34.0502Z" fill="white"/>
<path d="M31.7401 34.2201H30.7701L29.6401 32.0601H31.3601L31.7401 34.2201ZM30.9901 33.8701H31.3301L31.0701 32.4101H30.2201L30.9901 33.8701Z" fill="#231814"/>
<path d="M18.7498 18.2298H16.3598C16.1898 18.2298 16.0398 18.1298 15.9698 17.9798C15.8998 17.8298 15.9298 17.6498 16.0398 17.5298L17.2598 16.1898C17.3398 16.0998 17.4598 16.0498 17.5798 16.0498C17.6998 16.0498 17.8098 16.0998 17.8898 16.1898L19.0598 17.5298C19.1698 17.6598 19.1998 17.8298 19.1298 17.9798C19.0598 18.1298 18.9098 18.2298 18.7498 18.2298ZM17.5798 16.3998C17.5798 16.3998 17.5498 16.3998 17.5298 16.4198L16.3098 17.7598C16.3098 17.7598 16.2898 17.8198 16.2998 17.8398C16.2998 17.8598 16.3298 17.8798 16.3698 17.8798H18.7598C18.7598 17.8798 18.8198 17.8498 18.8298 17.8398C18.8298 17.8198 18.8498 17.7898 18.8198 17.7598L17.6498 16.4198C17.6498 16.4198 17.6098 16.3998 17.5998 16.3998H17.5798Z" fill="#231814"/>
<path d="M19.2399 17.8101H15.9399V18.3901H19.2399V17.8101Z" fill="white"/>
<path d="M19.42 18.5601H15.77V17.6401H19.42V18.5601ZM16.12 18.2101H19.07V17.9801H16.12V18.2101Z" fill="#231814"/>
<path d="M34.4001 14.79H27.1401V22.13H34.4001V14.79Z" fill="white"/>
<path d="M34.5802 22.2999H26.9702V14.6099H34.5802V22.2999ZM27.3202 21.9499H34.2302V14.9599H27.3202V21.9499Z" fill="#231814"/>
<path d="M35.09 14.23H26.29V15.15H35.09V14.23Z" fill="white"/>
<path d="M35.0901 15.3201H26.2901C26.1901 15.3201 26.1201 15.2401 26.1201 15.1501V14.2301C26.1201 14.1301 26.2001 14.0601 26.2901 14.0601C26.3801 14.0601 26.4601 14.1401 26.4601 14.2301V14.9801H34.9101V14.2301C34.9101 14.1301 34.9901 14.0601 35.0801 14.0601C35.1701 14.0601 35.2501 14.1401 35.2501 14.2301V15.1501C35.2501 15.2501 35.1701 15.3201 35.0801 15.3201H35.0901Z" fill="#231814"/>
<path d="M34.4001 14.79H27.1401V20.39H34.4001V14.79Z" fill="white"/>
<path d="M34.5802 20.5599H26.9702V14.6099H34.5802V20.5599ZM27.3202 20.2099H34.2302V14.9599H27.3202V20.2099Z" fill="#231814"/>
<path d="M35.6802 14.1598H25.6402C25.5402 14.1598 25.4702 14.0798 25.4702 13.9898C25.4702 13.8998 25.5502 13.8198 25.6402 13.8198H35.6802C35.7802 13.8198 35.8502 13.8998 35.8502 13.9898C35.8502 14.0798 35.7702 14.1598 35.6802 14.1598Z" fill="#231814"/>
</svg>
