<svg width="48" height="48" viewBox="0 0 48 48" fill="none" xmlns="http://www.w3.org/2000/svg">
<path d="M33.0504 18.3999H14.9404V31.5299H33.0504V18.3999Z" fill="#1E64FF"/>
<path d="M33.3002 31.7799H14.7002V18.1499H33.3102V31.7799H33.3002ZM15.1902 31.2899H32.8102V18.6499H15.1902V31.2899Z" fill="#231814"/>
<path d="M18.1002 31.54H16.6802V33.57H18.1002V31.54Z" fill="white"/>
<path d="M18.3599 33.8198H16.4399V31.2998H18.3599V33.8198ZM16.9399 33.3298H17.8699V31.7898H16.9399V33.3298Z" fill="#231814"/>
<path d="M31.4102 31.54H29.9902V33.57H31.4102V31.54Z" fill="white"/>
<path d="M31.6602 33.8198H29.7402V31.2998H31.6602V33.8198ZM30.2402 33.3298H31.1702V31.7898H30.2402V33.3298Z" fill="#231814"/>
<path d="M33.0499 24.7202H14.9399V25.2102H33.0499V24.7202Z" fill="#231814"/>
<path d="M31.8599 17.0298H25.8999V18.2298H31.8599V17.0298Z" fill="white"/>
<path d="M32.0999 18.4798H25.6499V16.7798H32.0999V18.4798ZM26.1399 17.9898H31.5999V17.2798H26.1399V17.9898Z" fill="#231814"/>
<path d="M31.4703 14.4302H25.5103V15.6302H31.4703V14.4302Z" fill="white"/>
<path d="M31.72 15.8802H25.27V14.1802H31.72V15.8802ZM25.76 15.3902H31.22V14.6802H25.76V15.3902Z" fill="#231814"/>
<path d="M30.8399 15.6899H24.8799V16.8899H30.8399V15.6899Z" fill="white"/>
<path d="M31.0799 17.1399H24.6299V15.4399H31.0799V17.1399ZM25.1199 16.6499H30.5799V15.9399H25.1199V16.6499Z" fill="#231814"/>
<path d="M25.4498 21.9102H22.5498C22.4098 21.9102 22.2998 21.8002 22.2998 21.6602C22.2998 21.5202 22.4098 21.4102 22.5498 21.4102H25.4498C25.5898 21.4102 25.6998 21.5202 25.6998 21.6602C25.6998 21.8002 25.5898 21.9102 25.4498 21.9102Z" fill="#231814"/>
<path d="M25.4498 28.3101H22.5498C22.4098 28.3101 22.2998 28.2001 22.2998 28.0601C22.2998 27.9201 22.4098 27.8101 22.5498 27.8101H25.4498C25.5898 27.8101 25.6998 27.9201 25.6998 28.0601C25.6998 28.2001 25.5898 28.3101 25.4498 28.3101Z" fill="#231814"/>
</svg>
