<svg width="48" height="48" viewBox="0 0 48 48" fill="none" xmlns="http://www.w3.org/2000/svg">
<path d="M27.7399 16.6499H20.3599V30.9799H27.7399V16.6499Z" fill="#1E64FF"/>
<path d="M35.5297 31.5204H12.4697C12.3197 31.5204 12.1997 31.4004 12.1997 31.2504V16.3804C12.1997 16.2304 12.3197 16.1104 12.4697 16.1104H35.5197C35.6697 16.1104 35.7897 16.2304 35.7897 16.3804V31.2504C35.7897 31.4004 35.6697 31.5204 35.5197 31.5204H35.5297ZM12.7497 30.9804H35.2597V16.6504H12.7397V30.9804H12.7497Z" fill="#231814"/>
<path d="M35.0999 32.86H12.8999C12.7499 32.86 12.6299 32.74 12.6299 32.59V31.25C12.6299 31.1 12.7499 30.98 12.8999 30.98H35.0999C35.2499 30.98 35.3699 31.1 35.3699 31.25V32.59C35.3699 32.74 35.2499 32.86 35.0999 32.86ZM13.1699 32.32H34.8299V31.51H13.1699V32.32Z" fill="#231814"/>
<path d="M35.9098 16.6501H12.0898C11.9398 16.6501 11.8198 16.5301 11.8198 16.3801V15.4101C11.8198 15.2601 11.9398 15.1401 12.0898 15.1401H35.9098C36.0598 15.1401 36.1798 15.2601 36.1798 15.4101V16.3801C36.1798 16.5301 36.0598 16.6501 35.9098 16.6501ZM12.3598 16.1101H35.6398V15.6701H12.3598V16.1101Z" fill="#231814"/>
<path d="M20.0996 31.3703C19.9496 31.3703 19.8296 31.2503 19.8296 31.1003V16.3903C19.8296 16.2403 20.3696 16.2403 20.3696 16.3903V31.1003C20.3696 31.2503 20.2496 31.3703 20.0996 31.3703Z" fill="#231814"/>
<path d="M28.0097 31.3703C27.8597 31.3703 27.7397 31.2503 27.7397 31.1003V16.3903C27.7397 16.2403 28.2797 16.2403 28.2797 16.3903V31.1003C28.2797 31.2503 28.1597 31.3703 28.0097 31.3703Z" fill="#231814"/>
<path d="M28.01 20.0903H20.09C19.94 20.0903 19.94 19.5503 20.09 19.5503H28.01C28.16 19.5503 28.16 20.0903 28.01 20.0903Z" fill="#231814"/>
<path d="M28.01 23.9799H20.09C19.94 23.9799 19.94 23.4399 20.09 23.4399H28.01C28.16 23.4399 28.16 23.9799 28.01 23.9799Z" fill="#231814"/>
<path d="M28.01 27.8603H20.09C19.94 27.8603 19.94 27.3203 20.09 27.3203H28.01C28.16 27.3203 28.16 27.8603 28.01 27.8603Z" fill="#231814"/>
<path d="M24.8899 18.1899H23.2099C23.0599 18.1899 22.9399 18.0699 22.9399 17.9199C22.9399 17.7699 23.0599 17.6499 23.2099 17.6499H24.8899C25.0399 17.6499 25.1599 17.7699 25.1599 17.9199C25.1599 18.0699 25.0399 18.1899 24.8899 18.1899Z" fill="#231814"/>
<path d="M24.8899 22.0302H23.2099C23.0599 22.0302 22.9399 21.9102 22.9399 21.7602C22.9399 21.6102 23.0599 21.4902 23.2099 21.4902H24.8899C25.0399 21.4902 25.1599 21.6102 25.1599 21.7602C25.1599 21.9102 25.0399 22.0302 24.8899 22.0302Z" fill="#231814"/>
<path d="M24.8899 25.9399H23.2099C23.0599 25.9399 22.9399 25.8199 22.9399 25.6699C22.9399 25.5199 23.0599 25.3999 23.2099 25.3999H24.8899C25.0399 25.3999 25.1599 25.5199 25.1599 25.6699C25.1599 25.8199 25.0399 25.9399 24.8899 25.9399Z" fill="#231814"/>
<path d="M24.8899 29.8403H23.2099C23.0599 29.8403 22.9399 29.7203 22.9399 29.5703C22.9399 29.4203 23.0599 29.3003 23.2099 29.3003H24.8899C25.0399 29.3003 25.1599 29.4203 25.1599 29.5703C25.1599 29.7203 25.0399 29.8403 24.8899 29.8403Z" fill="#231814"/>
<path d="M18.8699 18.1899H17.1899C17.0399 18.1899 16.9199 18.0699 16.9199 17.9199C16.9199 17.7699 17.0399 17.6499 17.1899 17.6499H18.8699C19.0199 17.6499 19.1399 17.7699 19.1399 17.9199C19.1399 18.0699 19.0199 18.1899 18.8699 18.1899Z" fill="#231814"/>
<path d="M30.8797 18.1899H29.1997C29.0497 18.1899 28.9297 18.0699 28.9297 17.9199C28.9297 17.7699 29.0497 17.6499 29.1997 17.6499H30.8797C31.0297 17.6499 31.1497 17.7699 31.1497 17.9199C31.1497 18.0699 31.0297 18.1899 30.8797 18.1899Z" fill="#231814"/>
</svg>
