<svg width="48" height="48" viewBox="0 0 48 48" fill="none" xmlns="http://www.w3.org/2000/svg">
<path d="M19.6301 21.6098C18.0201 23.7898 16.8401 25.7198 14.5001 23.9198C13.2901 22.9898 13.5901 20.5198 15.1901 18.3398C16.7901 16.1598 19.0901 15.1198 20.3201 16.0298C21.5501 16.9398 21.2301 19.4298 19.6301 21.6098Z" fill="#1E64FF"/>
<path d="M28.37 21.6098C29.98 23.7898 31.16 25.7198 33.5 23.9198C34.71 22.9898 34.41 20.5198 32.81 18.3398C31.21 16.1598 28.91 15.1198 27.68 16.0298C26.45 16.9398 26.77 19.4298 28.37 21.6098Z" fill="#1E64FF"/>
<path d="M32.0299 25.6198C31.9399 24.7898 31.7399 23.9998 31.4399 23.2598C31.2799 22.8698 31.1299 22.4698 30.9899 22.0698C29.2099 16.9298 27.0199 15.0898 24.0999 15.0898C21.0199 15.0898 18.1199 17.3498 16.9199 22.7198C16.7699 23.3798 16.6099 24.0298 16.4399 24.6798C16.3599 24.9898 16.2899 25.2998 16.2399 25.6198C15.1999 32.0298 19.7699 32.9198 24.1299 32.9198C28.1699 32.9198 32.0699 32.0098 32.0899 26.9098C32.1599 26.5398 32.1499 26.1098 32.0199 25.6198H32.0299Z" fill="white"/>
<path d="M26.65 27.0299C26.26 28.2699 25.52 29.1599 24.12 29.1599C22.72 29.1599 22.07 28.3799 21.59 27.0299C21.11 25.6799 22.72 25.1099 24.12 25.1099C25.52 25.1099 27.08 25.6999 26.65 27.0299Z" fill="#1E64FF"/>
<path d="M16.21 24.8098C15.65 24.8098 15.06 24.5698 14.41 24.0698C13.12 23.0798 13.41 20.5398 15.08 18.2898C16.73 16.0498 19.12 14.9998 20.41 15.9498C20.49 16.0098 20.57 16.0798 20.64 16.1598L20.75 16.2798L20.62 16.3798C18.94 17.6098 17.71 19.8198 17.05 22.7598C16.92 23.3598 16.76 23.9898 16.58 24.6998L16.56 24.7898H16.46C16.38 24.8098 16.29 24.8198 16.21 24.8198V24.8098ZM19.25 15.8798C18.06 15.8798 16.5 16.8598 15.31 18.4598C13.77 20.5498 13.44 22.9698 14.59 23.8498C15.23 24.3398 15.8 24.5598 16.33 24.5198C16.5 23.8498 16.65 23.2498 16.78 22.6798C17.43 19.7498 18.66 17.5298 20.32 16.2398C20.29 16.2198 20.27 16.1998 20.24 16.1798C19.96 15.9798 19.62 15.8798 19.25 15.8798Z" fill="#231814"/>
<path d="M31.7498 24.8098L31.7198 24.6898C31.6098 24.1998 31.4698 23.7298 31.2998 23.3098C31.1098 22.8298 30.9698 22.4598 30.8398 22.1098C29.8598 19.2798 28.7298 17.3998 27.3898 16.3398L27.2598 16.2398L27.3698 16.1298C27.4498 16.0498 27.5098 15.9998 27.5698 15.9498C28.8598 14.9998 31.2498 16.0498 32.8998 18.2898C34.5598 20.5398 34.8498 23.0798 33.5698 24.0698C32.9598 24.5398 32.3998 24.7798 31.8598 24.7998H31.7398L31.7498 24.8098ZM27.6998 16.2198C29.0298 17.3298 30.1498 19.2298 31.1198 22.0198C31.2398 22.3698 31.3798 22.7298 31.5698 23.2098C31.7298 23.6098 31.8698 24.0498 31.9798 24.5198C32.4198 24.4698 32.8898 24.2498 33.4098 23.8498C34.5498 22.9698 34.2298 20.5598 32.6898 18.4598C31.1298 16.3498 28.9198 15.3198 27.7598 16.1798C27.7398 16.1898 27.7198 16.2098 27.7098 16.2198H27.6998Z" fill="#231814"/>
<path d="M24.1099 29.3002C22.4599 29.3002 21.8599 28.2302 21.4399 27.0802C21.2899 26.6502 21.3299 26.2402 21.5599 25.9102C22.0499 25.2202 23.2399 24.9702 24.1099 24.9702C24.9799 24.9702 26.1299 25.2102 26.6199 25.8802C26.8699 26.2202 26.9199 26.6202 26.7799 27.0702C26.3099 28.5502 25.4099 29.3002 24.1099 29.3002ZM24.1099 25.2502C23.2499 25.2502 22.1999 25.5002 21.7999 26.0702C21.6199 26.3302 21.5899 26.6302 21.7099 26.9802C22.2299 28.4402 22.9099 29.0102 24.1099 29.0102C25.3099 29.0102 26.0699 28.3502 26.5099 26.9802C26.6199 26.6202 26.5799 26.3102 26.3899 26.0402C26.0399 25.5602 25.1399 25.2402 24.1099 25.2402V25.2502Z" fill="#231814"/>
<path d="M24.2602 29.1602H23.9702V32.9202H24.2602V29.1602Z" fill="#231814"/>
<path d="M21.9299 23.08C22.2226 23.08 22.4599 22.8427 22.4599 22.55C22.4599 22.2573 22.2226 22.02 21.9299 22.02C21.6372 22.02 21.3999 22.2573 21.3999 22.55C21.3999 22.8427 21.6372 23.08 21.9299 23.08Z" fill="#231814"/>
<path d="M26.1902 23.08C26.4829 23.08 26.7202 22.8427 26.7202 22.55C26.7202 22.2573 26.4829 22.02 26.1902 22.02C25.8974 22.02 25.6602 22.2573 25.6602 22.55C25.6602 22.8427 25.8974 23.08 26.1902 23.08Z" fill="#231814"/>
<path d="M24.1299 33.0599C21.6999 33.0599 18.6999 32.8199 17.0899 30.9199C16.0499 29.6999 15.7199 27.9099 16.0899 25.5899C16.1399 25.2699 16.2099 24.9499 16.2899 24.6399C16.4799 23.9099 16.6299 23.2699 16.7699 22.6799C17.4399 19.6699 18.7099 17.4099 20.4499 16.1399C21.5299 15.3499 22.7599 14.9399 24.0899 14.9399C25.4199 14.9399 26.5799 15.3199 27.5699 16.1099C28.9599 17.2099 30.1199 19.1399 31.1099 22.0199C31.2299 22.3699 31.3699 22.7299 31.5599 23.2099C31.7399 23.6499 31.8799 24.1299 31.9899 24.6399C32.0699 24.9899 32.1199 25.2999 32.1499 25.5999C32.2699 26.0899 32.2899 26.5499 32.2199 26.9399C32.1999 32.4299 27.5899 33.0699 24.1199 33.0699L24.1299 33.0599ZM24.0899 15.2199C22.8199 15.2199 21.6499 15.5999 20.6199 16.3599C18.9399 17.5899 17.7099 19.7999 17.0499 22.7399C16.9199 23.3399 16.7599 23.9699 16.5799 24.6799C16.4899 25.0099 16.4299 25.3199 16.3799 25.6399C16.0199 27.8699 16.3299 29.5899 17.3099 30.7399C18.8499 32.5499 21.7599 32.7799 24.1299 32.7799C27.7599 32.7799 31.9299 32.1099 31.9499 26.9099C32.0199 26.5199 31.9999 26.1099 31.8899 25.6499V25.6299C31.8599 25.3399 31.7999 25.0299 31.7299 24.6899C31.6199 24.1999 31.4799 23.7299 31.3099 23.3099C31.1199 22.8299 30.9799 22.4599 30.8499 22.1099C29.8699 19.2799 28.7399 17.3999 27.3999 16.3399C26.4499 15.5899 25.3699 15.2299 24.0899 15.2299V15.2199Z" fill="#231814"/>
</svg>
