<svg width="48" height="48" viewBox="0 0 48 48" fill="none" xmlns="http://www.w3.org/2000/svg">
<path d="M36.16 33.6497H34.42C34.33 33.6497 34.26 33.5897 34.24 33.5097L33.7 31.3397H14.31L13.77 33.5097C13.75 33.5897 13.67 33.6497 13.59 33.6497H11.85C11.76 33.6497 11.69 33.5897 11.67 33.5097L11.13 31.3397H8.96002C8.86002 31.3397 8.77002 31.2597 8.77002 31.1497V29.4097C8.77002 29.3097 8.85002 29.2197 8.96002 29.2197H39.06C39.16 29.2197 39.25 29.2997 39.25 29.4097V31.1497C39.25 31.2497 39.17 31.3397 39.06 31.3397H36.89L36.35 33.5097C36.33 33.5897 36.25 33.6497 36.17 33.6497H36.16ZM34.57 33.2797H36.01L36.5 31.3397H34.08L34.57 33.2797ZM12 33.2797H13.44L13.93 31.3397H11.51L12 33.2797ZM36.75 30.9597H38.87V29.5997H9.14002V30.9597H11.26H14.15H33.82H36.71H36.75Z" fill="#231814"/>
<path d="M21.1101 29.5399C21.0601 29.5399 21.0101 29.5099 20.9901 29.4599L17.5201 20.0199C17.5001 19.9599 17.5201 19.8799 17.5901 19.8599L19.7601 19.0499C19.8201 19.0299 19.9001 19.0499 19.9201 19.1199L23.8301 29.3699C23.8501 29.4299 23.8301 29.5099 23.7601 29.5299C23.7001 29.5499 23.6201 29.5299 23.6001 29.4599L20.7701 22.0299L18.8001 22.7599L21.2301 29.3599C21.2501 29.4199 21.2301 29.4999 21.1601 29.5199C21.1501 29.5199 21.1301 29.5199 21.1201 29.5199L21.1101 29.5399ZM18.5001 21.9499L18.7101 22.5299L20.6801 21.7999L20.4601 21.2199L18.5001 21.9499ZM17.8001 20.0499L18.4101 21.7199L20.3701 20.9899L19.7401 19.3299L17.8001 20.0499ZM37.0301 29.5399C36.9601 29.5399 36.9101 29.4799 36.9101 29.4199V22.0199H34.8401V29.4199C34.8401 29.4899 34.7801 29.5399 34.7201 29.5399C34.6601 29.5399 34.6001 29.4799 34.6001 29.4199V27.8099H32.2401V29.4199C32.2401 29.4899 32.1801 29.5399 32.1201 29.5399C32.1201 29.5399 32.1201 29.5399 32.1101 29.5399C32.1101 29.5399 32.1101 29.5399 32.1001 29.5399C32.0301 29.5399 31.9801 29.4799 31.9801 29.4199V19.1299H30.0001V29.4199C30.0001 29.4899 29.9401 29.5399 29.8801 29.5399C29.8701 29.5399 29.8601 29.5399 29.8501 29.5399C29.8501 29.5399 29.8301 29.5399 29.8201 29.5399C29.7501 29.5399 29.7001 29.4799 29.7001 29.4199V19.9899H27.9201V29.4199C27.9201 29.4899 27.8601 29.5399 27.8001 29.5399C27.7401 29.5399 27.6801 29.4799 27.6801 29.4199V16.3999C27.6801 16.3299 27.7401 16.2799 27.8001 16.2799H29.8301C29.9001 16.2799 29.9501 16.3399 29.9501 16.3999V18.8799H32.0201V17.2699C32.0201 17.1999 32.0801 17.1499 32.1401 17.1499H34.7401C34.8101 17.1499 34.8601 17.2099 34.8601 17.2699V19.1699H37.0501C37.1201 19.1699 37.1701 19.2299 37.1701 19.2899V29.4199C37.1701 29.4899 37.1101 29.5399 37.0501 29.5399H37.0301ZM32.2301 27.5499H34.5901V17.3799H32.2301V27.5499ZM34.8301 21.7599H36.9001V20.8499H34.8301V21.7599ZM34.8301 20.5999H36.9001V19.3999H34.8301V20.5999ZM27.8801 19.7299H29.6601V19.1099H27.8801V19.7299ZM27.8801 18.8599H29.6601V17.9499H27.8801V18.8599ZM27.8801 17.6999H29.6601V16.4999H27.8801V17.6999ZM17.3401 29.5299C17.2701 29.5299 17.2201 29.4699 17.2201 29.4099V28.3799H14.8601V29.4099C14.8601 29.4799 14.8001 29.5299 14.7401 29.5299C14.6801 29.5299 14.6201 29.4699 14.6201 29.4099V18.5399H13.1301V29.4099C13.1301 29.4799 13.0701 29.5299 13.0101 29.5299C12.9501 29.5299 12.8901 29.4699 12.8901 29.4099V21.4299H10.8201V29.4099C10.8201 29.4799 10.7601 29.5299 10.7001 29.5299C10.6401 29.5299 10.5801 29.4699 10.5801 29.4099V19.8599C10.5801 19.7899 10.6401 19.7399 10.7001 19.7399H12.8901V18.4199C12.8901 18.3499 12.9501 18.2999 13.0101 18.2999H14.6201V14.4799C14.6201 14.4099 14.6801 14.3599 14.7401 14.3599H17.3401C17.4101 14.3599 17.4601 14.4199 17.4601 14.4799V29.4199C17.4601 29.4899 17.4001 29.5399 17.3401 29.5399V29.5299ZM14.8601 28.1199H17.2201V27.4999H14.8601V28.1199ZM14.8601 27.2499H17.2201V17.3699H14.8601V27.2499ZM10.8101 21.1699H12.8801V19.9699H10.8101V21.1699ZM14.8601 17.1199H17.2201V16.4999H14.8601V17.1199ZM14.8601 16.2499H17.2201V15.6299H14.8601V16.2499ZM14.8601 15.3799H17.2201V14.5799H14.8601V15.3799ZM13.8701 28.6499C13.8001 28.6499 13.7501 28.5899 13.7501 28.5299V19.5599C13.7501 19.4899 13.8101 19.4399 13.8701 19.4399C13.9301 19.4399 13.9901 19.4999 13.9901 19.5599V28.5299C13.9901 28.5999 13.9301 28.6499 13.8701 28.6499ZM35.8701 28.3599C35.4801 28.3599 35.1701 28.0399 35.1701 27.6599C35.1701 27.2799 35.4901 26.9599 35.8701 26.9599C36.2501 26.9599 36.5701 27.2799 36.5701 27.6599C36.5701 28.0399 36.2501 28.3599 35.8701 28.3599ZM35.8701 27.1999C35.6201 27.1999 35.4201 27.3999 35.4201 27.6499C35.4201 27.8999 35.6201 28.0999 35.8701 28.0999C36.1201 28.0999 36.3201 27.8999 36.3201 27.6499C36.3201 27.3999 36.1201 27.1999 35.8701 27.1999ZM21.6601 28.1199C21.3701 28.1199 21.1101 27.9499 21.0001 27.6599C20.8601 27.2999 21.0501 26.8899 21.4101 26.7599C21.5901 26.6899 21.7801 26.6999 21.9501 26.7799C22.1201 26.8599 22.2501 26.9999 22.3201 27.1699C22.3901 27.3499 22.3801 27.5399 22.3001 27.7099C22.2201 27.8799 22.0801 28.0099 21.9101 28.0799C21.8301 28.1099 21.7501 28.1199 21.6601 28.1199ZM21.6601 26.9599C21.6101 26.9599 21.5501 26.9599 21.5001 26.9899C21.2701 27.0799 21.1501 27.3399 21.2301 27.5699C21.3201 27.7999 21.5801 27.9199 21.8101 27.8399C21.9201 27.7999 22.0101 27.7099 22.0601 27.5999C22.1101 27.4899 22.1101 27.3699 22.0701 27.2499C22.0301 27.1399 21.9401 27.0499 21.8301 26.9999C21.7701 26.9699 21.7101 26.9599 21.6401 26.9599H21.6601ZM30.9801 28.0699C30.9101 28.0699 30.8601 28.0099 30.8601 27.9499V20.1399C30.8601 20.0699 30.9201 20.0199 30.9801 20.0199C31.0401 20.0199 31.1001 20.0799 31.1001 20.1399V27.9499C31.1001 28.0199 31.0401 28.0699 30.9801 28.0699Z" fill="#231814"/>
<path d="M11.9903 33.2803H13.4403L13.9203 31.3403H11.5103L11.9903 33.2803Z" fill="#1E64FF"/>
<path d="M9.14014 30.9601H11.2601H11.2701H14.1601H33.8401H36.7301H36.7401H38.8601V29.6001H9.14014V30.9601Z" fill="#1E64FF"/>
<path d="M34.5601 33.2803H36.0101L36.4901 31.3403H34.0801L34.5601 33.2803Z" fill="#1E64FF"/>
</svg>
