<svg width="48" height="48" viewBox="0 0 48 48" fill="none" xmlns="http://www.w3.org/2000/svg">
<path d="M35.0202 15.4702H12.9702V30.0402H35.0202V15.4702Z" fill="#1E64FF"/>
<path d="M35.2203 30.4298C35.1103 30.4298 35.0303 30.3398 35.0303 30.2398V15.4798H12.9703V30.2398C12.9703 30.3498 12.8803 30.4298 12.7803 30.4298C12.6803 30.4298 12.5903 30.3398 12.5903 30.2398V15.2798C12.5903 15.1698 12.6803 15.0898 12.7803 15.0898H35.2203C35.3303 15.0898 35.4103 15.1798 35.4103 15.2798V30.2398C35.4103 30.3498 35.3203 30.4298 35.2203 30.4298Z" fill="#231814"/>
<path d="M19.6402 23.5697C19.5302 23.5697 19.4502 23.4797 19.4502 23.3797V19.6397C19.4502 19.5297 19.5402 19.4497 19.6402 19.4497C19.7402 19.4497 19.8302 19.5397 19.8302 19.6397V23.3797C19.8302 23.4897 19.7402 23.5697 19.6402 23.5697Z" fill="#231814"/>
<path d="M24.0001 23.5697C23.8901 23.5697 23.8101 23.4797 23.8101 23.3797V19.6397C23.8101 19.5297 23.9001 19.4497 24.0001 19.4497C24.1001 19.4497 24.1901 19.5397 24.1901 19.6397V23.3797C24.1901 23.4897 24.1001 23.5697 24.0001 23.5697Z" fill="#231814"/>
<path d="M25.8704 21.6998H22.1304C22.0204 21.6998 21.9404 21.6098 21.9404 21.5098C21.9404 21.4098 22.0304 21.3198 22.1304 21.3198H25.8704C25.9804 21.3198 26.0604 21.4098 26.0604 21.5098C26.0604 21.6098 25.9704 21.6998 25.8704 21.6998Z" fill="#231814"/>
<path d="M18.2304 23.3997C18.0304 23.3997 17.8304 23.3697 17.6304 23.2997C16.9004 23.0397 16.4404 22.3497 16.4404 21.4997C16.4404 20.6497 16.8504 19.9997 17.5304 19.7397C18.2804 19.4497 19.1804 19.7097 19.7804 20.3697C19.8504 20.4497 19.8404 20.5697 19.7704 20.6397C19.6904 20.7097 19.5704 20.7097 19.5004 20.6297C19.0104 20.0797 18.2804 19.8697 17.6804 20.0997C17.1504 20.2997 16.8404 20.8097 16.8404 21.4997C16.8404 22.1897 17.1904 22.7297 17.7704 22.9297C18.3804 23.1397 19.0504 22.9297 19.4904 22.3697C19.5604 22.2897 19.6804 22.2697 19.7604 22.3397C19.8404 22.4097 19.8604 22.5297 19.7904 22.6097C19.3904 23.1097 18.8204 23.3897 18.2404 23.3897L18.2304 23.3997Z" fill="#231814"/>
<path d="M28.3604 23.5701C28.2504 23.5701 28.1704 23.4801 28.1704 23.3801V17.7701C28.1704 17.6601 28.2604 17.5801 28.3604 17.5801C28.4604 17.5801 28.5504 17.6701 28.5504 17.7701V23.3801C28.5504 23.4901 28.4604 23.5701 28.3604 23.5701Z" fill="#231814"/>
<path d="M29.8301 23.3696C29.2501 23.3696 28.6801 23.0896 28.2801 22.5896C28.2101 22.5096 28.2301 22.3796 28.3101 22.3196C28.3901 22.2496 28.5201 22.2696 28.5801 22.3496C29.0201 22.8996 29.7001 23.1196 30.3001 22.9096C30.8801 22.7096 31.2301 22.1696 31.2301 21.4796C31.2301 20.7896 30.9201 20.2796 30.3901 20.0796C29.7901 19.8496 29.0601 20.0596 28.5701 20.6096C28.5001 20.6896 28.3801 20.6996 28.3001 20.6196C28.2201 20.5496 28.2101 20.4296 28.2901 20.3496C28.8901 19.6896 29.7901 19.4296 30.5401 19.7196C31.2201 19.9796 31.6301 20.6396 31.6301 21.4796C31.6301 22.3196 31.1701 23.0196 30.4401 23.2796C30.2401 23.3496 30.0401 23.3796 29.8401 23.3796L29.8301 23.3696Z" fill="#231814"/>
<path d="M20.2604 30.4301C20.1504 30.4301 20.0704 30.3401 20.0704 30.2401V27.9401H16.0904V30.2401C16.0904 30.3501 16.0004 30.4301 15.9004 30.4301C15.8004 30.4301 15.7104 30.3401 15.7104 30.2401V27.7501C15.7104 27.6401 15.8004 27.5601 15.9004 27.5601H20.2604C20.3704 27.5601 20.4504 27.6501 20.4504 27.7501V30.2401C20.4504 30.3501 20.3604 30.4301 20.2604 30.4301Z" fill="#231814"/>
<path d="M37.0902 30.4298H10.9102C10.8002 30.4298 10.7202 30.3398 10.7202 30.2398C10.7202 30.1398 10.8102 30.0498 10.9102 30.0498H37.0902C37.2002 30.0498 37.2802 30.1398 37.2802 30.2398C37.2802 30.3398 37.1902 30.4298 37.0902 30.4298Z" fill="#231814"/>
<path d="M37.0902 32.92H10.9102C10.8002 32.92 10.7202 32.83 10.7202 32.73C10.7202 32.63 10.8102 32.54 10.9102 32.54H37.0902C37.2002 32.54 37.2802 32.63 37.2802 32.73C37.2802 32.83 37.1902 32.92 37.0902 32.92Z" fill="#231814"/>
</svg>
