<svg width="48" height="48" viewBox="0 0 48 48" fill="none" xmlns="http://www.w3.org/2000/svg">
<path d="M36.75 15.3702H12.67V15.1502C12.67 14.6302 12.25 14.2002 11.72 14.2002C11.19 14.2002 10.77 14.6202 10.77 15.1502V32.8402C10.77 33.3602 11.19 33.7902 11.72 33.7902C12.25 33.7902 12.67 33.3702 12.67 32.8402V16.3102H36.74C37 16.3102 37.21 16.1002 37.21 15.8402C37.21 15.5802 37 15.3702 36.74 15.3702H36.75Z" fill="#1E64FF"/>
<path d="M31.4595 19.27H19.2595C17.2878 19.27 15.6895 20.8684 15.6895 22.84V24.3C15.6895 26.2717 17.2878 27.87 19.2595 27.87H31.4595C33.4311 27.87 35.0295 26.2717 35.0295 24.3V22.84C35.0295 20.8684 33.4311 19.27 31.4595 19.27Z" fill="#1E64FF"/>
<path d="M33.5796 27.9899H17.1596C16.2896 27.9899 15.5796 27.2799 15.5796 26.4099V20.7299C15.5796 19.8599 16.2896 19.1499 17.1596 19.1499H33.5796C34.4496 19.1499 35.1596 19.8599 35.1596 20.7299V26.4099C35.1596 27.2799 34.4496 27.9899 33.5796 27.9899ZM17.1596 19.3899C16.4196 19.3899 15.8196 19.9899 15.8196 20.7299V26.4099C15.8196 27.1499 16.4196 27.7499 17.1596 27.7499H33.5796C34.3196 27.7499 34.9196 27.1499 34.9196 26.4099V20.7299C34.9196 19.9899 34.3196 19.3899 33.5796 19.3899H17.1596Z" fill="#231814"/>
<path d="M34.5999 29.7599H16.1399C14.9299 29.7599 13.9399 28.7699 13.9399 27.5599V19.5799C13.9399 18.3699 14.9299 17.3799 16.1399 17.3799H34.5999C35.8099 17.3799 36.7999 18.3699 36.7999 19.5799V27.5599C36.7999 28.7699 35.8099 29.7599 34.5999 29.7599ZM16.1399 17.6499C15.0699 17.6499 14.1999 18.5199 14.1999 19.5899V27.5699C14.1999 28.6399 15.0699 29.5099 16.1399 29.5099H34.5999C35.6699 29.5099 36.5399 28.6399 36.5399 27.5699V19.5899C36.5399 18.5199 35.6699 17.6499 34.5999 17.6499H16.1399Z" fill="#231814"/>
<path d="M11.7298 34.05C11.0698 34.05 10.5298 33.51 10.5298 32.85V15.16C10.5298 14.5 11.0698 13.96 11.7298 13.96C12.3898 13.96 12.9098 14.48 12.9298 15.12H36.7498C37.1498 15.12 37.4798 15.45 37.4798 15.85C37.4798 16.25 37.1498 16.58 36.7498 16.58H12.9298V32.85C12.9298 33.51 12.3898 34.05 11.7298 34.05ZM11.7298 14.21C11.2098 14.21 10.7798 14.63 10.7798 15.16V32.85C10.7798 33.37 11.1998 33.8 11.7298 33.8C12.2598 33.8 12.6798 33.38 12.6798 32.85V16.32H36.7498C37.0098 16.32 37.2198 16.11 37.2198 15.85C37.2198 15.59 37.0098 15.38 36.7498 15.38H12.6698V15.16C12.6698 14.64 12.2498 14.21 11.7198 14.21H11.7298Z" fill="#231814"/>
<path d="M32.6499 17.23V15.37C32.6499 15.0386 32.3813 14.77 32.0499 14.77H31.7999C31.4685 14.77 31.1999 15.0386 31.1999 15.37V17.23C31.1999 17.5614 31.4685 17.83 31.7999 17.83H32.0499C32.3813 17.83 32.6499 17.5614 32.6499 17.23Z" fill="white"/>
<path d="M31.9198 17.9701C31.4498 17.9701 31.0698 17.5901 31.0698 17.1101V15.5001C31.0698 15.0301 31.4498 14.6401 31.9198 14.6401C32.3898 14.6401 32.7798 15.0201 32.7798 15.5001V17.1101C32.7798 17.5801 32.3998 17.9701 31.9198 17.9701ZM31.9198 14.9101C31.5898 14.9101 31.3198 15.1801 31.3198 15.5101V17.1201C31.3198 17.4501 31.5898 17.7201 31.9198 17.7201C32.2498 17.7201 32.5198 17.4501 32.5198 17.1201V15.5101C32.5198 15.1801 32.2498 14.9101 31.9198 14.9101Z" fill="#231814"/>
<path d="M19.0498 17.2403V15.3803C19.0498 15.0489 18.7812 14.7803 18.4498 14.7803H18.1998C17.8684 14.7803 17.5998 15.0489 17.5998 15.3803V17.2403C17.5998 17.5716 17.8684 17.8403 18.1998 17.8403H18.4498C18.7812 17.8403 19.0498 17.5716 19.0498 17.2403Z" fill="white"/>
<path d="M18.3297 17.9701C17.8597 17.9701 17.4697 17.5901 17.4697 17.1101V15.5001C17.4697 15.0301 17.8497 14.6401 18.3297 14.6401C18.8097 14.6401 19.1797 15.0201 19.1797 15.5001V17.1101C19.1797 17.5801 18.7997 17.9701 18.3297 17.9701ZM18.3297 14.9101C17.9997 14.9101 17.7297 15.1801 17.7297 15.5101V17.1201C17.7297 17.4501 17.9997 17.7201 18.3297 17.7201C18.6597 17.7201 18.9297 17.4501 18.9297 17.1201V15.5101C18.9297 15.1801 18.6597 14.9101 18.3297 14.9101Z" fill="#231814"/>
</svg>
