<svg width="48" height="48" viewBox="0 0 48 48" fill="none" xmlns="http://www.w3.org/2000/svg">
<path d="M21.1298 28.48C21.0898 28.35 21.0098 28.24 20.8898 28.17C20.7698 28.1 20.6298 28.08 20.4998 28.12C20.3698 28.16 20.2598 28.24 20.1898 28.36L19.1298 30.19C19.0198 30.38 18.7298 30.59 18.3898 30.39C18.1298 30.24 16.0898 29.79 14.7798 29.52C14.7798 29.52 14.7698 29.52 14.7598 29.52C14.7198 29.51 13.7998 29.21 13.2298 30.67C13.2198 30.72 13.0998 31.24 13.4098 31.67C13.6898 32.06 14.2198 32.28 15.0098 32.33C17.3198 32.47 19.1398 31.84 19.1598 31.83C19.1898 31.83 19.2198 31.83 19.2398 31.83C19.2598 31.83 19.3798 31.8 19.5898 31.44L21.0698 28.88C21.1398 28.76 21.1598 28.62 21.1198 28.49L21.1298 28.48Z" fill="#1E64FF"/>
<path d="M34.3101 31.2896L31.2901 31.5696C31.2901 31.5696 31.2101 31.6096 31.2201 31.6596C31.2201 31.6996 31.2601 31.7296 31.3001 31.7296L34.3201 31.4496C34.3201 31.4496 34.4001 31.4096 34.3901 31.3596C34.3901 31.3196 34.3501 31.2796 34.3001 31.2896H34.3101Z" fill="#231814"/>
<path d="M14.82 30.7198L16.71 30.8298C16.75 30.8298 16.79 30.7998 16.79 30.7498C16.79 30.7098 16.76 30.6698 16.71 30.6598L14.82 30.5498C14.82 30.5498 14.74 30.5798 14.73 30.6298C14.73 30.6698 14.76 30.7098 14.81 30.7198H14.82Z" fill="#231814"/>
<path d="M17.4298 31.5598L14.4098 31.2798C14.4098 31.2798 14.3298 31.3098 14.3198 31.3498C14.3198 31.3898 14.3498 31.4298 14.3898 31.4398L17.4098 31.7198C17.4498 31.7198 17.4898 31.6898 17.4898 31.6498C17.4898 31.6098 17.4598 31.5698 17.4198 31.5598H17.4298Z" fill="#231814"/>
<path d="M32.0002 30.8298L33.8902 30.7198C33.8902 30.7198 33.9702 30.6798 33.9702 30.6298C33.9702 30.5898 33.9302 30.5498 33.8802 30.5498L31.9902 30.6598C31.9902 30.6598 31.9102 30.6998 31.9102 30.7498C31.9102 30.7898 31.9502 30.8298 31.9902 30.8298H32.0002Z" fill="#231814"/>
<path d="M35.72 30.5998C35.72 30.5998 35.72 30.5998 35.72 30.5898C35.53 30.1098 35.18 29.4998 34.57 29.3098C34.22 29.1998 33.95 29.2798 33.89 29.2898C33.52 29.3698 30.59 29.9698 30.22 30.1798C29.97 30.3198 29.83 30.1098 29.81 30.0698L28.75 28.2398C28.65 28.0698 28.49 27.9398 28.29 27.8898C28.13 27.8498 27.97 27.8598 27.83 27.9098L24.51 22.1698L27.04 17.7898C27.19 17.8598 27.36 17.8698 27.53 17.8198C27.73 17.7698 27.89 17.6398 27.99 17.4698L30.95 12.3398C31.16 11.9798 31.03 11.5198 30.67 11.3098H30.65C30.48 11.1998 30.27 11.1698 30.08 11.2198C29.88 11.2698 29.72 11.3998 29.62 11.5698L26.66 16.6998C26.47 17.0298 26.55 17.4298 26.84 17.6598L24.38 21.9198L21.92 17.6598C22.2 17.4298 22.28 17.0198 22.1 16.6998L19.14 11.5698C19.04 11.3898 18.88 11.2698 18.68 11.2198C18.48 11.1698 18.28 11.1898 18.11 11.2998H18.09C17.73 11.5198 17.6 11.9898 17.81 12.3498L20.77 17.4798C20.87 17.6598 21.03 17.7798 21.23 17.8298C21.39 17.8698 21.56 17.8598 21.72 17.7998L24.25 22.1798L20.93 27.9198C20.78 27.8598 20.62 27.8598 20.47 27.8998C20.27 27.9498 20.11 28.0798 20.01 28.2498L18.95 30.0798C18.95 30.0798 18.78 30.3298 18.54 30.1898C18.17 29.9798 15.23 29.3698 14.87 29.2998C14.82 29.2798 14.54 29.2098 14.19 29.3198C13.57 29.5098 13.22 30.1198 13.04 30.5998C13.04 30.5998 13.04 30.5998 13.04 30.6098C13.04 30.6398 12.86 31.2698 13.25 31.8198C13.57 32.2698 14.17 32.5298 15.03 32.5798C15.26 32.5898 15.49 32.5998 15.71 32.5998C17.56 32.5998 19 32.1598 19.24 32.0798C19.29 32.0798 19.35 32.0798 19.42 32.0498C19.56 31.9798 19.7 31.8198 19.84 31.5698L21.32 29.0098C21.42 28.8398 21.45 28.6298 21.4 28.4398C21.36 28.2798 21.27 28.1498 21.15 28.0498L24.4 22.4298L27.65 28.0498C27.53 28.1498 27.44 28.2798 27.4 28.4398C27.35 28.6398 27.37 28.8398 27.48 29.0098L28.96 31.5698C29.1 31.8198 29.25 31.9798 29.38 32.0498C29.45 32.0798 29.51 32.0898 29.56 32.0798C29.8 32.1598 31.24 32.5998 33.09 32.5998C33.31 32.5998 33.54 32.5998 33.77 32.5798C34.63 32.5298 35.23 32.2698 35.55 31.8198C35.94 31.2698 35.77 30.6398 35.76 30.6098L35.72 30.5998ZM26.86 16.8198L29.82 11.6898C29.89 11.5698 30 11.4898 30.13 11.4498C30.26 11.4098 30.4 11.4298 30.52 11.4998H30.54C30.78 11.6498 30.87 11.9698 30.73 12.2098L27.77 17.3398C27.7 17.4598 27.59 17.5398 27.46 17.5798C27.33 17.6198 27.19 17.5998 27.07 17.5298H27.05C26.81 17.3798 26.72 17.0598 26.86 16.8198ZM21.68 17.5198L21.66 17.5298C21.54 17.5998 21.4 17.6198 21.27 17.5798C21.14 17.5398 21.03 17.4598 20.96 17.3398L18 12.2098C17.86 11.9698 17.94 11.6498 18.19 11.5098H18.21C18.29 11.4498 18.38 11.4298 18.47 11.4298C18.51 11.4298 18.56 11.4298 18.6 11.4498C18.73 11.4898 18.84 11.5698 18.91 11.6898L21.87 16.8198C22.01 17.0598 21.93 17.3798 21.68 17.5198ZM21.13 28.4898C21.17 28.6198 21.15 28.7598 21.08 28.8798L19.6 31.4398C19.39 31.7998 19.27 31.8298 19.25 31.8298C19.22 31.8198 19.19 31.8198 19.17 31.8298C19.15 31.8298 17.32 32.4698 15.02 32.3298C14.24 32.2798 13.7 32.0598 13.42 31.6698C13.11 31.2398 13.23 30.7198 13.24 30.6698C13.8 29.2198 14.73 29.5098 14.77 29.5198C14.77 29.5198 14.78 29.5198 14.79 29.5198C16.1 29.7898 18.14 30.2398 18.4 30.3898C18.75 30.5898 19.03 30.3898 19.14 30.1898L20.2 28.3598C20.27 28.2398 20.38 28.1598 20.51 28.1198C20.64 28.0798 20.78 28.0998 20.9 28.1698C21.02 28.2398 21.1 28.3498 21.14 28.4798L21.13 28.4898ZM35.31 31.6798C35.03 32.0698 34.5 32.2898 33.71 32.3398C31.4 32.4798 29.58 31.8498 29.56 31.8398C29.55 31.8398 29.53 31.8398 29.52 31.8398C29.51 31.8398 29.49 31.8398 29.48 31.8398C29.46 31.8398 29.34 31.8098 29.13 31.4498L27.65 28.8898C27.58 28.7698 27.56 28.6298 27.6 28.4998C27.64 28.3698 27.72 28.2598 27.84 28.1898C27.96 28.1198 28.1 28.0998 28.23 28.1398C28.36 28.1798 28.47 28.2598 28.54 28.3798L29.6 30.2098C29.71 30.3998 30 30.6098 30.34 30.4098C30.6 30.2598 32.64 29.8098 33.95 29.5398C33.95 29.5398 33.96 29.5398 33.97 29.5398C33.97 29.5398 34.21 29.4598 34.5 29.5598C34.91 29.6898 35.26 30.0798 35.49 30.6898C35.5 30.7398 35.62 31.2598 35.31 31.6898V31.6798Z" fill="#231814"/>
<path d="M24.3602 30.4399C23.5902 30.4399 22.9702 31.0599 22.9702 31.8299C22.9702 32.5999 23.5902 33.2199 24.3602 33.2199C25.1302 33.2199 25.7502 32.5999 25.7502 31.8299C25.7502 31.0599 25.1302 30.4399 24.3602 30.4399ZM24.3602 32.9799C23.7302 32.9799 23.2102 32.4699 23.2102 31.8299C23.2102 31.1899 23.7202 30.6799 24.3602 30.6799C25.0002 30.6799 25.5102 31.1899 25.5102 31.8299C25.5102 32.4699 25.0002 32.9799 24.3602 32.9799Z" fill="#231814"/>
<path d="M27.0398 17.5202H27.0598C27.1798 17.6002 27.3198 17.6202 27.4498 17.5802C27.5798 17.5402 27.6898 17.4602 27.7598 17.3402L30.7198 12.2102C30.8598 11.9702 30.7798 11.6502 30.5298 11.5102H30.5098C30.3898 11.4302 30.2498 11.4102 30.1198 11.4502C29.9898 11.4902 29.8798 11.5702 29.8098 11.6902L26.8498 16.8202C26.7098 17.0702 26.7898 17.3802 27.0398 17.5202Z" fill="#1E64FF"/>
</svg>
