<svg width="48" height="48" viewBox="0 0 48 48" fill="none" xmlns="http://www.w3.org/2000/svg">
<path d="M35.6801 23.0698C34.6901 22.0798 33.3801 21.5398 31.9801 21.5398C31.1601 21.5398 30.3601 21.7298 29.6401 22.0898L28.6001 19.9398L29.8601 18.6798C29.8601 18.6798 29.9001 18.6098 29.9001 18.5698C29.9001 18.5298 29.8801 18.4898 29.8501 18.4698L26.9701 16.2498C26.9101 16.1998 26.8201 16.2098 26.7701 16.2798C26.7201 16.3398 26.7301 16.4298 26.8001 16.4798L29.5501 18.5998L28.3801 19.7698H20.5701L19.3401 16.2898H22.4601C22.5401 16.2898 22.6001 16.2298 22.6001 16.1498C22.6001 16.0698 22.5401 16.0098 22.4601 16.0098H19.1401H18.0401C17.9601 16.0098 17.9001 16.0698 17.9001 16.1498C17.9001 16.2298 17.9601 16.2898 18.0401 16.2898H19.0501L20.2801 19.7698H20.0301C19.9801 19.7698 19.9301 19.7998 19.9101 19.8398L18.5501 22.1798C17.7901 21.7598 16.9301 21.5398 16.0401 21.5398C14.6401 21.5398 13.3301 22.0798 12.3401 23.0698C11.3501 24.0598 10.8101 25.3698 10.8101 26.7698C10.8101 28.1698 11.3501 29.4798 12.3401 30.4698C13.3301 31.4598 14.6401 31.9998 16.0401 31.9998C17.4401 31.9998 18.7501 31.4598 19.7401 30.4698C20.7001 29.5098 21.2401 28.2498 21.2701 26.9098H22.9001C22.9001 26.9098 22.9301 26.9098 22.9501 26.9098C22.9701 26.9098 22.9901 26.8798 23.0101 26.8698L26.7801 22.2198C26.8301 22.1598 26.8201 22.0698 26.7601 22.0198C26.7001 21.9698 26.6101 21.9798 26.5601 22.0398L22.9501 26.4998L20.6701 20.0598H28.3501L29.4001 22.2298C29.0001 22.4598 28.6201 22.7498 28.2801 23.0798C27.2901 24.0698 26.7501 25.3798 26.7501 26.7798C26.7501 28.1798 27.2901 29.4898 28.2801 30.4798C29.2701 31.4698 30.5801 32.0098 31.9801 32.0098C33.3801 32.0098 34.6901 31.4698 35.6801 30.4798C36.6701 29.4898 37.2101 28.1798 37.2101 26.7798C37.2101 25.3798 36.6701 24.0698 35.6801 23.0798V23.0698ZM18.6301 22.5598C20.0001 23.4098 20.9301 24.9098 20.9701 26.6298H16.8101C16.7801 26.4398 16.6801 26.2798 16.5401 26.1598L18.6301 22.5598ZM19.5301 30.2798C18.5901 31.2198 17.3501 31.7298 16.0301 31.7298C14.7101 31.7298 13.4601 31.2098 12.5301 30.2798C11.5901 29.3398 11.0801 28.0998 11.0801 26.7798C11.0801 24.0498 13.3001 21.8198 16.0401 21.8198C16.9001 21.8198 17.7001 22.0398 18.4101 22.4198L16.3201 26.0198C16.2301 25.9898 16.1401 25.9698 16.0401 25.9698C15.6001 25.9698 15.2301 26.3298 15.2301 26.7798C15.2301 27.2298 15.5901 27.5898 16.0401 27.5898C16.4401 27.5898 16.7701 27.2998 16.8301 26.9298H20.9901C20.9501 28.1998 20.4401 29.3898 19.5401 30.2898L19.5301 30.2798ZM15.9001 26.8498C15.9001 26.8498 15.9701 26.9198 16.0201 26.9198H16.5201C16.4601 27.1398 16.2601 27.2998 16.0201 27.2998C15.7301 27.2998 15.5001 27.0698 15.5001 26.7798C15.5001 26.4898 15.7301 26.2598 16.0201 26.2598C16.0701 26.2598 16.1101 26.2598 16.1501 26.2798L15.9001 26.7198C15.9001 26.7198 15.8701 26.8198 15.9001 26.8598V26.8498ZM16.2701 26.6398L16.4001 26.4198C16.4601 26.4798 16.5101 26.5598 16.5301 26.6398H16.2701ZM22.6901 26.6398H21.2601C21.2201 25.2898 20.6801 24.0298 19.7301 23.0798C19.4401 22.7898 19.1201 22.5398 18.7801 22.3198L20.1001 20.0498H20.3701L22.7001 26.6398H22.6901ZM35.4801 30.2798C34.5401 31.2198 33.3001 31.7298 31.9801 31.7298C30.6601 31.7298 29.4101 31.2098 28.4801 30.2798C27.5401 29.3398 27.0301 28.0998 27.0301 26.7798C27.0301 24.9398 28.0301 23.3398 29.5201 22.4798L31.3501 26.2798C31.2401 26.4198 31.1701 26.5898 31.1701 26.7798C31.1701 27.2198 31.5301 27.5898 31.9801 27.5898C32.4301 27.5898 32.7901 27.2298 32.7901 26.7798C32.7901 26.3298 32.4301 25.9698 31.9801 25.9698C31.8301 25.9698 31.6901 26.0098 31.5701 26.0798L29.7701 22.3398C30.4401 22.0098 31.1901 21.8198 31.9801 21.8198C34.7101 21.8198 36.9401 24.0398 36.9401 26.7798C36.9401 28.0998 36.4201 29.3498 35.4901 30.2798H35.4801ZM31.4501 26.7798C31.4501 26.6698 31.4901 26.5598 31.5501 26.4798C31.5701 26.4798 31.5801 26.4798 31.6001 26.4698C31.6501 26.4498 31.6701 26.4098 31.6801 26.3598C31.7701 26.2998 31.8701 26.2598 31.9801 26.2598C32.2701 26.2598 32.5001 26.4998 32.5001 26.7798C32.5001 27.0598 32.2701 27.2998 31.9801 27.2998C31.6901 27.2998 31.4601 27.0698 31.4601 26.7798H31.4501Z" fill="#231814"/>
<path d="M16.8203 26.6301H20.9803C20.9303 24.9101 20.0103 23.4101 18.6403 22.5601L16.5503 26.1601C16.6903 26.2801 16.7903 26.4501 16.8203 26.6301Z" fill="#1E64FF"/>
<path d="M16.0201 27.5801C15.5801 27.5801 15.2101 27.2201 15.2101 26.7701C15.2101 26.3201 15.5701 25.9601 16.0201 25.9601C16.1201 25.9601 16.2101 25.9801 16.3001 26.0101L18.3901 22.4101C17.6901 22.0301 16.8801 21.8101 16.0201 21.8101C13.2901 21.8101 11.0601 24.0301 11.0601 26.7701C11.0601 28.0901 11.5801 29.3401 12.5101 30.2701C13.4501 31.2101 14.6901 31.7201 16.0101 31.7201C17.3301 31.7201 18.5801 31.2001 19.5101 30.2701C20.4101 29.3701 20.9201 28.1801 20.9601 26.9101H16.8001C16.7301 27.2901 16.4001 27.5701 16.0101 27.5701L16.0201 27.5801Z" fill="#1E64FF"/>
<path d="M31.9803 21.8101C31.1903 21.8101 30.4303 22.0001 29.7703 22.3301L31.5703 26.0701C31.6903 26.0001 31.8303 25.9601 31.9803 25.9601C32.4203 25.9601 32.7903 26.3201 32.7903 26.7701C32.7903 27.2201 32.4303 27.5801 31.9803 27.5801C31.5303 27.5801 31.1703 27.2201 31.1703 26.7701C31.1703 26.5801 31.2403 26.4001 31.3503 26.2701L29.5203 22.4701C28.0303 23.3301 27.0303 24.9301 27.0303 26.7701C27.0303 28.0901 27.5503 29.3401 28.4803 30.2701C29.4203 31.2101 30.6603 31.7201 31.9803 31.7201C33.3003 31.7201 34.5503 31.2001 35.4803 30.2701C36.4203 29.3301 36.9303 28.0901 36.9303 26.7701C36.9303 24.0401 34.7103 21.8101 31.9703 21.8101H31.9803Z" fill="#1E64FF"/>
</svg>
