<svg width="48" height="48" viewBox="0 0 48 48" fill="none" xmlns="http://www.w3.org/2000/svg">
<path d="M39.73 20.8799C39.44 20.8799 39.18 20.9999 38.99 21.1899V20.4399C38.99 19.8699 38.52 19.3999 37.95 19.3999C37.57 19.3999 37.24 19.5999 37.06 19.8999C36.88 19.5999 36.55 19.3999 36.17 19.3999C35.6 19.3999 35.13 19.8699 35.13 20.4399V22.9599H12.87V20.4399C12.87 19.8699 12.4 19.3999 11.83 19.3999C11.45 19.3999 11.12 19.5999 10.94 19.8999C10.76 19.5999 10.43 19.3999 10.05 19.3999C9.47998 19.3999 9.00998 19.8699 9.00998 20.4399V21.1899C8.81998 20.9999 8.55998 20.8799 8.26998 20.8799C7.69998 20.8799 7.22998 21.3499 7.22998 21.9199V26.0799C7.22998 26.6499 7.69998 27.1199 8.26998 27.1199C8.55998 27.1199 8.81998 26.9999 9.00998 26.8099V27.5599C9.00998 28.1299 9.47998 28.5999 10.05 28.5999C10.43 28.5999 10.76 28.3999 10.94 28.0999C11.12 28.3999 11.45 28.5999 11.83 28.5999C12.4 28.5999 12.87 28.1299 12.87 27.5599V25.0399H35.13V27.5599C35.13 28.1299 35.6 28.5999 36.17 28.5999C36.55 28.5999 36.88 28.3999 37.06 28.0999C37.24 28.3999 37.57 28.5999 37.95 28.5999C38.52 28.5999 38.99 28.1299 38.99 27.5599V26.8099C39.18 26.9999 39.44 27.1199 39.73 27.1199C40.3 27.1199 40.77 26.6499 40.77 26.0799V21.9199C40.77 21.3499 40.3 20.8799 39.73 20.8799ZM9.00998 26.0799C9.00998 26.4899 8.67998 26.8199 8.26998 26.8199C7.85998 26.8199 7.52998 26.4899 7.52998 26.0799V21.9199C7.52998 21.5099 7.85998 21.1799 8.26998 21.1799C8.67998 21.1799 9.00998 21.5099 9.00998 21.9199V26.0799ZM10.79 27.5599C10.79 27.9699 10.46 28.2999 10.05 28.2999C9.63998 28.2999 9.30998 27.9699 9.30998 27.5599V20.4399C9.30998 20.0299 9.63998 19.6999 10.05 19.6999C10.46 19.6999 10.79 20.0299 10.79 20.4399V27.5599ZM12.57 27.5599C12.57 27.9699 12.24 28.2999 11.83 28.2999C11.42 28.2999 11.09 27.9699 11.09 27.5599V20.4399C11.09 20.0299 11.42 19.6999 11.83 19.6999C12.24 19.6999 12.57 20.0299 12.57 20.4399V27.5599ZM35.13 24.7399H12.87V23.2599H35.13V24.7399ZM36.91 27.5599C36.91 27.9699 36.58 28.2999 36.17 28.2999C35.76 28.2999 35.43 27.9699 35.43 27.5599V20.4399C35.43 20.0299 35.76 19.6999 36.17 19.6999C36.58 19.6999 36.91 20.0299 36.91 20.4399V27.5599ZM38.69 27.5599C38.69 27.9699 38.36 28.2999 37.95 28.2999C37.54 28.2999 37.21 27.9699 37.21 27.5599V20.4399C37.21 20.0299 37.54 19.6999 37.95 19.6999C38.36 19.6999 38.69 20.0299 38.69 20.4399V27.5599ZM40.47 26.0799C40.47 26.4899 40.14 26.8199 39.73 26.8199C39.32 26.8199 38.99 26.4899 38.99 26.0799V21.9199C38.99 21.5099 39.32 21.1799 39.73 21.1799C40.14 21.1799 40.47 21.5099 40.47 21.9199V26.0799Z" fill="#231814"/>
<path d="M35.1301 23.2598H12.8701V24.7398H35.1301V23.2598Z" fill="#1E64FF"/>
</svg>
