<svg width="48" height="48" viewBox="0 0 48 48" fill="none" xmlns="http://www.w3.org/2000/svg">
<path d="M29.2601 16.8198H19.3101L26.8801 31.1798H26.8901H36.8301L29.2601 16.8198Z" fill="#1E64FF"/>
<path d="M29.5299 16.3701H18.8099L10.4199 31.6301H37.5799L29.5299 16.3701ZM11.2299 31.1801L18.7499 17.3201L17.8699 21.9001L13.3499 29.9301L15.4699 31.1801H11.2399H11.2299ZM16.1199 31.0501L13.9499 29.7701L17.5999 23.2901L16.1099 31.0601L16.1199 31.0501ZM16.5499 31.1801L18.9399 18.7101L21.3299 31.1801H16.5599H16.5499ZM21.7799 31.1801L19.1599 17.5001L26.3699 31.1801H21.7799ZM26.8799 31.1801L19.3099 16.8201H29.2599L36.8299 31.1801H26.8799Z" fill="black"/>
<path d="M24.0298 21.3702L26.7198 21.9102L27.1998 19.5302L24.5098 18.9902L24.0298 21.3702ZM24.8198 21.2402L24.3598 21.1502L24.4198 20.8402L24.8198 21.2402ZM26.4998 19.6802L26.8598 19.7502L26.8098 19.9902L26.4998 19.6802ZM26.2498 19.6302L26.7798 20.1602L26.6898 20.6202L25.5598 19.4902L26.2598 19.6302H26.2498ZM24.7198 19.4102L24.7398 19.3302L25.3098 19.4402L26.6598 20.7902L26.5698 21.2502L24.7198 19.4002V19.4102ZM24.6898 19.5802L26.5398 21.4202L26.5098 21.5702L26.0398 21.4802L24.5998 20.0402L24.6898 19.5802ZM24.5598 20.2102L25.7798 21.4302L25.0898 21.2902L24.4698 20.6702L24.5598 20.2102Z" fill="black"/>
</svg>
