<svg width="48" height="48" viewBox="0 0 48 48" fill="none" xmlns="http://www.w3.org/2000/svg">
<path d="M33.9098 21.1398C33.9098 21.1398 33.8998 21.0798 33.8798 21.0498C33.8598 20.9898 33.8198 20.9398 33.7798 20.8898C33.5698 20.6398 33.1098 20.4498 32.3798 20.3198C31.7798 20.2098 30.9698 20.1298 29.9898 20.0998C29.2498 20.0698 28.3998 20.0598 27.4598 20.0798C29.5498 19.5298 31.4598 18.9698 32.5798 18.0398C32.5798 18.0398 32.5898 18.0298 32.5998 18.0198C33.3398 17.2098 33.6098 16.6198 33.4598 16.1598C33.2698 15.5598 32.4398 15.3798 31.6298 15.2098C31.0098 15.0798 30.3698 14.9398 30.2198 14.6398L32.0698 12.8898C32.1298 12.8398 32.1398 12.7598 32.1098 12.6898C32.0798 12.6198 32.0098 12.5698 31.9398 12.5698H27.3898C27.3898 12.5698 27.2998 12.5898 27.2598 12.6198L20.8098 18.9098C20.5998 18.8798 20.3798 18.8598 20.1698 18.8298C20.0898 18.8298 20.0198 18.8598 19.9898 18.9298L19.1298 20.5798L16.1698 20.7798C16.0698 20.7798 15.9898 20.8698 15.9998 20.9798C16.0498 21.8698 15.9398 22.4698 15.6598 22.7798C15.4398 23.0298 15.1398 23.0598 14.8498 23.0898C14.6698 23.1098 14.4998 23.1298 14.3598 23.1998C14.1798 23.2998 14.0898 23.4598 14.0898 23.6998V25.2298C14.0898 25.3098 14.1398 25.3698 14.2098 25.3998L17.2298 26.5998L17.5598 31.3398C17.5598 31.3998 17.5998 31.4498 17.6498 31.4898L18.0198 31.7098C18.0198 31.7098 18.0798 31.7398 18.1198 31.7398H18.7398C18.8398 31.7398 18.9198 31.6598 18.9198 31.5698L19.1598 27.3798L21.9098 28.4798C21.9098 28.4798 21.9598 28.4898 21.9798 28.4898C21.9798 28.4898 21.9898 28.4898 21.9998 28.4898L24.5198 28.2198L24.7098 35.0498C24.7098 35.1098 24.7498 35.1698 24.7998 35.1998L25.2198 35.4498C25.2198 35.4498 25.2798 35.4798 25.3098 35.4798H25.8998C25.9998 35.4798 26.0798 35.3998 26.0798 35.3098L26.5898 28.0098L29.5198 27.6998C29.6098 27.6998 29.6898 27.6098 29.6898 27.5198V26.9998C29.7098 26.8698 29.8398 26.7998 30.0998 26.6898L30.2398 31.0298C30.2398 31.0898 30.2798 31.1498 30.3298 31.1798L30.7498 31.4298C30.7498 31.4298 30.8098 31.4598 30.8398 31.4598H31.3598C31.4598 31.4598 31.5398 31.3798 31.5398 31.2898L31.9598 25.3398C32.0298 25.3298 32.0998 25.3098 32.1698 25.2998C32.7598 25.1698 33.4398 25.0298 33.8498 24.6498C33.8898 24.6098 33.9098 24.5698 33.9098 24.5098V21.4098C33.9298 21.3298 33.9298 21.2598 33.9098 21.1898V21.1398ZM27.4598 12.9298H31.4698L29.8798 14.4398C29.8798 14.4398 29.8098 14.5498 29.8198 14.6098C29.8698 14.8898 30.0798 15.1098 30.4698 15.2698C30.7798 15.3998 31.1698 15.4798 31.5498 15.5598C32.2498 15.7098 32.9798 15.8698 33.0998 16.2598C33.1998 16.5698 32.9298 17.0898 32.3298 17.7498C31.1698 18.7098 29.0298 19.2698 26.7698 19.8698C26.4798 19.9498 26.1698 20.0298 25.8698 20.1098C25.3798 20.1298 24.8598 20.1498 24.3298 20.1698L24.3598 19.9198C24.3698 19.8298 24.3198 19.7498 24.2398 19.7198C23.2598 19.3798 22.2698 19.1298 21.2598 18.9698L27.4498 12.9298H27.4598ZM20.2498 19.1998C21.5098 19.3298 22.7598 19.6098 23.9798 20.0098L23.6498 22.3698L19.2398 21.1298L20.2498 19.1898V19.1998ZM18.9198 20.9498L18.8098 21.1698C18.8098 21.1698 18.7798 21.2798 18.8098 21.3298C18.8298 21.3798 18.8798 21.4198 18.9298 21.4298L23.7698 22.7898C23.7698 22.7898 23.7998 22.7898 23.8198 22.7898C23.8598 22.7898 23.8898 22.7798 23.9198 22.7598C23.9598 22.7298 23.9898 22.6798 23.9998 22.6298L24.2898 20.5298C24.2898 20.5298 24.2998 20.5298 24.3098 20.5298C24.8598 20.4998 25.3998 20.4798 25.9098 20.4598C27.4898 20.4098 28.8598 20.3998 29.9798 20.4498C32.6498 20.5498 33.3298 20.9098 33.4998 21.1098C33.5198 21.1298 33.5298 21.1498 33.5398 21.1798V21.2698C33.5398 21.2698 33.4298 21.3198 33.2198 21.3598C33.0198 21.3998 32.7598 21.4198 32.4798 21.4498C31.6198 21.5298 30.7198 21.6198 30.4198 22.0598C30.3498 22.1698 30.3098 22.2998 30.3198 22.4398C30.1298 22.4998 29.7298 22.5798 28.8698 22.6698C28.0498 22.7598 26.9898 22.8298 25.9698 22.8998C25.2298 22.9498 24.4698 23.0098 23.7998 23.0598C23.6998 23.0598 23.6198 23.1598 23.6298 23.2598C23.6298 23.3298 23.6398 23.3998 23.6398 23.4698L16.3598 21.2798C16.3598 21.2198 16.3598 21.1698 16.3598 21.1098L18.9098 20.9398L18.9198 20.9498ZM14.8798 23.4298C15.1898 23.3998 15.6098 23.3498 15.9298 22.9998C16.1798 22.7198 16.3298 22.2798 16.3598 21.6698L23.6598 23.8698C23.6598 24.4998 23.5598 24.9498 23.3598 25.2398C23.1498 25.5498 22.8498 25.6398 22.5298 25.7298C22.0598 25.8698 21.5398 26.0298 21.4798 26.9198L14.4398 24.1898V23.6698C14.4398 23.4998 14.4698 23.4698 14.8798 23.4298ZM18.5398 31.3398H18.1498L17.9098 31.1898L17.5998 26.7298L18.7898 27.1998L18.5498 31.3298L18.5398 31.3398ZM25.7198 35.0798H25.3498L25.0598 34.9098L24.8698 28.1598L26.2098 28.0198L25.7198 35.0898V35.0798ZM31.1898 31.0398H30.8898L30.5998 30.8698L30.4598 26.4698C30.6898 26.3398 30.8898 26.1398 30.9298 25.7998C30.9698 25.5998 31.2298 25.4698 31.5798 25.3798L31.1798 31.0398H31.1898ZM32.0998 24.8798C31.3598 25.0398 30.6698 25.1898 30.5698 25.7398C30.5398 26.0298 30.3198 26.1398 29.9798 26.2798C29.6898 26.3998 29.3598 26.5398 29.3198 26.9198C29.3198 26.9198 29.3198 26.9298 29.3198 26.9398V27.2998L21.9898 28.0698L14.4498 25.0598V24.5698L21.6098 27.3398C21.6098 27.3398 21.6498 27.3498 21.6798 27.3498C21.7198 27.3498 21.7598 27.3398 21.7898 27.3198C21.8398 27.2798 21.8698 27.2198 21.8698 27.1598C21.8398 26.3098 22.1598 26.2098 22.6598 26.0698C23.0098 25.9698 23.4098 25.8498 23.6898 25.4298C23.9798 24.9998 24.0998 24.3598 24.0398 23.3998C24.6598 23.3498 25.3498 23.2998 26.0198 23.2498C28.6298 23.0598 30.2398 22.9298 30.6498 22.6798C30.7198 22.6398 30.7498 22.5498 30.7298 22.4698C30.6898 22.3498 30.7298 22.2798 30.7498 22.2398C30.9498 21.9398 31.8698 21.8498 32.5398 21.7898C32.9698 21.7498 33.3198 21.7198 33.5598 21.6398V24.3398C33.2198 24.6098 32.6598 24.7298 32.1198 24.8498L32.0998 24.8798Z" fill="#231814"/>
<path d="M26.71 14.5501L28.68 22.9301L29.14 22.9001L26.84 14.3501L26.71 14.5501Z" fill="#231814"/>
</svg>
