<svg width="48" height="48" viewBox="0 0 48 48" fill="none" xmlns="http://www.w3.org/2000/svg">
<path d="M26.0798 21.6298C26.1198 21.1098 26.5398 20.6898 27.0598 20.6498L30.2398 17.4598C29.6298 16.6498 28.8198 16.0398 27.8498 15.6498C27.0498 15.3298 26.1298 15.1598 25.1198 15.1398C23.6798 15.1098 22.4598 15.4098 22.0898 15.5098L24.9798 22.7298L26.0798 21.6298Z" fill="#1E64FF"/>
<path d="M24.4497 25.1996L25.1497 25.9496L27.1897 24.6696L26.8197 22.8496L24.4497 25.1996Z" fill="#1E64FF"/>
<path d="M28.1698 21.4697C28.1898 21.5497 28.1998 21.6297 28.1998 21.7197C28.1998 21.8897 28.1598 22.0397 28.0898 22.1797L28.4398 23.8897L31.7098 21.8497C31.5998 20.6397 31.3498 19.5797 30.9498 18.6797L28.1698 21.4697Z" fill="#1E64FF"/>
<path d="M23.9698 26.6899L23.4898 26.1699L22.3198 27.3499C22.4698 27.4699 22.6198 27.4999 22.6798 27.4999L23.9798 26.6899H23.9698Z" fill="#1E64FF"/>
<path d="M29.5202 34.5802C28.5102 34.5802 27.6902 33.7602 27.6902 32.7502C27.6902 32.2802 27.8702 31.8502 28.1602 31.5302H19.0802C19.3702 31.8502 19.5502 32.2802 19.5502 32.7502C19.5502 33.7602 18.7302 34.5802 17.7202 34.5802C16.7102 34.5802 15.8902 33.7602 15.8902 32.7502C15.8902 32.2802 16.0702 31.8502 16.3602 31.5302H15.6302C15.2502 31.5302 14.9502 31.2202 14.9502 30.8502C14.9502 30.4802 15.2602 30.1702 15.6302 30.1702H17.5402L23.1902 24.5002H19.6202C19.2402 24.5002 18.9402 24.1902 18.9402 23.8202V23.4402C18.9402 23.0602 19.2502 22.7602 19.6202 22.7602H24.7002L21.7902 15.4902C21.7902 15.4902 21.7802 15.4302 21.7902 15.4002C21.8002 15.3702 21.8302 15.3502 21.8602 15.3402C21.8702 15.3402 23.3102 14.8902 25.0702 14.9202C26.1102 14.9402 27.0502 15.1202 27.8802 15.4502C28.8802 15.8502 29.7102 16.4702 30.3502 17.3102L31.4302 16.2302C31.7602 15.9002 31.7602 15.3702 31.4302 15.0402C31.1002 14.7102 30.5702 14.7102 30.2402 15.0402C29.9702 15.3102 29.5402 15.3102 29.2702 15.0402C29.1402 14.9102 29.0702 14.7402 29.0702 14.5602C29.0702 14.3802 29.1402 14.2102 29.2702 14.0802C29.6902 13.6602 30.2402 13.4302 30.8302 13.4302C31.4202 13.4302 31.9702 13.6602 32.3902 14.0802C32.8102 14.5002 33.0402 15.0502 33.0402 15.6402C33.0402 16.2302 32.8102 16.7802 32.3902 17.2002L31.0702 18.5202C31.5102 19.4702 31.7902 20.6102 31.8902 21.9102C31.8902 21.9502 31.8702 21.9902 31.8402 22.0202L28.4402 24.1402L29.6702 30.1802H29.8702C30.2502 30.1802 30.5502 30.4902 30.5502 30.8602C30.5502 30.9902 30.5202 31.1102 30.4502 31.2102C30.9702 31.5302 31.3102 32.1102 31.3102 32.7602C31.3102 33.7702 30.4902 34.5902 29.4802 34.5902L29.5202 34.5802ZM29.5202 31.1502C28.6402 31.1502 27.9202 31.8702 27.9202 32.7502C27.9202 33.6302 28.6402 34.3502 29.5202 34.3502C30.4002 34.3502 31.1202 33.6302 31.1202 32.7502C31.1202 32.1502 30.7802 31.6202 30.2902 31.3502C30.2702 31.3502 30.2502 31.3402 30.2402 31.3202C30.0202 31.2102 29.7802 31.1502 29.5202 31.1502ZM17.7202 31.1502C16.8402 31.1502 16.1202 31.8702 16.1202 32.7502C16.1202 33.6302 16.8402 34.3502 17.7202 34.3502C18.6002 34.3502 19.3202 33.6302 19.3202 32.7502C19.3202 31.8702 18.6002 31.1502 17.7202 31.1502ZM18.8302 31.3002H28.4002C28.7102 31.0602 29.1002 30.9202 29.5102 30.9202C29.7802 30.9202 30.0402 30.9802 30.2802 31.0902C30.3302 31.0202 30.3502 30.9302 30.3502 30.8402C30.3502 30.5902 30.1402 30.3802 29.8902 30.3802H29.5902C29.5402 30.3802 29.4902 30.3402 29.4802 30.2902L28.2202 24.1402C28.2202 24.1402 28.2202 24.1402 28.2202 24.1302C28.2002 24.1002 28.2002 24.0702 28.2102 24.0402L27.8802 22.4302C27.6902 22.6402 27.4102 22.7702 27.1002 22.7702C27.0602 22.7702 27.0302 22.7702 26.9902 22.7702L27.3802 24.6302C27.3802 24.6302 27.3902 24.6402 27.4002 24.6502C27.4202 24.6802 27.4202 24.7202 27.4002 24.7502L28.3802 29.4702C28.3802 29.4702 28.3702 29.5702 28.3202 29.5902C28.2702 29.6102 28.2202 29.6002 28.1902 29.5702L25.0302 26.1902C25.0302 26.1902 25.0002 26.1702 24.9902 26.1502L24.1802 25.2802C24.1802 25.2802 24.1402 25.1702 24.1802 25.1202L26.6402 22.6802C26.3502 22.5402 26.1302 22.2702 26.0602 21.9402L25.0002 23.0002C25.0002 23.0002 24.9802 23.0302 24.9602 23.0402L17.6602 30.3602C17.6602 30.3602 17.6102 30.3902 17.5802 30.3902H15.6202C15.3702 30.3902 15.1602 30.6002 15.1602 30.8502C15.1602 31.1002 15.3702 31.3102 15.6202 31.3102H16.6002C16.9102 31.0702 17.3002 30.9302 17.7102 30.9302C18.1202 30.9302 18.5202 31.0702 18.8202 31.3102L18.8302 31.3002ZM25.2702 26.1102L28.0802 29.1202L27.2002 24.9002L25.2602 26.1102H25.2702ZM24.4202 25.1902L25.1202 25.9402L27.1602 24.6602L26.7802 22.8402L24.4202 25.1902ZM19.6202 22.9602C19.3702 22.9602 19.1602 23.1702 19.1602 23.4202V23.8002C19.1602 24.0502 19.3702 24.2602 19.6202 24.2602H23.4202L24.7102 22.9602H19.6202ZM28.0602 22.1702L28.4102 23.8802L31.6802 21.8402C31.5702 20.6302 31.3202 19.5702 30.9202 18.6702L28.1402 21.4602C28.1602 21.5402 28.1702 21.6202 28.1702 21.7102C28.1702 21.8802 28.1302 22.0302 28.0602 22.1702ZM22.0502 15.5002L24.9402 22.7202L26.0402 21.6202C26.0802 21.1002 26.5002 20.6802 27.0202 20.6402L30.2002 17.4502C29.5902 16.6402 28.7802 16.0302 27.8102 15.6402C27.0102 15.3202 26.0902 15.1502 25.0802 15.1302C23.6402 15.1002 22.4202 15.4002 22.0502 15.5002ZM26.9102 22.5202C26.9702 22.5302 27.0302 22.5402 27.1002 22.5402C27.5602 22.5402 27.9402 22.1602 27.9402 21.7002C27.9402 21.6302 27.9402 21.5602 27.9102 21.4902C27.9002 21.4702 27.8902 21.4502 27.8902 21.4202C27.7802 21.0902 27.4602 20.8602 27.1002 20.8602C26.6502 20.8602 26.2902 21.2102 26.2602 21.6502C26.2602 21.6602 26.2602 21.6802 26.2602 21.6902C26.2602 21.6902 26.2602 21.6902 26.2602 21.7002C26.2602 22.0702 26.5002 22.3902 26.8402 22.5002C26.8502 22.5002 26.8702 22.5002 26.8802 22.5002C26.8902 22.5002 26.9002 22.5002 26.9102 22.5202ZM27.3102 20.6602C27.6302 20.7302 27.9002 20.9402 28.0402 21.2202L32.2302 17.0102C32.6002 16.6402 32.8102 16.1402 32.8102 15.6102C32.8102 15.0802 32.6002 14.5802 32.2302 14.2102C31.8602 13.8402 31.3602 13.6302 30.8302 13.6302C30.3002 13.6302 29.8002 13.8402 29.4302 14.2102C29.3402 14.3002 29.3002 14.4102 29.3002 14.5302C29.3002 14.6502 29.3502 14.7702 29.4302 14.8502C29.6102 15.0302 29.9002 15.0302 30.0802 14.8502C30.5002 14.4302 31.1702 14.4302 31.5902 14.8502C32.0102 15.2702 32.0002 15.9402 31.5902 16.3602L27.3102 20.6502V20.6602ZM29.5002 33.6102C29.0202 33.6102 28.6302 33.2202 28.6302 32.7402C28.6302 32.2602 29.0202 31.8702 29.5002 31.8702C29.9802 31.8702 30.3702 32.2602 30.3702 32.7402C30.3702 33.2202 29.9802 33.6102 29.5002 33.6102ZM29.5002 32.0902C29.1402 32.0902 28.8502 32.3802 28.8502 32.7402C28.8502 33.1002 29.1402 33.3902 29.5002 33.3902C29.8602 33.3902 30.1502 33.1002 30.1502 32.7402C30.1502 32.3802 29.8602 32.0902 29.5002 32.0902ZM17.7002 33.6102C17.2202 33.6102 16.8302 33.2202 16.8302 32.7402C16.8302 32.2602 17.2202 31.8702 17.7002 31.8702C18.1802 31.8702 18.5702 32.2602 18.5702 32.7402C18.5702 33.2202 18.1802 33.6102 17.7002 33.6102ZM17.7002 32.0902C17.3402 32.0902 17.0502 32.3802 17.0502 32.7402C17.0502 33.1002 17.3402 33.3902 17.7002 33.3902C18.0602 33.3902 18.3502 33.1002 18.3502 32.7402C18.3502 32.3802 18.0602 32.0902 17.7002 32.0902ZM27.4202 30.3802H19.1802C19.1802 30.3802 19.0902 30.3502 19.0802 30.3102C19.0602 30.2702 19.0802 30.2202 19.1002 30.1902L21.9802 27.3002C21.9802 27.3002 22.0002 27.2602 22.0102 27.2502C22.0202 27.2402 22.0402 27.2302 22.0602 27.2202L23.3602 25.9102C23.3602 25.9102 23.4102 25.8802 23.4402 25.8802C23.4702 25.8802 23.5002 25.8902 23.5202 25.9202L27.5102 30.1902C27.5102 30.1902 27.5502 30.2702 27.5302 30.3102C27.5102 30.3502 27.4702 30.3802 27.4302 30.3802H27.4202ZM19.4502 30.1502H27.1602L24.0702 26.8402L22.7002 27.6902C22.7002 27.6902 22.6602 27.7102 22.6402 27.7102C22.6302 27.7102 22.3602 27.7102 22.0902 27.4902L19.4402 30.1502H19.4502ZM22.2602 27.3302C22.4102 27.4502 22.5602 27.4802 22.6202 27.4802L23.9202 26.6702L23.4402 26.1502L22.2702 27.3302H22.2602Z" fill="#231814"/>
<path d="M27.2804 21.7203C27.2804 21.8303 27.1904 21.9103 27.0904 21.9103C26.9904 21.9103 26.9004 21.8203 26.9004 21.7203C26.9004 21.6203 26.9904 21.5303 27.0904 21.5303C27.1904 21.5303 27.2804 21.6203 27.2804 21.7203Z" fill="#231814"/>
<path d="M29.7101 32.7501C29.7101 32.8601 29.6201 32.9401 29.5201 32.9401C29.4201 32.9401 29.3301 32.8501 29.3301 32.7501C29.3301 32.6501 29.4201 32.5601 29.5201 32.5601C29.6201 32.5601 29.7101 32.6501 29.7101 32.7501Z" fill="#231814"/>
<path d="M17.9103 32.7501C17.9103 32.8601 17.8203 32.9401 17.7203 32.9401C17.6203 32.9401 17.5303 32.8501 17.5303 32.7501C17.5303 32.6501 17.6203 32.5601 17.7203 32.5601C17.8203 32.5601 17.9103 32.6501 17.9103 32.7501Z" fill="#231814"/>
</svg>
