<svg width="48" height="48" viewBox="0 0 48 48" fill="none" xmlns="http://www.w3.org/2000/svg">
<path d="M38.33 33.1698H36.36C36.3 33.1698 36.24 33.1398 36.21 33.0898L34.3 30.0798H13.71L11.8 33.0898C11.77 33.1398 11.71 33.1698 11.65 33.1698H9.68C9.58 33.1698 9.5 33.0898 9.5 32.9898V16.4198C9.5 15.5498 10.21 14.8398 11.08 14.8398H12.2C13.07 14.8398 13.78 15.5498 13.78 16.4198V20.4498H17.53C18.14 20.4498 18.67 20.7998 18.93 21.2998C19.2 20.7898 19.73 20.4498 20.33 20.4498H34.94C35.81 20.4498 36.52 21.1598 36.52 22.0298V24.1098C37.31 24.1998 37.92 24.8698 37.92 25.6798V26.2398C37.92 26.7298 37.69 27.1698 37.34 27.4598H38.3C38.4 27.4598 38.48 27.5398 38.48 27.6398V32.9798C38.48 33.0798 38.4 33.1598 38.3 33.1598L38.33 33.1698ZM36.46 32.8098H38.15V30.0798H34.73L36.47 32.8098H36.46ZM9.86 32.8098H11.55L13.29 30.0798H9.87V32.8098H9.86ZM34.4 29.7198H38.15V27.8298H9.86V29.7198H34.4ZM13.79 27.4698H36.36C37.04 27.4698 37.58 26.9198 37.58 26.2498V25.6898C37.58 25.0098 37.03 24.4698 36.36 24.4698H13.79V27.4798V27.4698ZM9.86 27.4698H13.43V16.4098C13.43 15.7298 12.88 15.1898 12.21 15.1898H11.09C10.41 15.1898 9.87 15.7398 9.87 16.4098V27.4698H9.86ZM19.13 24.0998H36.18V22.0298C36.18 21.3498 35.63 20.8098 34.96 20.8098H20.35C19.67 20.8098 19.13 21.3598 19.13 22.0298V24.0998ZM13.79 24.0998H18.77V22.0298C18.77 21.3498 18.22 20.8098 17.55 20.8098H13.8V24.0998H13.79Z" fill="#231814"/>
<path d="M37.58 26.2502V25.6902C37.58 25.0102 37.03 24.4702 36.36 24.4702H13.79V27.4802H36.36C37.04 27.4802 37.58 26.9302 37.58 26.2602V26.2502Z" fill="#1E64FF"/>
<path d="M36.1799 22.0301C36.1799 21.3501 35.6299 20.8101 34.9599 20.8101H20.3499C19.6699 20.8101 19.1299 21.3601 19.1299 22.0301V24.1001H36.1799V22.0301Z" fill="#1E64FF"/>
<path d="M18.76 22.0301C18.76 21.3501 18.21 20.8101 17.54 20.8101H13.79V24.1001H18.77V22.0301H18.76Z" fill="#1E64FF"/>
</svg>
