<svg width="48" height="48" viewBox="0 0 48 48" fill="none" xmlns="http://www.w3.org/2000/svg">
<path d="M15.3002 21.6496C15.7702 21.5996 16.2302 21.4196 16.6102 21.1296C17.9802 20.0996 21.5502 17.5796 24.8902 16.7196C31.8602 14.9296 36.9302 18.6696 38.9302 21.0096C39.0902 21.1996 39.1802 21.4496 39.1802 21.6996V22.3796V24.4696L40.7202 25.2396C41.0802 25.4196 41.3102 25.7896 41.3102 26.1896V27.7596C41.3102 28.3496 40.8302 28.8196 40.2502 28.8196H7.7602C7.1702 28.8196 6.7002 28.3396 6.7002 27.7596V26.0996C6.7002 25.8396 6.7902 25.5996 6.9602 25.3996C7.7102 24.5296 10.1602 22.1996 15.3102 21.6396L15.3002 21.6496Z" fill="white"/>
<path d="M40.24 28.9998H7.76002C7.08002 28.9998 6.52002 28.4398 6.52002 27.7598V26.0998C6.52002 25.7998 6.63002 25.5198 6.82002 25.2898C7.65002 24.3298 10.13 22.0298 15.28 21.4698C15.72 21.4198 16.15 21.2498 16.5 20.9898C17.89 19.9398 21.48 17.4098 24.84 16.5498C27.95 15.7498 30.98 15.9498 33.83 17.1498C36.67 18.3498 38.43 20.1598 39.05 20.8898C39.24 21.1098 39.34 21.3998 39.34 21.6898V24.3498L40.79 25.0698C41.21 25.2798 41.47 25.7098 41.47 26.1798V27.7498C41.47 28.4298 40.91 28.9898 40.23 28.9898L40.24 28.9998ZM15.32 21.8198C10.29 22.3698 7.89002 24.5898 7.09002 25.5198C6.95002 25.6798 6.87002 25.8898 6.87002 26.0998V27.7598C6.87002 28.2498 7.27002 28.6498 7.76002 28.6498H40.24C40.73 28.6498 41.13 28.2498 41.13 27.7598V26.1898C41.13 25.8498 40.94 25.5398 40.64 25.3898L39.1 24.6198C39.04 24.5898 39 24.5298 39 24.4598V21.6898C39 21.4798 38.92 21.2698 38.79 21.1098C38.18 20.3998 36.47 18.6298 33.7 17.4598C30.92 16.2898 27.96 16.0898 24.93 16.8698C21.63 17.7198 18.09 20.2198 16.72 21.2498C16.32 21.5598 15.83 21.7498 15.33 21.7998L15.32 21.8198Z" fill="#231814"/>
<path d="M13.0801 31.7501C14.991 31.7501 16.5401 30.201 16.5401 28.2901C16.5401 26.3792 14.991 24.8301 13.0801 24.8301C11.1692 24.8301 9.62012 26.3792 9.62012 28.2901C9.62012 30.201 11.1692 31.7501 13.0801 31.7501Z" fill="white"/>
<path d="M13.0802 31.9299C11.0802 31.9299 9.4502 30.2999 9.4502 28.2999C9.4502 26.2999 11.0802 24.6699 13.0802 24.6699C15.0802 24.6699 16.7102 26.2999 16.7102 28.2999C16.7102 30.2999 15.0802 31.9299 13.0802 31.9299ZM13.0802 25.0099C11.2702 25.0099 9.7902 26.4799 9.7902 28.2999C9.7902 30.1199 11.2602 31.5899 13.0802 31.5899C14.9002 31.5899 16.3702 30.1199 16.3702 28.2999C16.3702 26.4799 14.9002 25.0099 13.0802 25.0099Z" fill="#231814"/>
<path d="M29.6898 26.3101H17.9598C17.8898 26.3101 17.8298 26.2701 17.7998 26.2101C16.9698 24.3501 15.1198 23.1501 13.0898 23.1501C11.2098 23.1501 9.47978 24.1801 8.56978 25.8301C8.53978 25.8901 8.47978 25.9201 8.41979 25.9201H6.69978C6.59978 25.9201 6.52979 25.8401 6.52979 25.7501C6.52979 25.6601 6.60978 25.5801 6.69978 25.5801H8.31978C9.29978 23.8701 11.1198 22.8101 13.0898 22.8101C15.2198 22.8101 17.1698 24.0501 18.0698 25.9801H29.5798C30.4898 24.0501 32.4298 22.8101 34.5498 22.8101C34.6498 22.8101 34.7198 22.8901 34.7198 22.9801C34.7198 23.0701 34.6398 23.1501 34.5498 23.1501C32.5298 23.1501 30.6898 24.3501 29.8498 26.2101C29.8198 26.2701 29.7598 26.3101 29.6898 26.3101Z" fill="#231814"/>
<path d="M13.0801 30.0201C14.0355 30.0201 14.8101 29.2455 14.8101 28.2901C14.8101 27.3346 14.0355 26.5601 13.0801 26.5601C12.1246 26.5601 11.3501 27.3346 11.3501 28.2901C11.3501 29.2455 12.1246 30.0201 13.0801 30.0201Z" fill="#1E64FF"/>
<path d="M13.0802 30.1999C12.0302 30.1999 11.1802 29.3499 11.1802 28.2999C11.1802 27.2499 12.0302 26.3999 13.0802 26.3999C14.1302 26.3999 14.9802 27.2499 14.9802 28.2999C14.9802 29.3499 14.1302 30.1999 13.0802 30.1999ZM13.0802 26.7399C12.2202 26.7399 11.5202 27.4399 11.5202 28.2999C11.5202 29.1599 12.2202 29.8599 13.0802 29.8599C13.9402 29.8599 14.6402 29.1599 14.6402 28.2999C14.6402 27.4399 13.9402 26.7399 13.0802 26.7399Z" fill="#231814"/>
<path d="M34.5498 31.7501C36.4607 31.7501 38.0098 30.201 38.0098 28.2901C38.0098 26.3792 36.4607 24.8301 34.5498 24.8301C32.6389 24.8301 31.0898 26.3792 31.0898 28.2901C31.0898 30.201 32.6389 31.7501 34.5498 31.7501Z" fill="white"/>
<path d="M34.5499 31.9299C32.5499 31.9299 30.9199 30.2999 30.9199 28.2999C30.9199 26.2999 32.5499 24.6699 34.5499 24.6699C36.5499 24.6699 38.1799 26.2999 38.1799 28.2999C38.1799 30.2999 36.5499 31.9299 34.5499 31.9299ZM34.5499 25.0099C32.7399 25.0099 31.2599 26.4799 31.2599 28.2999C31.2599 30.1199 32.7299 31.5899 34.5499 31.5899C36.3699 31.5899 37.8399 30.1199 37.8399 28.2999C37.8399 26.4799 36.3699 25.0099 34.5499 25.0099Z" fill="#231814"/>
<path d="M34.5498 30.0201C35.5053 30.0201 36.2798 29.2455 36.2798 28.2901C36.2798 27.3346 35.5053 26.5601 34.5498 26.5601C33.5944 26.5601 32.8198 27.3346 32.8198 28.2901C32.8198 29.2455 33.5944 30.0201 34.5498 30.0201Z" fill="#1E64FF"/>
<path d="M34.5499 30.1999C33.4999 30.1999 32.6499 29.3499 32.6499 28.2999C32.6499 27.2499 33.4999 26.3999 34.5499 26.3999C35.5999 26.3999 36.4499 27.2499 36.4499 28.2999C36.4499 29.3499 35.5999 30.1999 34.5499 30.1999ZM34.5499 26.7399C33.6899 26.7399 32.9899 27.4399 32.9899 28.2999C32.9899 29.1599 33.6899 29.8599 34.5499 29.8599C35.4099 29.8599 36.1099 29.1599 36.1099 28.2999C36.1099 27.4399 35.4099 26.7399 34.5499 26.7399Z" fill="#231814"/>
<path d="M39.1803 22.3799H36.7803C36.6303 22.3799 36.5103 22.4999 36.5103 22.6499V23.1099C36.5103 23.2099 36.5703 23.3099 36.6703 23.3499L39.1703 24.4699V22.3799H39.1803Z" fill="#1E64FF"/>
<path d="M39.1801 24.6397C39.1801 24.6397 39.1301 24.6397 39.1101 24.6197L36.6101 23.4997C36.4501 23.4297 36.3501 23.2697 36.3501 23.0997V22.6397C36.3501 22.3997 36.5501 22.1997 36.7901 22.1997H39.1901C39.2901 22.1997 39.3601 22.2797 39.3601 22.3697V24.4597C39.3601 24.5197 39.3301 24.5697 39.2801 24.6097C39.2501 24.6297 39.2201 24.6397 39.1901 24.6397H39.1801ZM36.7801 22.5497C36.7301 22.5497 36.6901 22.5897 36.6901 22.6397V23.0997C36.6901 23.0997 36.7101 23.1697 36.7401 23.1797L39.0001 24.1897V22.5397H36.7801V22.5497Z" fill="#231814"/>
<path d="M35.5605 19.62C35.5905 19.51 35.5405 19.39 35.4505 19.33C33.6605 18.21 30.9605 17.21 28.7605 17.21C27.6005 17.21 26.3905 17.39 25.1705 17.74C23.4605 18.23 20.4505 19.96 18.6105 21.09C18.3805 21.23 18.4805 21.58 18.7505 21.58H34.8705C34.9905 21.58 35.1005 21.5 35.1305 21.38L35.5705 19.62H35.5605Z" fill="#1E64FF"/>
<path d="M34.8703 21.7598H18.7503C18.5503 21.7598 18.3803 21.6298 18.3303 21.4398C18.2803 21.2498 18.3503 21.0498 18.5203 20.9498C19.8803 20.1198 23.2503 18.1298 25.1303 17.5898C26.3603 17.2298 27.5903 17.0498 28.7703 17.0498C31.0803 17.0498 33.8403 18.1298 35.5503 19.1998C35.7103 19.2998 35.7903 19.4898 35.7403 19.6798L35.3003 21.4398C35.2503 21.6398 35.0803 21.7698 34.8703 21.7698V21.7598ZM28.7603 17.3898C27.6103 17.3898 26.4203 17.5698 25.2203 17.9098C23.3803 18.4398 20.0503 20.4098 18.7003 21.2398C18.6503 21.2698 18.6503 21.3198 18.6603 21.3398C18.6603 21.3598 18.6903 21.4098 18.7503 21.4098H34.8703C34.8703 21.4098 34.9503 21.3798 34.9603 21.3398L35.4003 19.5798C35.4003 19.5798 35.4003 19.4998 35.3603 19.4798C33.6903 18.4398 31.0103 17.3898 28.7703 17.3898H28.7603Z" fill="#231814"/>
<path d="M20.1602 21.7598C20.0602 21.7598 19.9902 21.6798 19.9902 21.5898V20.1798C19.9902 20.0798 20.0702 20.0098 20.1602 20.0098C20.2502 20.0098 20.3302 20.0898 20.3302 20.1798V21.5898C20.3302 21.6898 20.2502 21.7598 20.1602 21.7598Z" fill="#231814"/>
<path d="M26.4801 29C26.3801 29 26.3101 28.92 26.3101 28.83V17.44C26.3101 17.34 26.3901 17.27 26.4801 17.27C26.5701 17.27 26.6501 17.35 26.6501 17.44V28.83C26.6501 28.93 26.5701 29 26.4801 29Z" fill="#231814"/>
<path d="M32.9102 21.76C32.8102 21.76 32.7402 21.68 32.7402 21.59V18.21C32.7402 18.11 32.8202 18.04 32.9102 18.04C33.0002 18.04 33.0802 18.12 33.0802 18.21V21.59C33.0802 21.69 33.0002 21.76 32.9102 21.76Z" fill="#231814"/>
<path d="M8.40994 24.6098V24.0898C8.40994 24.0898 7.58994 24.7598 7.18994 25.1398H7.86994C8.15994 25.1398 8.39994 24.8998 8.39994 24.6098H8.40994Z" fill="white"/>
<path d="M7.87997 25.3198H7.19997C7.12997 25.3198 7.06997 25.2798 7.03997 25.2098C7.00997 25.1398 7.02997 25.0698 7.07997 25.0198C7.46997 24.6398 8.26997 23.9898 8.30997 23.9598C8.35997 23.9198 8.42997 23.9098 8.48997 23.9398C8.54997 23.9698 8.58997 24.0298 8.58997 24.0998V24.6198C8.58997 25.0098 8.26997 25.3298 7.87997 25.3298V25.3198ZM7.63997 24.9698H7.87997C8.07997 24.9698 8.23997 24.8098 8.23997 24.6098V24.4598C8.06997 24.5998 7.84997 24.7898 7.63997 24.9698Z" fill="#231814"/>
</svg>
