<svg width="48" height="48" viewBox="0 0 48 48" fill="none" xmlns="http://www.w3.org/2000/svg">
<path d="M18.7603 24.1704H28.7303C30.1103 24.1704 31.2303 25.2904 31.2303 26.6704V27.1804H18.7603V24.1704Z" fill="white"/>
<path d="M31.45 27.4002H18.54V23.9502H28.22C30 23.9502 31.45 25.4002 31.45 27.1802V27.4002ZM18.98 26.9602H31C30.89 25.5202 29.68 24.3902 28.22 24.3902H18.98V26.9602Z" fill="#231814"/>
<path d="M29.3504 22.1802H16.8804V24.1702H29.3504V22.1802Z" fill="#1E64FF"/>
<path d="M29.5702 24.39H16.6602V21.96H29.5702V24.39ZM17.1002 23.95H29.1302V22.4H17.1002V23.95Z" fill="#231814"/>
<path d="M19.5304 34.7902C23.076 34.7902 25.9504 31.9159 25.9504 28.3702C25.9504 24.8245 23.076 21.9502 19.5304 21.9502C15.9847 21.9502 13.1104 24.8245 13.1104 28.3702C13.1104 31.9159 15.9847 34.7902 19.5304 34.7902Z" fill="#1E64FF"/>
<path d="M19.5301 35.0202C15.8701 35.0202 12.8901 32.0402 12.8901 28.3802C12.8901 24.7202 15.8701 21.7402 19.5301 21.7402C23.1901 21.7402 26.1701 24.7202 26.1701 28.3802C26.1701 32.0402 23.1901 35.0202 19.5301 35.0202ZM19.5301 22.1702C16.1101 22.1702 13.3301 24.9502 13.3301 28.3702C13.3301 31.7902 16.1101 34.5702 19.5301 34.5702C22.9501 34.5702 25.7301 31.7902 25.7301 28.3702C25.7301 24.9502 22.9501 22.1702 19.5301 22.1702Z" fill="#231814"/>
<path d="M19.5298 23.4502C18.1698 23.4502 16.9398 24.0002 16.0498 24.8902L19.5298 28.3702V23.4502Z" fill="white"/>
<path d="M19.7497 28.9002L15.7397 24.8902L15.8997 24.7302C16.8697 23.7602 18.1597 23.2202 19.5297 23.2202H19.7497V28.8902V28.9002ZM16.3697 24.8902L19.3097 27.8302V23.6702C18.2097 23.7202 17.1797 24.1502 16.3697 24.8902Z" fill="#231814"/>
<path d="M23 24.8902C22.11 24.0002 20.88 23.4502 19.52 23.4502V28.3702L23 24.8902Z" fill="white"/>
<path d="M19.3101 28.9V23.23H19.5301C20.9001 23.23 22.1901 23.76 23.1601 24.74L23.3201 24.9L19.3101 28.91V28.9ZM19.7501 23.68V27.84L22.6901 24.9C21.8801 24.16 20.8501 23.73 19.7501 23.68Z" fill="#231814"/>
<path d="M16.0499 24.8901C15.1599 25.7801 14.6099 27.0101 14.6099 28.3701H19.5299L16.0499 24.8901Z" fill="white"/>
<path d="M20.0596 28.5901H14.3896V28.3701C14.3896 27.0001 14.9196 25.7101 15.8996 24.7401L16.0596 24.5801L20.0696 28.5901H20.0596ZM14.8396 28.1501H18.9996L16.0596 25.2101C15.3196 26.0201 14.8896 27.0501 14.8396 28.1501Z" fill="#231814"/>
<path d="M24.4395 28.3701C24.4395 27.0101 23.8895 25.7801 22.9995 24.8901L19.5195 28.3701H24.4395Z" fill="white"/>
<path d="M24.6597 28.5901H18.9897L22.9997 24.5801L23.1597 24.7401C24.1297 25.7101 24.6697 27.0001 24.6697 28.3701V28.5901H24.6597ZM20.0497 28.1501H24.2097C24.1597 27.0501 23.7297 26.0201 22.9897 25.2101L20.0497 28.1501Z" fill="#231814"/>
<path d="M19.5298 28.3706L23.0098 31.8506C23.8998 30.9606 24.4498 29.7306 24.4498 28.3706H19.5298Z" fill="white"/>
<path d="M22.9997 32.1604L18.9897 28.1504H24.6597V28.3704C24.6597 29.7404 24.1297 31.0304 23.1497 32.0004L22.9897 32.1604H22.9997ZM20.0497 28.5904L22.9897 31.5304C23.7297 30.7204 24.1597 29.6904 24.2097 28.5904H20.0497Z" fill="#231814"/>
<path d="M19.5303 33.2901C20.8903 33.2901 22.1203 32.7401 23.0103 31.8501L19.5303 28.3701V33.2901Z" fill="white"/>
<path d="M19.5301 33.5103H19.3101V27.8403L23.3201 31.8503L23.1601 32.0103C22.1901 32.9803 20.9001 33.5203 19.5301 33.5203V33.5103ZM19.7501 28.9003V33.0603C20.8501 33.0103 21.8801 32.5803 22.6901 31.8403L19.7501 28.9003Z" fill="#231814"/>
<path d="M14.6099 28.3706C14.6099 29.7306 15.1599 30.9606 16.0499 31.8506L19.5299 28.3706H14.6099Z" fill="white"/>
<path d="M16.0499 32.1604L15.8899 32.0004C14.9199 31.0304 14.3799 29.7404 14.3799 28.3704V28.1504H20.0499L16.0399 32.1604H16.0499ZM14.8299 28.5904C14.8799 29.6904 15.3099 30.7204 16.0499 31.5304L18.9899 28.5904H14.8299Z" fill="#231814"/>
<path d="M16.0498 31.8501C16.9398 32.7401 18.1698 33.2901 19.5298 33.2901V28.3701L16.0498 31.8501Z" fill="white"/>
<path d="M19.7497 33.5101H19.5297C18.1597 33.5101 16.8697 32.9801 15.8997 32.0001L15.7397 31.8401L19.7497 27.8301V33.5001V33.5101ZM16.3697 31.8501C17.1797 32.5901 18.2097 33.0201 19.3097 33.0701V28.9101L16.3697 31.8501Z" fill="#231814"/>
<path d="M17.1001 22.1801H16.6601V14.7401C16.6601 13.9401 16.0101 13.2901 15.2101 13.2901H12.8901V12.8501H15.2101C16.2501 12.8501 17.1001 13.7001 17.1001 14.7401V22.1801Z" fill="#231814"/>
<path d="M16.8804 16.9102H27.4604C28.5004 16.9102 29.3504 17.7602 29.3504 18.8002V19.1902H16.8804V16.9102Z" fill="#1E64FF"/>
<path d="M29.5702 19.4099H16.6602V16.6899H27.0702C28.4502 16.6899 29.5702 17.8099 29.5702 19.1899V19.4099ZM17.1002 18.9699H29.1202C29.0102 17.9399 28.1302 17.1299 27.0702 17.1299H17.1002V18.9699Z" fill="#231814"/>
<path d="M31.4498 27.1802H31.0098V30.5302H31.4498V27.1802Z" fill="#231814"/>
<path d="M31.23 34.9302C32.4726 34.9302 33.48 33.9228 33.48 32.6802C33.48 31.4375 32.4726 30.4302 31.23 30.4302C29.9873 30.4302 28.98 31.4375 28.98 32.6802C28.98 33.9228 29.9873 34.9302 31.23 34.9302Z" fill="white"/>
<path d="M31.2298 35.15C29.8698 35.15 28.7598 34.04 28.7598 32.68C28.7598 31.32 29.8698 30.21 31.2298 30.21C32.5898 30.21 33.6998 31.32 33.6998 32.68C33.6998 34.04 32.5898 35.15 31.2298 35.15ZM31.2298 30.64C30.1098 30.64 29.1898 31.55 29.1898 32.68C29.1898 33.81 30.0998 34.72 31.2298 34.72C32.3598 34.72 33.2698 33.81 33.2698 32.68C33.2698 31.55 32.3598 30.64 31.2298 30.64Z" fill="#231814"/>
<path d="M35.1202 32.46H33.4902V32.9H35.1202V32.46Z" fill="#231814"/>
<path d="M29.3504 19.2002H16.8804V22.1902H29.3504V19.2002Z" fill="white"/>
<path d="M29.5702 22.4002H16.6602V18.9702H29.5702V22.4002ZM17.1002 21.9602H29.1302V19.4102H17.1002V21.9602Z" fill="#231814"/>
</svg>
