<svg width="48" height="48" viewBox="0 0 48 48" fill="none" xmlns="http://www.w3.org/2000/svg">
<path d="M24.8501 25.3301L24.6301 25.7101L23.6301 23.9701L23.6101 23.9401C23.4701 23.7101 23.1401 23.7101 23.0001 23.9401L21.9801 25.7101L21.6801 25.1801C21.5501 24.9601 21.2401 24.9401 21.0901 25.1501C20.6401 25.7901 20.3701 26.6401 20.3701 27.5701C20.3701 29.5801 21.6501 30.9101 23.2201 30.9101C24.7901 30.9101 26.0701 29.5801 26.0701 27.5701C26.0701 26.7101 25.8401 25.9301 25.4501 25.3101C25.3101 25.0901 24.9801 25.1001 24.8501 25.3301Z" fill="#1E64FF"/>
<path d="M24.9102 16.1598L31.2202 17.8998V12.2598L24.9102 14.0098V16.1598Z" fill="#1E64FF"/>
<path d="M31.28 18.1198V12.0598L24.97 13.8098V13.7698C24.97 12.7998 24.18 12.0098 23.21 12.0098C22.3 12.0098 21.54 12.7098 21.46 13.6098H19.47C17.95 13.6098 16.71 14.8498 16.71 16.3698H17.03C17.03 15.0198 18.12 13.9298 19.47 13.9298H21.45V15.3598H19.03V15.6798H21.45V17.7998C19.18 18.5598 17.67 20.6498 17.67 23.0498V36.0098H28.75V23.0498C28.75 20.6498 27.23 18.5498 24.97 17.7998V16.3898L31.28 18.1398V18.1198ZM30.96 12.4798V17.6998L24.98 16.0398V14.1398L30.96 12.4798ZM28.44 35.6798H18V32.5998H28.44V35.6798ZM28.4 22.3798H21.63V22.6998H28.43C28.43 22.8098 28.44 22.9198 28.44 23.0398V32.2698H18V23.0398C18 22.9298 18 22.8198 18.01 22.6998H19.92V22.3798H18.04C18.29 20.3598 19.68 18.6698 21.67 18.0498C22.67 17.7398 23.77 17.7398 24.76 18.0498C26.74 18.6698 28.13 20.3598 28.39 22.3798H28.4ZM24.66 17.6898C24.66 17.6898 24.58 17.6698 24.55 17.6598C24.5 17.6498 24.45 17.6398 24.4 17.6298C24.31 17.6098 24.23 17.5998 24.14 17.5798C24.1 17.5798 24.06 17.5698 24.01 17.5598C23.91 17.5498 23.81 17.5298 23.7 17.5298C23.67 17.5298 23.64 17.5298 23.62 17.5298C23.35 17.5098 23.09 17.5098 22.82 17.5298C22.79 17.5298 22.77 17.5298 22.74 17.5298C22.64 17.5298 22.53 17.5498 22.43 17.5598C22.39 17.5598 22.35 17.5698 22.31 17.5798C22.22 17.5898 22.13 17.6098 22.05 17.6298C22 17.6398 21.96 17.6498 21.91 17.6598C21.87 17.6598 21.83 17.6798 21.79 17.6898V13.7598C21.79 12.9698 22.43 12.3298 23.22 12.3298C24.01 12.3298 24.65 12.9698 24.65 13.7598V17.6898H24.66Z" fill="#231814"/>
<path d="M20.96 25.0596C20.48 25.7496 20.21 26.6496 20.21 27.5696C20.21 29.5996 21.48 31.0696 23.22 31.0696C24.96 31.0696 26.23 29.5996 26.23 27.5696C26.23 26.7096 26.01 25.8996 25.59 25.2196C25.5 25.0696 25.34 24.9796 25.16 24.9796C24.98 24.9796 24.81 25.0796 24.72 25.2396L24.64 25.3796L23.76 23.8596C23.67 23.6996 23.5 23.5996 23.32 23.5996C23.14 23.5996 22.97 23.6996 22.88 23.8596L22 25.3796L21.84 25.0896C21.75 24.9396 21.59 24.8396 21.42 24.8296C21.24 24.8296 21.08 24.8996 20.98 25.0496L20.96 25.0596ZM21.54 25.2596L21.98 26.0296L23.14 24.0196C23.19 23.9296 23.27 23.9296 23.3 23.9296C23.33 23.9296 23.41 23.9296 23.46 24.0196L24.62 26.0296L24.98 25.4096C25.01 25.3496 25.08 25.3096 25.14 25.3096C25.18 25.3096 25.25 25.3096 25.3 25.3896C25.69 26.0096 25.9 26.7696 25.9 27.5696C25.9 29.4096 24.77 30.7496 23.21 30.7496C21.65 30.7496 20.52 29.4096 20.52 27.5696C20.52 26.7096 20.77 25.8796 21.21 25.2396C21.25 25.1896 21.3 25.1596 21.36 25.1596C21.43 25.1596 21.48 25.1996 21.52 25.2596H21.54Z" fill="#231814"/>
</svg>
