<svg width="48" height="48" viewBox="0 0 48 48" fill="none" xmlns="http://www.w3.org/2000/svg">
<path d="M24.0001 28.0398C26.9714 28.0398 29.3801 25.6311 29.3801 22.6598C29.3801 19.6885 26.9714 17.2798 24.0001 17.2798C21.0288 17.2798 18.6201 19.6885 18.6201 22.6598C18.6201 25.6311 21.0288 28.0398 24.0001 28.0398Z" fill="#1E64FF"/>
<path d="M23.9998 26.3799C26.0543 26.3799 27.7198 24.7144 27.7198 22.6599C27.7198 20.6054 26.0543 18.9399 23.9998 18.9399C21.9453 18.9399 20.2798 20.6054 20.2798 22.6599C20.2798 24.7144 21.9453 26.3799 23.9998 26.3799Z" fill="white"/>
<path d="M33.9301 34.1402H14.0701C13.5401 34.1402 13.1001 33.7102 13.1001 33.1702V12.1502C13.1001 11.6202 13.5301 11.1802 14.0701 11.1802H33.9301C34.4601 11.1802 34.9001 11.6102 34.9001 12.1502V33.1802C34.9001 33.7102 34.4701 34.1502 33.9301 34.1502V34.1402ZM14.0701 11.5002C13.7101 11.5002 13.4301 11.7902 13.4301 12.1402V33.1702C13.4301 33.5302 13.7201 33.8102 14.0701 33.8102H33.9301C34.2901 33.8102 34.5701 33.5202 34.5701 33.1702V12.1502C34.5701 11.7902 34.2801 11.5102 33.9301 11.5102H14.0701V11.5002Z" fill="#231814"/>
<path d="M32.2699 32.0098H15.7299C15.3999 32.0098 15.1299 31.7398 15.1299 31.4098V13.9198C15.1299 13.5898 15.3999 13.3198 15.7299 13.3198H32.2699C32.5999 13.3198 32.8699 13.5898 32.8699 13.9198V31.4098C32.8699 31.7398 32.5999 32.0098 32.2699 32.0098ZM15.7299 13.6398C15.5799 13.6398 15.4499 13.7598 15.4499 13.9198V31.4098C15.4499 31.5598 15.5699 31.6898 15.7299 31.6898H32.2699C32.4199 31.6898 32.5499 31.5698 32.5499 31.4098V13.9198C32.5499 13.7698 32.4299 13.6398 32.2699 13.6398H15.7299Z" fill="#231814"/>
<path d="M24.0001 25.0398C22.6901 25.0398 21.6201 23.9698 21.6201 22.6598C21.6201 21.3498 22.6901 20.2798 24.0001 20.2798C25.3101 20.2798 26.3801 21.3498 26.3801 22.6598C26.3801 23.9698 25.3101 25.0398 24.0001 25.0398ZM24.0001 20.5998C22.8701 20.5998 21.9401 21.5198 21.9401 22.6598C21.9401 23.7998 22.8601 24.7198 24.0001 24.7198C25.1401 24.7198 26.0601 23.7998 26.0601 22.6598C26.0601 21.5198 25.1401 20.5998 24.0001 20.5998Z" fill="#231814"/>
<path d="M24 26.7001C21.77 26.7001 19.96 24.8901 19.96 22.6601C19.96 20.4301 21.77 18.6201 24 18.6201C26.23 18.6201 28.04 20.4301 28.04 22.6601C28.04 24.8901 26.23 26.7001 24 26.7001ZM24 18.9401C21.95 18.9401 20.28 20.6101 20.28 22.6601C20.28 24.7101 21.95 26.3801 24 26.3801C26.05 26.3801 27.72 24.7101 27.72 22.6601C27.72 20.6101 26.05 18.9401 24 18.9401Z" fill="#231814"/>
<path d="M23.9998 28.36C20.8598 28.36 18.2998 25.8 18.2998 22.66C18.2998 19.52 20.8598 16.96 23.9998 16.96C27.1398 16.96 29.6998 19.52 29.6998 22.66C29.6998 25.8 27.1398 28.36 23.9998 28.36ZM23.9998 17.28C21.0298 17.28 18.6198 19.69 18.6198 22.66C18.6198 25.63 21.0298 28.04 23.9998 28.04C26.9698 28.04 29.3798 25.63 29.3798 22.66C29.3798 19.69 26.9698 17.28 23.9998 17.28Z" fill="#231814"/>
<path d="M33.5902 36.8199H14.4102V33.8599H33.6002V36.8199H33.5902ZM14.6402 36.5799H33.3402V34.1099H14.6502V36.5799H14.6402Z" fill="#231814"/>
<path d="M26.8921 20.1499L26.4819 19.7397L25.9799 20.2418L26.39 20.6519L26.8921 20.1499Z" fill="#231814"/>
<path d="M23.0999 21.7698C22.6099 22.2598 22.6099 23.0498 23.0999 23.5298L24.8599 21.7698C24.3699 21.2798 23.5799 21.2798 23.0999 21.7698Z" fill="#231814"/>
<path d="M24.29 18.8198H23.71V19.5298H24.29V18.8198Z" fill="#231814"/>
<path d="M24.29 25.73H23.71V26.44H24.29V25.73Z" fill="#231814"/>
<path d="M22.0205 25.0298L21.6104 24.6196L21.1083 25.1217L21.5184 25.5318L22.0205 25.0298Z" fill="#231814"/>
<path d="M26.4893 25.5312L26.8994 25.1211L26.3974 24.619L25.9872 25.0292L26.4893 25.5312Z" fill="#231814"/>
<path d="M21.6006 20.6513L22.0107 20.2412L21.5087 19.7392L21.0986 20.1493L21.6006 20.6513Z" fill="#231814"/>
<path d="M27.8101 22.9198V22.3398H27.1001V22.9198H27.8101Z" fill="#231814"/>
<path d="M20.8999 22.9198V22.3398H20.1899V22.9198H20.8999Z" fill="#231814"/>
<path d="M15.4198 24.9702H15.1598C14.8008 24.9702 14.5098 25.2612 14.5098 25.6202V28.8502C14.5098 29.2092 14.8008 29.5002 15.1598 29.5002H15.4198C15.7788 29.5002 16.0698 29.2092 16.0698 28.8502V25.6202C16.0698 25.2612 15.7788 24.9702 15.4198 24.9702Z" fill="#1E64FF"/>
<path d="M15.4198 15.7402H15.1598C14.8008 15.7402 14.5098 16.0312 14.5098 16.3902V19.6202C14.5098 19.9792 14.8008 20.2702 15.1598 20.2702H15.4198C15.7788 20.2702 16.0698 19.9792 16.0698 19.6202V16.3902C16.0698 16.0312 15.7788 15.7402 15.4198 15.7402Z" fill="#1E64FF"/>
<path d="M15.5801 29.6201H15.0001C14.6601 29.6201 14.3901 29.3501 14.3901 29.0101V25.4601C14.3901 25.1201 14.6601 24.8501 15.0001 24.8501H15.5801C15.9201 24.8501 16.1901 25.1201 16.1901 25.4601V29.0101C16.1901 29.3501 15.9201 29.6201 15.5801 29.6201ZM15.0001 25.0901C14.8001 25.0901 14.6301 25.2601 14.6301 25.4601V29.0101C14.6301 29.2101 14.8001 29.3801 15.0001 29.3801H15.5801C15.7801 29.3801 15.9501 29.2101 15.9501 29.0101V25.4601C15.9501 25.2601 15.7801 25.0901 15.5801 25.0901H15.0001Z" fill="#231814"/>
<path d="M15.0001 15.8601C14.8001 15.8601 14.6301 16.0301 14.6301 16.2301V19.7801C14.6301 19.9801 14.8001 20.1501 15.0001 20.1501H15.5801C15.7801 20.1501 15.9501 19.9801 15.9501 19.7801V16.2301C15.9501 16.0301 15.7801 15.8601 15.5801 15.8601H15.0001ZM15.5801 20.3901H15.0001C14.6601 20.3901 14.3901 20.1201 14.3901 19.7801V16.2301C14.3901 15.8901 14.6601 15.6201 15.0001 15.6201H15.5801C15.9201 15.6201 16.1901 15.8901 16.1901 16.2301V19.7801C16.1901 20.1201 15.9201 20.3901 15.5801 20.3901Z" fill="#231814"/>
</svg>
