<svg width="48" height="48" viewBox="0 0 48 48" fill="none" xmlns="http://www.w3.org/2000/svg">
<path d="M23.9999 36.9066C31.1281 36.9066 36.9066 31.1281 36.9066 23.9999C36.9066 16.8718 31.1281 11.0933 23.9999 11.0933C16.8718 11.0933 11.0933 16.8718 11.0933 23.9999C11.0933 31.1281 16.8718 36.9066 23.9999 36.9066Z" fill="white"/>
<path d="M24 37.2626C16.6851 37.2626 10.7373 31.3148 10.7373 24C10.7373 16.6851 16.6851 10.7373 24 10.7373C31.3148 10.7373 37.2626 16.6851 37.2626 24C37.2626 31.3148 31.3148 37.2626 24 37.2626ZM24 11.4493C17.0791 11.4493 11.4493 17.0791 11.4493 24C11.4493 30.9208 17.0791 36.5506 24 36.5506C30.9208 36.5506 36.5506 30.9208 36.5506 24C36.5506 17.0791 30.9208 11.4493 24 11.4493Z" fill="#231814"/>
<path d="M24.0382 26.1267C25.2127 26.1267 26.1648 25.1746 26.1648 24.0001C26.1648 22.8256 25.2127 21.8735 24.0382 21.8735C22.8637 21.8735 21.9116 22.8256 21.9116 24.0001C21.9116 25.1746 22.8637 26.1267 24.0382 26.1267Z" fill="#1E64FF"/>
<path d="M18.2091 26.1267C19.3836 26.1267 20.3357 25.1746 20.3357 24.0001C20.3357 22.8256 19.3836 21.8735 18.2091 21.8735C17.0346 21.8735 16.0825 22.8256 16.0825 24.0001C16.0825 25.1746 17.0346 26.1267 18.2091 26.1267Z" fill="#1E64FF"/>
<path d="M29.8624 26.1267C31.0369 26.1267 31.989 25.1746 31.989 24.0001C31.989 22.8256 31.0369 21.8735 29.8624 21.8735C28.6879 21.8735 27.7358 22.8256 27.7358 24.0001C27.7358 25.1746 28.6879 26.1267 29.8624 26.1267Z" fill="#1E64FF"/>
</svg>
