<svg width="150" height="150" viewBox="0 0 150 150" fill="none" xmlns="http://www.w3.org/2000/svg">
<g clip-path="url(#clip0_95_8803)">
<path d="M611.859 39.5229C611.859 19.7639 602.684 1.12511 587.025 -10.9254C570.065 -23.9771 547.682 -27.6334 527.45 -20.657L474.822 -2.50919C455.459 4.16771 434.037 0.668381 417.805 -11.823C401.573 -24.3143 380.151 -27.8136 360.788 -21.1367L306.768 -2.50919C287.405 4.16771 265.983 0.668381 249.751 -11.823C233.519 -24.3143 212.097 -27.8136 192.734 -21.1367L138.714 -2.50919C119.351 4.16771 97.9288 0.668381 81.697 -11.823C65.4651 -24.3143 44.043 -27.8136 24.68 -21.1367L5.75836 -14.612C-33.8052 -0.969414 -60.3562 36.2714 -60.3562 78.1211V197.338H611.859V39.5229Z" fill="#2960E8"/>
<path d="M-400.765 39.5229C-400.765 19.7639 -391.589 1.12511 -375.93 -10.9254C-358.97 -23.9771 -336.587 -27.6334 -316.356 -20.657L-263.727 -2.50919C-244.364 4.16771 -222.942 0.668381 -206.71 -11.823C-190.478 -24.3143 -169.056 -27.8136 -149.693 -21.1367L-95.6732 -2.50919C-76.3102 4.16771 -54.888 0.668381 -38.6561 -11.823C-22.4243 -24.3143 -1.00211 -27.8136 18.3609 -21.1367L72.3807 -2.50919C91.7437 4.16771 113.166 0.668381 129.398 -11.823C145.63 -24.3143 167.052 -27.8136 186.415 -21.1368L205.336 -14.612C244.9 -0.969416 271.451 36.2714 271.451 78.1211V198.249H-400.765V39.5229Z" fill="#1E64FF"/>
<path d="M65.4163 100L42 76.1079L48.4206 69.5568L65.4163 86.8979L101.579 50L108 56.5511L65.4163 100Z" fill="white"/>
</g>
<defs>
<clipPath id="clip0_95_8803">
<rect width="150" height="150" rx="75" fill="white"/>
</clipPath>
</defs>
</svg>
