<svg width="76" height="76" viewBox="0 0 76 76" fill="none" xmlns="http://www.w3.org/2000/svg">
<path d="M37.9981 56.9229C38.7916 56.9229 39.4441 56.6677 39.9556 56.1574C40.4671 55.647 40.7229 54.9951 40.7229 54.2016C40.7229 53.4081 40.4677 52.7556 39.9574 52.2441C39.4471 51.7326 38.7952 51.4768 38.0017 51.4768C37.2082 51.4768 36.5557 51.732 36.0442 52.2424C35.5327 52.7527 35.2769 53.4046 35.2769 54.1981C35.2769 54.9916 35.5321 55.6441 36.0424 56.1556C36.5527 56.6671 37.2046 56.9229 37.9981 56.9229ZM35.9538 42.8153H40.4921V17.8615H35.9538V42.8153ZM38.0332 75.9998C32.7695 75.9998 27.8396 75.0025 23.2435 73.0078C18.6474 71.0131 14.6222 68.2895 11.168 64.8368C7.71373 61.3841 4.98883 57.3582 2.9933 52.7591C0.997767 48.16 0 43.2259 0 37.9566C0 32.7129 0.997334 27.7841 2.992 23.1702C4.98667 18.5563 7.71033 14.5389 11.163 11.118C14.6157 7.69707 18.6416 4.98884 23.2407 2.9933C27.8398 0.997771 32.7739 0 38.0432 0C43.2869 0 48.2157 0.997338 52.8296 2.992C57.4435 4.98667 61.4609 7.69367 64.8818 11.113C68.3027 14.5324 71.011 18.5534 73.0065 23.1759C75.002 27.7984 75.9998 32.7286 75.9998 37.9666C75.9998 43.2303 75.0025 48.1602 73.0078 52.7563C71.0131 57.3524 68.3061 61.3715 64.8868 64.8134C61.4674 68.2553 57.4464 70.9802 52.8239 72.988C48.2014 74.9959 43.2712 75.9998 38.0332 75.9998Z" fill="#1E64FF"/>
</svg>
